<ttFont>
          <CharString index="0">
            32 0 27.1666717529 10.3333435059 22.3333282471 20.6666564941 22.3333282471 20.6666564941 13.1666717529 30 4 39.3333435059 3.33334350586 34.6666870117 -7.33334350586 28.5 -18 22.3333129883 -18 22.3333129883 -24.3333282471 11.1666870117 -30.6666717529 0 -31.3333282471 0 -27.0000152588 -11.1666870117 -22.6666564941 -22.3333129883 -22.6666564941 -22.3333129883 -13.0000152588 -28.5 -3.33332824707 -34.6666870117 rrcurveto
            -0.66667175293 -7.33331298828 -0.33332824707 -6.66668701172 0 -6 0 -33.3333435059 8.66667175293 -25.1666564941 17.3333282471 -17 17.3333435059 -17 23 -8.5 28.6666564941 0 rrcurveto
            return
          </CharString>
          <CharString index="1">
            444 680 -66 26 -449 -681 rlineto
            return
          </CharString>
          <CharString index="2">
            10.6666717529 0 9.33332824707 -5 8 -10 10 -12 4 -17 -2 -22 -2.66667175293 -22 -7.33332824707 -16.6666564941 -12 -11.3333435059 -9.33332824707 -9.33334350586 -10.3333435059 -4.66665649414 -11.3333282471 0 -11.3333282471 0 -9.33332824707 4.66665649414 -7.33334350586 9.33334350586 -10 11.3333435059 -3.66665649414 16.6666564941 2.66665649414 22 rrcurveto
            2 22 7 17 12 12 10 10 10.3333282471 5 10.6666717529 0 rrcurveto
            return
          </CharString>
          <CharString index="3">
            89 0 68 642 -89 0 rlineto
            return
          </CharString>
          <CharString index="4">
            66 22 66 629 -82 0 -48 -451 -251 455 -74 0 -69 -644 84 1 49 463 rlineto
            124 -208.666671753 86.3333435059 -158.333328247 48.6666564941 -108 rrcurveto
            return
          </CharString>
          <CharString index="5">
            55.3333435059 0 44.6666564941 -21.6666870117 34 -43.3333129883 32 -41.3333435059 16 -52.6666564941 0 -64 0 -71.3333435059 -21.6666564941 -64.6666564941 -43.3333435059 -58 -47.3333435059 -62.6666564941 -58.6666564941 -31.3333435059 -70 0 -53.3333282471 0 -43.1666717529 20.6666564941 -33 41.3333435059 -33 41.3333282471 -16.5 51.6666717529 0 62 rrcurveto
            0 73.3333435059 21 65.6666564941 42 58 46.6666717529 64.6666870117 58.3333282471 32.3333129883 70 0 rrcurveto
            return
          </CharString>
          <CharString index="6">
            58.6666564941 0 50 15 41.3333435059 30 48 34.6666564941 27.3333435059 50 6.66665649414 65.3333435059 1.33334350586 12.6666717529 0.666656494141 11.6666564941 0 10.6666717529 0 50 -15.3333435059 37.3333435059 -30.6666564941 24.6666564941 -20.6666564941 16.6666564941 -42.6666870117 19.6666870117 -64.6666564941 22.6666564941 -67.3333282471 23.3333435059 -31.3333435059 32.6666564941 4.66667175293 42 rrcurveto
            7.33332824707 67.3333129883 37.6666717529 33.6666870117 68 0 49.3333435059 0 40.6666564941 -16 32 -32 rrcurveto
            48 63 rlineto
            -46.6666564941 40.6666870117 -54 20.3333129883 -61.3333435059 0 -53.3333282471 0 -46.6666717529 -16 -40 -32 -42 -32.6666870117 -23.6666564941 -41 -5.33334350586 -49.3333129883 -1.33334350586 -10 -0.666656494141 -9.66665649414 0 -9.33334350586 0 -57.3333435059 24.6666564941 -43 49.3333435059 -28.6666564941 rrcurveto
            134 -57 rlineto
            46.6666564941 -22 21.3333435059 -32.3333282471 -4 -42.6666717529 -4 -38 -15.3333435059 -29.6666564941 -26.6666564941 -21.3333435059 -24 -18.6666564941 -29.6666717529 -9.33334350586 -35.3333282471 0 -62.6666717529 0 -48.9999847412 23.6666564941 -35.3333435059 47.3333435059 rrcurveto
            -53 -64 rlineto
            16 -25.3333282471 25.5 -20.1666717529 35 -15 35 -15 37.5 -7.5 40 0 rrcurveto
            return
          </CharString>
          <CharString index="7">
            54 59 -200 96 -54 -65 rlineto
            return
          </CharString>
          <CharString index="8">
            -24 -195 rlineto
            -4.66665649414 -39.3333282471 -18.3333435059 -39.5 -32 -39.6666717529 -32 -39.6666564941 -27.6666717529 -19.8333435059 -23.3333282471 0 -60 0 -30 48.6666564941 0 97.3333435059 0 62.6666564941 14.3333435059 53.3333435059 28.6666564941 44 32.6666717529 50 44.6666564941 25 56.6666717529 0 20.6666564941 0 25 -2.66665649414 29.3333435059 -5.33334350586 rrcurveto
            return
          </CharString>
          <CharString index="9">
            -20.6666564941 0 -22 1.5 -23.3333435059 3 -23.3333435059 3 -22.3333129883 1.5 -21.3333435059 0 -84 0 -69.3333282471 -31.6666564941 -54.6666717529 -63.3333435059 -52.6666717529 -60.6666564941 -26.3333282471 -73 0 -85.3333435059 0 -54.6666717529 11 -46.3333282471 22 -38 27.3333435059 -46 38.9999847412 -23 50.6666717529 0 rrcurveto
            42.6666717529 0 35.6666717529 18.3333282471 28.6666564941 36.6666717529 rrcurveto
            44 75 2 -119 85 0 rlineto
            -7.33334350586 36.6666717529 -3.66665649414 34.9999847412 0 33.3333435059 0 13.3333435059 0.666656494141 11.9999847412 1.33334350586 10.6666717529 rrcurveto
            return
          </CharString>
          <CharString index="10">
            0.666656494141 -38.6666564941 -28.6666564941 -25 -58 -11.3333435059 -70.6666717529 -14 -57 -6 -43.3333282471 2 5.33334350586 31.3333435059 11.9999847412 29.6666564941 18.6666717529 28 30 44.6666564941 42 22.3333435059 54 0 34 0 24.3333435059 -4.66665649414 14.6666564941 -9.33334350586 14.6666564941 -9.33334350586 7.33334350586 -16.3333129883 0 -23.3333435059 rrcurveto
            return
          </CharString>
          <CharString index="11">
            17.3333282471 -2 16.6666717529 -1 16 0 42.6666717529 0 55.6666717529 7.66667175293 68.6666564941 15.3333282471 30 6.66667175293 27 13.6666717529 24 20.6666564941 27.3333435059 24.6666564941 13.6666564941 27 0 29.3333435059 0 46.6666564941 -15.6666564941 35.3333435059 -31.3333435059 24 -28 21.3333435059 -36.6666564941 10.6666564941 -45.3333435059 0 rrcurveto
            -88 0 -68.6666717529 -34.3333435059 -49.3333282471 -68.6666564941 -44.6666717529 -61.3333435059 -20 -73.3333129883 4.66667175293 -85.3333435059 7.33332824707 -130.666671753 67.6666717529 -65.3333282471 128 0 64.6666564941 0 62.3333435059 25.3333282471 60 50.6666717529 rrcurveto
            -33 56 rlineto
            -54.6666564941 -42.6666564941 -46.3333435059 -21.3333435059 -38 0 -23.3333282471 0 -22.3333435059 5 -21.3333282471 10 -25.3333282471 12.6666564941 -17.5 17.6666870117 -9.66667175293 22.6666564941 -9.66665649414 22.6666717529 -5.16668701172 21 -0.666656494141 19.3333282471 -0.666656494141 17.3333282471 0.333312988281 13.3333435059 1.33334350586 9.33332824707 rrcurveto
            return
          </CharString>
          <CharString index="12">
            44 51 rlineto
            -30.6666564941 20.6666870117 -17.6666870117 11.3333129883 -4.66665649414 2 -15.3333435059 6.66668701172 -22.3333129883 3.33331298828 -29.3333435059 0 -56.6666717529 0 -44 -22.3333129883 -31.3333282471 -44.6666870117 -22.6666717529 -32.6666870117 -13.6666717529 -39.3333129883 -4.66665649414 -46 rrcurveto
            -7 -66 -78 0 -7 -65 78 0 -67 -602 76 0 67 602 139 0 7 65 -139 0 7 63 rlineto
            3.33332824707 39.3333129883 10.6666717529 31 18 22.6666870117 16 21.3333129883 19.6666564941 10.3333740234 23.3333435059 -0.666687011719 26 -0.666687011719 27.3333435059 -10.3333129883 28.6666564941 -20 rrcurveto
            return
          </CharString>
          <CharString index="13">
            40.6666564941 0 31 -16 21.3333435059 -32 18.6666564941 -28 9.33334350586 -37 0 -46 0 -60 -13.3333435059 -51.6666717529 -26.6666564941 -43.3333282471 -32 -51.3333435059 -44.3333435059 -25.6666564941 -56.6666564941 0 -42.6666717529 0 -32.6666564941 16 -22.6666717529 32 -19.3333282471 28 -9.66667175293 37 0 46 rrcurveto
            0 60.6666564941 14 52 28 43.3333435059 32.6666717529 50.6666564941 45.6666564941 25.3333435059 58.6666717529 0 rrcurveto
            return
          </CharString>
          <CharString index="14">
            52 0 44.3333435059 14 36.6666564941 28 41.3333435059 31.3333282471 23.3333129883 43.6666717529 5.33334350586 56 5.33334350586 53.3333282471 -22.3333435059 39 -50 24.6666717529 rrcurveto
            -139 47 rlineto
            -26 10.6666564941 -11.6666717529 18 2.66667175293 25.3333435059 5.33332824707 48.6666564941 31.6666717529 24.3333435059 58 0 34 0 38.6666564941 -15 43.3333435059 -30 rrcurveto
            33 63 rlineto
            -47.3333435059 30 -46.3333129883 15.3333129883 -45.3333435059 0.666687011719 -45.3333282471 0.666687011719 -39 -12.3333435059 -32.6666717529 -25.3333435059 -38 -28 -21.6666564941 -40 -5.33334350586 -52 -4.66665649414 -48 16 -34 36.6666564941 -20 48.6666717529 -18.6666717529 38.6666564941 -12.6666564941 28.6666717529 -6.66667175293 50.6666564941 -15.3333282471 23.3333435059 -25.3333435059 -4 -35.3333282471 rrcurveto
            -2 -19.3333435059 -10.6666564941 -18.6666564941 -19.3333435059 -18 -21.3333282471 -20 -24 -10 -26.6666717529 0 -54.6666717529 0 -42.6666717529 16.6666564941 -30.6666564941 33.3333435059 rrcurveto
            -47 -61 rlineto
            38 -38.6666717529 53.3333435059 -19.3333282471 68.6666564941 0 rrcurveto
            return
          </CharString>
          <CharString index="15">
            269 565 -69 17 -172 -369 -108 370 -79 -21 140 -452 rlineto
            -30.6666717529 -55.3333282471 -16.3333282471 -29.3333435059 -2 -3.33332824707 -28 -40 -29.3333435059 -19.6666564941 -30.6666564941 0.666656494141 -15.3333282471 0.666656494141 -16 4.66668701172 -16.6666717529 8.66665649414 rrcurveto
            -33 -71 rlineto
            34.6666717529 -12 22.3333282471 -6 10 0 36.6666564941 0 35 12.3333282471 33.3333435059 24.6666717529 29.3333282471 21.3333282471 21.6666717529 25.0000152588 14 28.6666564941 rrcurveto
            return
          </CharString>
          <CharString index="16">
            -133 93 -8 -71 131 -113 149 113 8 71 rlineto
            return
          </CharString>
          <CharString index="17">
            0 -91.3333282471 32.3333435059 -78 64.6666564941 -64.6666717529 64.6666717529 -64.6666717529 77.9999847412 -32.3333282471 91.3333435059 0 91.3333435059 0 77.9999694824 32.3333282471 64.6666870117 64.6666717529 64.6666870117 64.6666717529 32.3333129883 78 0 91.3333282471 0 91.3333435059 -32.3333129883 78 -64.6666870117 64.6666564941 -64.6666870117 64.6666870117 -77.9999694824 32.3333129883 -91.3333435059 0 rrcurveto
            -91.3333435059 0 -77.9999847412 -32.3333129883 -64.6666717529 -64.6666870117 -64.6666564941 -64.6666564941 -32.3333435059 -78 0 -91.3333435059 rrcurveto
            return
          </CharString>
          <CharString index="18">
            215 355 -74 23 -174 -297 -114 297 -82 -23 140 -355 -28 -272 89 0 rlineto
            return
          </CharString>
          <CharString index="19">
            16 0 13 5.33331298828 10 10.6666870117 10 10.6666870117 5.66665649414 12 1.33334350586 13.3333129883 1.33334350586 12.6666870117 -3.33334350586 11.8333129883 -8 11 -8 11 -11.6666564941 5.5 -15.3333435059 0 -16 0 -12.8333435059 -5.33331298828 -9.66665649414 -10.6666870117 -9.66665649414 -10.6666870117 -5.5 -12 -1.33334350586 -13.3333129883 rrcurveto
            -1.33334350586 -13.3333129883 3 -12 7.33334350586 -10.6666870117 7.33334350586 -10.6666870117 11.6666564941 -5.33331298828 16 0 rrcurveto
            return
          </CharString>
          <CharString index="20">
            86 14 -146 650 -81 0 -281 -654 81 -10 77 189 225 0 rlineto
            return
          </CharString>
          <CharString index="21">
            60 -303 -184 0 rlineto
            return
          </CharString>
          <CharString index="22">
            219 90 -40 65 -220 -96 rlineto
            return
          </CharString>
          <CharString index="23">
            270 0 7 72 -359 0 -68 -640 356 0 9 77 -268 -1 24 225 252 -1 8 75 -252 0 rlineto
            return
          </CharString>
          <CharString index="24">
            55 59 -200 96 -53 -65 rlineto
            return
          </CharString>
          <CharString index="25">
            132 -93 8 71 -130 113 -150 -113 -8 -71 rlineto
            return
          </CharString>
          <CharString index="26">
            15.3333282471 0 12.6666717529 5.33331298828 10 10.6666870117 10 10.6666870117 5.66667175293 12 1.33332824707 13.3333129883 1.33332824707 13.3333129883 -3.16665649414 12 -7.66667175293 10.6666870117 -7.66667175293 10.6666870117 -11.5 5.33331298828 -15.3333282471 0 -16 0 -12.8333282471 -5.33331298828 -9.66667175293 -10.6666870117 -9.66667175293 -10.6666870117 -5.5 -12 -1.33332824707 -13.3333129883 rrcurveto
            -1.33332824707 -13.3333129883 3 -12 7.33332824707 -10.6666870117 7.33332824707 -10.6666870117 11.6666717529 -5.33331298828 16 0 rrcurveto
            return
          </CharString>
          <CharString index="27">
            132 -93 8 71 -130 113 -149 -113 -8 -71 rlineto
            return
          </CharString>
          <CharString index="28">
            16 0 13 5.33331298828 10 10.6666870117 10 10.6666870117 5.66665649414 12 1.33334350586 13.3333129883 1.33334350586 12.6666870117 -3.33334350586 11.8333129883 -8 11 -8 11 -11.6666564941 5.5 -15.3333435059 0 -16 0 -12.8333282471 -5.33331298828 -9.66667175293 -10.6666870117 -9.66667175293 -10.6666870117 -5.5 -12 -1.33332824707 -13.3333129883 rrcurveto
            -1.33332824707 -13.3333129883 3 -12 7.33332824707 -10.6666870117 7.33332824707 -10.6666870117 11.6666717529 -5.33331298828 16 0 rrcurveto
            return
          </CharString>
          <CharString index="29">
            84.6666564941 0 72 28.6666717529 59.3333435059 57.3333282471 64 61.3333282471 37.6666870117 84 11.3333129883 106.666671753 2 15.3333435059 1 15.3333129883 0 15.3333435059 0 82.6666564941 -23.1666870117 67.0000305176 -46.3333129883 51.3333129883 -46.3333435059 51.3333129883 -61.8333129883 25.6666870117 -77.3333435059 0 -85.3333435059 0 -73.6666564941 -30.5 -62 -61 rrcurveto
            -62 -61 -36 -77.5 -10 -94 -2 -19.3333435059 -1 -18.6666564941 0 -18 0 -90 24 -70.3333435059 48 -50.6666564941 46 -47.3333282471 61 -23.6666717529 76 0 rrcurveto
            return
          </CharString>
          <CharString index="30">
            127 -93 12 71 -125 113 -155 -113 -11 -71 rlineto
            return
          </CharString>
          <CharString index="31">
            15.3333435059 0 13 5.33331298828 10.6666564941 10.6666870117 10.6666564941 10.6666870117 6.33334350586 12 2 13.3333129883 2 12.6666870117 -2.66665649414 11.8333129883 -7.33334350586 11 -7.33334350586 11 -11.3333129883 5.5 -15.3333435059 0 -16 0 -13.1666564941 -5.33331298828 -10.3333435059 -10.6666870117 -10.3333435059 -10.6666870117 -6.16665649414 -12 -2 -13.3333129883 rrcurveto
            -2 -13.3333129883 2.5 -12 7 -10.6666870117 7 -10.6666870117 11.5 -5.33331298828 16 0 rrcurveto
            return
          </CharString>
          <CharString index="32">
            80 0 53 495 -80 0 rlineto
            return
          </CharString>
          <CharString index="33">
            82 0 65.6666564941 33.3333282471 49.3333435059 66.6666717529 36 49.3333282471 21.3333435059 54.3333435059 6.66665649414 59.3333282471 1.33334350586 13.3333435059 0.666656494141 13 0 12.6666564941 0 73.3333435059 -22.6666564941 56.6666564941 -45.3333435059 40 -38 34 -46 17 -54 0 -60 0 -54.3333282471 -19.6666564941 -48.6666717529 -39.3333435059 rrcurveto
            -59.3333435059 -48 -33.9999847412 -67 -8.66667175293 -86 -1.33332824707 -12.6666717529 -0.66667175293 -12.6666564941 0 -12.6666717529 0 -59.3333282471 12.6666717529 -48.6666717529 25.3333282471 -38 35.3333435059 -52.6666717529 57.3333282471 -26.3333282471 79.3333282471 0 rrcurveto
            return
          </CharString>
          <CharString index="34">
            40.6666564941 0 31 -16 21.3333435059 -32 18.6666564941 -28 9.33334350586 -37 0 -46 0 -60 -13.3333435059 -51.6666717529 -26.6666564941 -43.3333282471 -32 -51.3333435059 -44 -25.6666564941 -56 0 -43.3333282471 0 -32.6666717529 16 -22 32 -20 28 -10 37 0 46 rrcurveto
            0 60.6666564941 14 52 28 43.3333435059 33.3333282471 50.6666564941 45.6666717529 25.3333435059 58 0 rrcurveto
            return
          </CharString>
          <CharString index="35">
            10 16.6666870117 11.3333282471 28 12.6666717529 39.3333129883 14 42.6666870117 8.66665649414 36 3.33334350586 29.3333129883 rrcurveto
            97 hlineto
            -6.66667175293 -56.6666870117 -38 -68 -69.3333282471 -79.3333129883 rrcurveto
            return
          </CharString>
        <CharString name=".notdef">
          -41 63 hmoveto
          375 750 -375 hlineto
          62 -687 rmoveto
          625 250 -625 vlineto
          endchar
        </CharString>
        <CharString name=".null">
          -541 endchar
        </CharString>
        <CharString name="A">
          27 418 -10 rmoveto
          86 14 -147 650 -80 0 -282 -654 81 -10 78 189 225 0 rlineto
          -74 372 rmoveto
          61 -303 -184 0 rlineto
          endchar
        </CharString>
        <CharString name="AE">
          321 305 551 rmoveto
          61 -303 -184 0 rlineto
          396 320 rmoveto
          270 0 8 72 -359 0 -44 -413 -96 427 -80 0 -282 -654 81 -10 78 189 225 0 36 -179 370 0 8 77 -267 -1 24 225 rlineto
          252 -1 8 75 -252 0 rlineto
          endchar
        </CharString>
        <CharString name="Aacute">
          27 413 -10 rmoveto
          -87 callsubr
          -73 372 rmoveto
          -86 callsubr
          55 439 rmoveto
          -85 callsubr
          endchar
        </CharString>
        <CharString name="Acircumflex">
          27 413 -10 rmoveto
          -87 callsubr
          -73 372 rmoveto
          -86 callsubr
          141 501 rmoveto
          133 -93 7 71 -130 113 -149 -113 -7 -71 rlineto
          endchar
        </CharString>
        <CharString name="Adieresis">
          39 415 -10 rmoveto
          87 14 -146 650 -81 0 -282 -654 81 -10 77 189 225 0 rlineto
          -72 372 rmoveto
          -86 callsubr
          248 446 rmoveto
          15.3333435059 0 12.6666564941 5.33331298828 10 10.6666870117 10 10.6666870117 5.66665649414 12 1.33334350586 13.3333129883 1.33334350586 12.6666870117 -3.16668701172 11.6666259766 -7.66665649414 10.6666870117 -7.66665649414 10.6666870117 -11.5 5.33331298828 -15.3333435059 0 -16 0 -13 -5.16668701172 -10 -10.3333129883 -10 -10.3333129883 -5.66665649414 -11.8333740234 -1.33334350586 -13.3333129883 rrcurveto
          -1.33334350586 -14 2.66668701172 -11.6666870117 6.66665649414 -9.33331298828 8 -11.3333129883 12.3333435059 -5.66668701172 16.6666564941 0 rrcurveto
          -210 hmoveto
          15.3333282471 0 12.6666717529 5.33331298828 10 10.6666870117 10 10.6666870117 5.66665649414 12 1.33334350586 13.3333129883 1.33334350586 12.6666870117 -3.16668701172 11.6666259766 -7.66665649414 10.6666870117 -7.66667175293 10.6666870117 -11.5 5.33331298828 -15.3333282471 0 -16 0 -13 -5.16668701172 -10 -10.3333129883 -10 -10.3333129883 -5.66667175293 -11.8333740234 -1.33332824707 -13.3333129883 rrcurveto
          -1.33332824707 -14 2.66665649414 -11.6666870117 6.66667175293 -9.33331298828 8 -11.3333129883 12.3333282471 -5.66668701172 16.6666717529 0 rrcurveto
          endchar
        </CharString>
        <CharString name="Agrave">
          39 413 -10 rmoveto
          -87 callsubr
          -73 372 rmoveto
          -86 callsubr
          217 438 rmoveto
          -100 callsubr
          endchar
        </CharString>
        <CharString name="Aring">
          39 412 -10 rmoveto
          -87 callsubr
          -73 372 rmoveto
          -86 callsubr
          145 438 rmoveto
          26.6666564941 0 22.6666870117 8.16668701172 18.6666564941 16.3333129883 18.6666564941 16.3333129883 10.6666870117 20.8333740234 2.66665649414 25.3333129883 2.66665649414 24.6666870117 -6.33331298828 20.5 -15.3333435059 16.3333129883 -15.3333435059 16.3333129883 -21 8.16668701172 -26.6666564941 0 -26.6666564941 0 -22.6666870117 -8.16668701172 -18.6666564941 -16.3333129883 -18.6666717529 -16.3333129883 -10.6666564941 -20.5 -2.66667175293 -24.6666870117 rrcurveto
          -2.66667175293 -25.3333129883 6.33334350586 -20.8333740234 15.3333282471 -16.3333129883 15.3333435059 -16.3333129883 21 -8.16668701172 26.6666564941 0 rrcurveto
          13 130 rmoveto
          28.6666564941 0 13 -14.3333129883 -2.66665649414 -28.6666870117 -3.33334350586 -29.3333129883 -16 -14.6666870117 -28.6666564941 0 -28.6666564941 0 -12.6666870117 14.6666870117 3.33334350586 29.3333129883 2.66665649414 28.6666870117 15.6666870117 14.3333129883 28.6666564941 0 rrcurveto
          endchar
        </CharString>
        <CharString name="Atilde">
          39 415 -10 rmoveto
          -87 callsubr
          -73 372 rmoveto
          -86 callsubr
          214 421 rmoveto
          8 0 13.1666564941 3.66668701172 18.3333435059 7.33331298828 18.3333435059 7.33331298828 12.5 7.33337402344 6.66665649414 7.33331298828 rrcurveto
          -19 60 rlineto
          -18.6666564941 -16.6666870117 -17.6666870117 -8.33331298828 -16.6666564941 0 -13.3333435059 0 -19.6666564941 11.5 -26 23 -26 23 -22.3333435059 11.1666870117 -18.6666564941 -0.666687011719 -16.6666717529 -0.666687011719 -18 -5 -19.3333282471 -9.33331298828 -21.3333282471 -9.33331298828 -16 -11.6666870117 -10.6666717529 -14 rrcurveto
          21 -59 rlineto
          23.3333282471 28 24.6666717529 14 26 0 10.6666564941 0 19.3333435059 -11.5 28 -23 28 -23 23.3333435059 -11.5 18.6666564941 0 rrcurveto
          endchar
        </CharString>
        <CharString name="B">
          -17 232 hmoveto
          61.3333435059 -0.66667175293 51.1666564941 15.8333435059 41 32.3333282471 41 32.3333435059 23.5 45.5 6 58.6666564941 1.33334350586 8 0.666656494141 7.66667175293 0 7.33332824707 0 76 -45.6666564941 48 -91.3333435059 20 30.6666564941 8 22.8333435059 9 15 10 15 10 12.8333435059 15 10.6666564941 20 rrcurveto
          11.3333435059 22.6666564941 5.66665649414 30.3333435059 0 38 0 42 -13.5 32.3333129883 -27 22.6666870117 -27 22.6666870117 -38.1666564941 11.3333129883 -49.3333435059 0 rrcurveto
          -13 hlineto
          -8.66665649414 -0.666687011719 -4.66668701172 -0.333312988281 -0.666656494141 0 rrcurveto
          -166 -3 -68 -639 rlineto
          234 583 rmoveto
          74 0 33.6666564941 -34.3333129883 -6.66665649414 -68.6666870117 -3.33334350586 -32.6666564941 -14.1666564941 -26.3333435059 -25 -20 -25 -20 -31.8333435059 -9.66665649414 -38.6666564941 0.666656494141 rrcurveto
          -68 1 22 207 rlineto
          46 2 27.6666717529 1 9.33332824707 0 rrcurveto
          -20 -273 rmoveto
          43.3333435059 0 33 -12.5 22.6666564941 -25 22.6666564941 -25 9.33334350586 -29.8333282471 -4 -34.6666717529 -8 -78.6666564941 -50.3333435059 -39.3333435059 -92.6666564941 0 rrcurveto
          -94 0 26 245 rlineto
          endchar
        </CharString>
        <CharString name="C">
          -2 276 -8 rmoveto
          38.6666564941 0 34.3333435059 4.66667175293 30 9.33332824707 23.3333435059 6.66667175293 33.6666564941 14.6666564941 44 22.6666717529 rrcurveto
          -32 65 rlineto
          -53.3333435059 -28.6666564941 -55 -14.3333435059 -56.6666564941 0 -48.6666717529 0 -39.6666564941 19.3333435059 -30.6666717529 38.6666564941 -30.6666717529 38.6666717529 -15.3333282471 50 0 61.3333282471 0 12 0.666656494141 12.3333435059 1.33334350586 12.6666564941 6.66665649414 64 20.3333435059 56.6666564941 34 49.3333435059 42.6666717529 63.3333129883 54.6666717529 31.6666870117 66.6666564941 0 rrcurveto
          37.3333435059 0 47 -18.6666870117 56.6666564941 -37.3333129883 rrcurveto
          47 79 rlineto
          -19.3333129883 12 -25.3333435059 11.3333129883 -31.3333435059 10.6666870117 -40 14 -36.3333435059 7 -32.6666564941 0 -97.3333282471 -0.666687011719 -79 -40.6666259766 -60.6666717529 -80.6666870117 -54.6666717529 -73.3333435059 -27.3333282471 -86.6666564941 0 -100 0 -82 19.3333282471 -66.6666717529 38.6666717529 -51.3333282471 44 -57.3333282471 63 -28.6666717529 82 0 rrcurveto
          endchar
        </CharString>
        <CharString name="Ccedilla">
          29 301 -219 rmoveto
          30.6666564941 0 25.3333435059 9 20 18 17.3333435059 16.6666717529 10 20 2.66665649414 23.3333282471 2 23.3333435059 -5.33334350586 20 -12.6666564941 16.6666564941 -15.3333435059 19.3333282471 -21.6666564941 9.66667175293 -28 0 -10.6666564941 0 -8.33334350586 -1.33332824707 -6 -2.66667175293 rrcurveto
          7 39 rlineto
          34 1.33332824707 31 5.33334350586 28 9.33332824707 22 7.33332824707 31.6666564941 14 41.3333435059 20.6666717529 rrcurveto
          -31 65 rlineto
          -54 -28.6666564941 -55.3333435059 -14.3333435059 -56.6666564941 0 -48 0 -39.5 19.3333435059 -31 38.6666564941 -31 38.6666717529 -15.5 50 0 61.3333282471 0 12 0.66667175293 12.3333435059 1.33332824707 12.6666564941 6.66667175293 64 20.3333282471 56.6666564941 34 49.3333435059 42.6666717529 63.3333129883 54.6666717529 31.6666870117 66.6666564941 0 rrcurveto
          37.3333435059 0 47 -18.6666870117 56.6666564941 -37.3333129883 rrcurveto
          47 79 rlineto
          -19.3333129883 12 -25.0000305176 11.3333129883 -30.6666564941 10.6666870117 -40 14 -36.3333435059 7 -32.6666564941 0 -98 -0.666687011719 -79 -41 -60 -81.3333129883 -54.6666564941 -73.3333435059 -27.3333435059 -86.6666564941 0 -100 0 -74.6666717529 16 -62 32 -49.3333282471 36.6666717529 -55.3333282471 52.3333282471 -32 68 -8.66667175293 rrcurveto
          -14 -85 44 -21 rlineto
          14.6666564941 10 12 5 9.33334350586 0 22 0 9.66665649414 -13 -2.66665649414 -26 -2 -22.6666717529 -12.6666564941 -11.3333282471 -23.3333435059 0 -15.3333435059 0 -16 10.6666717529 -16.6666564941 21.3333282471 rrcurveto
          -40 -34 rlineto
          11.3333282471 -32 27.0000152588 -16 42.6666564941 0 rrcurveto
          endchar
        </CharString>
        <CharString name="D">
          24 181 -2 rmoveto
          105.333343506 0 83 29 60.6666564941 58 58 56 34.3333129883 79.3333282471 10.6666870117 102.666671753 2.66668701172 23.3333435059 1.33331298828 21.6666564941 0 20 0 91.3333435059 -24.6666870117 66.3333435059 -49.3333129883 41.3333129883 -46.6666564941 40 -73.3333435059 20 -100 0 -51.3333282471 0 -48.6666717529 -1 -46 -2 rrcurveto
          -68 -642 rlineto
          21.3333282471 0 25.8333282471 -0.66667175293 30.3333435059 -1.33332824707 30.3333282471 -1.33332824707 24.8333435059 -0.66667175293 19.3333282471 0 rrcurveto
          256 314 rmoveto
          -6.66665649414 -64.6666717529 -21.6666870117 -54.3333282471 -36.6666564941 -44 -40.6666564941 -50 -52 -25 -63.3333435059 0 rrcurveto
          -90 0 53 507 rlineto
          36.6666717529 1.33331298828 28 0.666687011719 19.3333282471 0 118.666656494 0 59.3333435059 -68 0 -136 0 -20.6666564941 -1.33334350586 -22.3333435059 -2.66665649414 -24 rrcurveto
          endchar
        </CharString>
        <CharString name="Delta">
          148 50 hmoveto
          557 0 -156 657 -86 0 rlineto
          33 -92 rmoveto
          102 -509 -331 0 rlineto
          endchar
        </CharString>
        <CharString name="E">
          -52 178 568 rmoveto
          270 0 8 72 -359 0 -68 -640 356 0 8 77 -267 -1 24 225 252 -1 8 75 -252 0 rlineto
          endchar
        </CharString>
        <CharString name="Eacute">
          -72 173 568 rmoveto
          -84 callsubr
          48 312 rmoveto
          221 90 -40 65 -221 -96 rlineto
          endchar
        </CharString>
        <CharString name="Ecircumflex">
          -52 173 568 rmoveto
          270 0 7 72 -359 0 -68 -640 356 0 9 77 -267 -1 23 225 252 -1 8 75 -252 0 rlineto
          135 374 rmoveto
          -82 callsubr
          endchar
        </CharString>
        <CharString name="Edieresis">
          -52 175 568 rmoveto
          270 0 7 72 -359 0 -67 -640 356 0 8 77 -267 -1 24 225 251 -1 8 75 -252 0 rlineto
          242 321 rmoveto
          -88 callsubr
          -209 hmoveto
          -81 callsubr
          endchar
        </CharString>
        <CharString name="Egrave">
          -52 173 568 rmoveto
          -84 callsubr
          210 311 rmoveto
          -83 callsubr
          endchar
        </CharString>
        <CharString name="Eth">
          24 153 335 rmoveto
          26 246 rlineto
          36.6666717529 1.33331298828 28 0.666687011719 19.3333282471 0 118.666656494 0 59.3333435059 -68 0 -136 0 -20.6666564941 -1.33334350586 -22.3333435059 -2.66665649414 -24 -6.66665649414 -64.6666717529 -21.6666870117 -54.3333282471 -36.6666564941 -44 -40.6666564941 -50 -52 -25 -63.3333435059 0 rrcurveto
          -90 0 20 193 68 0 7 68 rlineto
          -214 hmoveto
          -7 -68 57 0 -28 -265 rlineto
          21.3333282471 0 25.8333282471 -0.66667175293 30.3333435059 -1.33332824707 30.3333282471 -1.33332824707 24.8333435059 -0.66667175293 19.3333282471 0 105.333343506 0 83 29 60.6666564941 58 58 56 34.3333129883 79.3333282471 10.6666870117 102.666671753 2.66668701172 23.3333435059 1.33331298828 21.6666564941 0 20 0 91.3333435059 -24.6666870117 66.3333435059 -49.3333129883 41.3333129883 rrcurveto
          -46.6666564941 40 -73.3333435059 20 -100 0 -51.3333282471 0 -48.6666717529 -1 -46 -2 rrcurveto
          -33 -309 rlineto
          endchar
        </CharString>
        <CharString name="F">
          -51 178 568 rmoveto
          271 0 8 72 -360 0 -68 -640 89 0 32 300 254 0 8 75 -254 0 rlineto
          endchar
        </CharString>
        <CharString name="G">
          41 491 61 rmoveto
          33 314 -230 0 -8 -74 142 0 -21 -198 rlineto
          -40.6666564941 -20.6666564941 -44 -10.3333435059 -47.3333435059 0 -46.6666717529 0 -37.6666564941 19.5 -28.6666717529 39 -28.6666717529 39 -14.3333282471 49.5 0 60 0 12.6666564941 0.666656494141 12.6666870117 1.33334350586 12.6666564941 6.66665649414 61.3333435059 19.6666717529 56 32.6666717529 50.6666564941 42 64.6666870117 52.3333435059 32.3333129883 62.6666564941 0 rrcurveto
          48.6666564941 0 50 -19 51.3333435059 -38 rrcurveto
          45 75 rlineto
          -18.6666870117 16.6666870117 -30.6666564941 14.6666259766 -42.6666564941 12.6666870117 -38.6666564941 10.6666870117 -34.6666870117 5.33331298828 -30.6666564941 0 -85.3333282471 0 -72.3333435059 -38.6666870117 -59.3333282471 -77.3333129883 -50.6666564941 -65.3333435059 -29.3333435059 -73.6666564941 -8 -82 -2 -14.6666564941 -1 -15 0 -15.3333435059 0 -80 19.6666717529 -65.6666717529 39.3333282471 -51.3333282471 rrcurveto
          43.3333282471 -58 61 -29 78.6666717529 0 43.3333435059 0 38.6666564941 5.66667175293 34 11.3333282471 26.6666564941 8.66667175293 35 16.6666564941 43.3333435059 24.6666717529 rrcurveto
          endchar
        </CharString>
        <CharString name="H">
          41 397 hmoveto
          88 0 68 640 -88 0 -28 -265 -279 0 28 265 -89 0 -68 -640 89 0 32 300 279 0 rlineto
          endchar
        </CharString>
        <CharString name="I">
          -326 29 hmoveto
          -104 callsubr
          endchar
        </CharString>
        <CharString name="Iacute">
          -326 23 hmoveto
          -104 callsubr
          -27 45 rmoveto
          220 90 -40 65 -221 -96 rlineto
          endchar
        </CharString>
        <CharString name="Icircumflex">
          -326 23 hmoveto
          89 0 69 642 -89 0 rlineto
          58 107 rmoveto
          -80 callsubr
          endchar
        </CharString>
        <CharString name="Idieresis">
          -326 26 hmoveto
          -104 callsubr
          155 54 rmoveto
          -79 callsubr
          -209 hmoveto
          15.3333282471 0 12.6666717529 5.33331298828 10 10.6666870117 10 10.6666870117 5.66665649414 12 1.33334350586 13.3333129883 1.33334350586 13.3333129883 -3.16668701172 12 -7.66665649414 10.6666870117 -7.66665649414 10.6666870117 -11.5 5.33331298828 -15.3333435059 0 -16 0 -12.8333282471 -5.33331298828 -9.66667175293 -10.6666870117 -9.66667175293 -10.6666870117 -5.5 -12 -1.33332824707 -13.3333129883 rrcurveto
          -1.33332824707 -13.3333129883 3 -12 7.33332824707 -10.6666870117 7.33332824707 -10.6666870117 11.6666717529 -5.33331298828 16 0 rrcurveto
          endchar
        </CharString>
        <CharString name="Igrave">
          -326 23 hmoveto
          -104 callsubr
          135 44 rmoveto
          54 59 -199 96 -54 -65 rlineto
          endchar
        </CharString>
        <CharString name="J">
          -326 134 69 rmoveto
          60 569 -89 0 -61 -577 rlineto
          -10 -92 -37.6666717529 -46 -65.3333282471 0 -8 0 -10.6666564941 3.5 -13.3333435059 7 -13.3333435059 7 -10.3333129883 8.16667175293 -7.33334350586 9.33332824707 rrcurveto
          -53 -67 rlineto
          23.3333282471 -33.3333282471 31.6666717529 -16.6666717529 40 0 70.6666717529 0 54.6666564941 23 38.6666717529 46 32.6666564941 39.3333282471 20 53 7.33334350586 66.6666717529 rrcurveto
          endchar
        </CharString>
        <CharString name="K">
          -10 384 -21 rmoveto
          108 23 -120 158 rlineto
          -54.6666564941 74 -38.3333435059 58.3333435059 -22 42.6666564941 rrcurveto
          246 280 -65 50 rlineto
          -68 -85.3333129883 -95.3333435059 -113.333343506 -122.666656494 -141.333343506 rrcurveto
          34 315 -89 0 -68 -640 89 0 22 206 54 70 rlineto
          endchar
        </CharString>
        <CharString name="L">
          -40 29 hmoveto
          375 0 8 72 -286 0 60 569 -89 0 rlineto
          endchar
        </CharString>
        <CharString name="Lslash">
          -40 8 335 rmoveto
          -9 -78 59 21 -29 -278 375 0 8 72 -286 0 25 240 71 25 8 78 -71 -25 27 251 -89 0 -30 -285 rlineto
          endchar
        </CharString>
        <CharString name="M">
          252 596 hmoveto
          89 0 68 642 -117 0 -258 -515 -143 515 -127 0 -68 -642 82 0 55 515 142 -516 83 0 248 512 rlineto
          endchar
        </CharString>
        <CharString name="N">
          41 421 -11 rmoveto
          -103 callsubr
          endchar
        </CharString>
        <CharString name="Ntilde">
          29 418 -11 rmoveto
          -103 callsubr
          -5 670 rmoveto
          8.66665649414 0 13.5 3.66668701172 18.3333435059 7.33331298828 18.3333435059 7.33331298828 12.5 7.33337402344 6.66665649414 7.33331298828 rrcurveto
          -20 60 rlineto
          -18.6666564941 -16.6666870117 -17.6666870117 -8.33331298828 -16.6666564941 0 -13.3333435059 0 -19.6666564941 11.5 -26 23 -26 23 -22 11.1666870117 -18 -0.666687011719 -16.6666564941 -0.666687011719 -18 -5 -19.3333435059 -9.33331298828 -21.3333282471 -9.33331298828 -16.3333435059 -11.6666870117 -11.3333282471 -14 rrcurveto
          21 -59 rlineto
          23.3333282471 28 25.0000152588 14 26.6666564941 0 10 0 19.1666564941 -11.5 28.3333435059 -23 28.3333435059 -23 23.1666564941 -11.5 18 0 rrcurveto
          endchar
        </CharString>
        <CharString name="O">
          103 284 -16 rmoveto
          84.6666564941 0 72 28.6666717529 59.3333435059 57.3333282471 64.6666870117 61.3333282471 38 84 11.3333129883 106.666671753 1.33331298828 15.3333435059 0.666687011719 15.3333129883 0 15.3333435059 0 82.6666564941 -23.1666870117 67.0000305176 -46.3333129883 51.3333129883 -46.3333435059 51.3333129883 -61.8333129883 25.6666870117 -77.3333435059 0 -85.3333435059 0 -73.4999847412 -30.5 -61.6666717529 -61 rrcurveto
          -61.6666564941 -61 -35.8333435059 -77.5 -10 -94 -2 -19.3333435059 -1 -18.6666564941 0 -18 0 -90 24 -70.3333435059 48 -50.6666564941 45.3333282471 -47.3333282471 60.6666717529 -23.6666717529 76 0 rrcurveto
          67 588 rmoveto
          -102 callsubr
          endchar
        </CharString>
        <CharString name="OE">
          487 574 hmoveto
          355 0 9 84 -267 0 23 225 258 0 8 75 -255 0 20 193 265 0 8 72 -355 0 -21 -200 rlineto
          -44 138.666687012 -84 69.3333129883 -124 0 -86 0 -73.5 -29.3333129883 -61 -58.6666870117 -61 -58.6666564941 -35.5 -76 -10 -93.3333435059 -2 -19.3333435059 -1 -19 0 -18.6666564941 0 -90.6666717529 24 -70.9999847412 48 -51.3333435059 46 -49.3333282471 60.6666717529 -24.6666717529 75.3333282471 0 rrcurveto
          127.333343506 0 101.333343506 75.3333435059 75.3333129883 150.666656494 rrcurveto
          -237 358 rmoveto
          55.3333435059 0 44.3333129883 -20.3333129883 33.3333435059 -40.6666870117 31.3333129883 -38.6666564941 15.6666870117 -50.6666870117 0 -62.6666564941 0 -71.3333435059 -21.3333129883 -65.3333282471 -42.6666870117 -59.3333282471 -47.3333435059 -64.6666564941 -58.3333129883 -32.3333435059 -69.3333435059 0 -52.6666717529 0 -42.6666564941 21 -32.6666717529 42 -32.6666717529 42 -16.3333282471 52.6666717529 0 63.3333282471 rrcurveto
          0 72.6666564941 20.3333282471 64.3333435059 40.6666717529 56 45.3333282471 61.3333129883 58.3333282471 30.6666870117 71.3333435059 0 rrcurveto
          endchar
        </CharString>
        <CharString name="Oacute">
          103 279 -16 rmoveto
          -78 callsubr
          67 588 rmoveto
          55.3333435059 0 44 -21.1666870117 32.6666564941 -42.3333129883 32.6666564941 -42.3333435059 16.3333435059 -53.1666564941 0 -64 0 -71.3333435059 -21.6666564941 -64.6666564941 -43.3333435059 -58 -47.3333435059 -62.6666564941 -58.3333129883 -31.3333435059 -69.3333435059 0 -53.3333282471 0 -43.1666717529 20.6666564941 -33 41.3333435059 -33 41.3333282471 -16.5 51.6666717529 0 62 rrcurveto
          0 73.3333435059 20.6666717529 65.6666564941 41.3333282471 58 46.6666717529 64.6666870117 58.6666717529 32.3333129883 70.6666564941 0 rrcurveto
          -71 115 rmoveto
          220 90 -41 65 -220 -96 rlineto
          endchar
        </CharString>
        <CharString name="Ocircumflex">
          103 278 -16 rmoveto
          84.6666564941 0 72.3333435059 28.6666717529 60 57.3333282471 64 61.3333282471 37.6666870117 84 11.3333129883 106.666671753 1.33331298828 15.3333435059 0.666687011719 15.3333129883 0 15.3333435059 0 82.6666564941 -23.1666870117 67.0000305176 -46.3333129883 51.3333129883 -46.3333435059 51.3333129883 -61.8333129883 25.6666870117 -77.3333435059 0 -85.3333435059 0 -73.4999847412 -30.5 -61.6666717529 -61 rrcurveto
          -61.6666564941 -61 -35.8333435059 -77.5 -10 -94 -2 -19.3333435059 -1 -18.6666564941 0 -18 0 -90 24 -70.3333435059 48 -50.6666564941 45.3333282471 -47.3333282471 60.6666717529 -23.6666717529 76 0 rrcurveto
          67 588 rmoveto
          -102 callsubr
          24 187 rmoveto
          -82 callsubr
          endchar
        </CharString>
        <CharString name="Odieresis">
          107 281 -16 rmoveto
          84.6666564941 0 72.3333435059 28.6666717529 60 57.3333282471 64 61.3333282471 37.6666870117 84 11.3333129883 106.666671753 1.33331298828 15.3333435059 0.666687011719 15.3333129883 0 15.3333435059 0 82.6666564941 -23.1666870117 67.0000305176 -46.3333129883 51.3333129883 -46.3333435059 51.3333129883 -61.8333129883 25.6666870117 -77.3333435059 0 -85.3333435059 0 -73.4999847412 -30.5 -61.6666717529 -61 rrcurveto
          -61.6666564941 -61 -35.8333435059 -77.5 -10 -94 -2.66667175293 -19.3333435059 -1.33332824707 -18.6666564941 0 -18 0 -90 24.3333282471 -70.3333435059 48.6666717529 -50.6666564941 45.3333282471 -47.3333282471 60.6666717529 -23.6666717529 76 0 rrcurveto
          67 588 rmoveto
          55.3333435059 0 44.1666564941 -21.1666870117 33 -42.3333129883 33 -42.3333435059 16.5 -53.1666564941 0 -64 0 -71.3333435059 -22 -64.6666564941 -44 -58 -47.3333435059 -62.6666564941 -58.3333129883 -31.3333435059 -69.3333435059 0 -53.3333282471 0 -43.1666717529 20.6666564941 -33 41.3333435059 -33 41.3333282471 -16.5 51.6666717529 0 62 rrcurveto
          0 73.3333435059 21 65.6666564941 42 58 46 64.6666870117 58.3333435059 32.3333129883 70.6666564941 0 rrcurveto
          123 124 rmoveto
          15.3333435059 0 12.8333129883 5.33331298828 10.3333435059 10.6666870117 10.3333129883 10.6666870117 5.83337402344 12 1.33331298828 13.3333129883 1.33331298828 12.6666870117 -3.33331298828 11.8333129883 -8 11 -8 11 -11.6666564941 5.5 -15.3333435059 0 -16 0 -12.8333435059 -5.33331298828 -9.66665649414 -10.6666870117 -9.66665649414 -10.6666870117 -5.5 -12 -1.33334350586 -13.3333129883 rrcurveto
          -1.33334350586 -13.3333129883 3 -12 7.33334350586 -10.6666870117 7.33334350586 -10.6666870117 11.6666564941 -5.33331298828 16 0 rrcurveto
          -210 hmoveto
          15.3333435059 0 12.8333129883 5.33331298828 10.3333435059 10.6666870117 10.3333435059 10.6666870117 5.83331298828 12 1.33334350586 13.3333129883 1.33334350586 12.6666870117 -3.33334350586 11.8333129883 -8 11 -8 11 -11.6666564941 5.5 -15.3333435059 0 -16 0 -12.8333282471 -5.33331298828 -9.66667175293 -10.6666870117 -9.66667175293 -10.6666870117 -5.5 -12 -1.33332824707 -13.3333129883 rrcurveto
          -1.33332824707 -13.3333129883 3 -12 7.33332824707 -10.6666870117 7.33332824707 -10.6666870117 11.6666717529 -5.33331298828 16 0 rrcurveto
          endchar
        </CharString>
        <CharString name="Ograve">
          103 279 -16 rmoveto
          -78 callsubr
          67 588 rmoveto
          55.3333435059 0 44 -21.1666870117 32.6666564941 -42.3333129883 32.6666564941 -42.3333435059 16.3333435059 -53.1666564941 0 -64 0 -71.3333435059 -21.6666564941 -64.6666564941 -43.3333435059 -58 -47.3333435059 -62.6666564941 -58.3333129883 -31.3333435059 -69.3333435059 0 -53.3333282471 0 -43.1666717529 20.6666564941 -33 41.3333435059 -33 41.3333282471 -16.5 51.6666717529 0 62 rrcurveto
          0 73.3333435059 21 65.6666564941 42 58 46 64.6666870117 58.3333435059 32.3333129883 70.6666564941 0 rrcurveto
          91 114 rmoveto
          54 59 -200 96 -53 -65 rlineto
          endchar
        </CharString>
        <CharString name="Omega">
          105 385 130 rmoveto
          47.3333435059 5.33332824707 44.6666564941 26.6666717529 42 48 42 48 23.6666870117 49.6666564941 5.33331298828 51.3333435059 2 17.3333435059 1 16.6666564941 0 16 0 152 -80 76 -160 0 -92 0 -74.6666717529 -26.8333129883 -57.3333282471 -53.6666870117 -57.3333435059 -53.6666564941 -28.6666564941 -72.8333435059 0 -92 rrcurveto
          0 -48.6666564941 15 -45.3333435059 30 -42 30 -42 36.3333282471 -24.3333282471 42.6666717529 -6.66667175293 rrcurveto
          -7 -64 -155 0 -7 -65 207 0 19 176 rlineto
          -47.3333282471 0 -35 21 -22.6666717529 42 -18.6666717529 34 -7.33332824707 36.6666564941 4 39.3333435059 8 71.3333435059 23 56.5 38 41.6666564941 38 41.6666870117 50 20.8333129883 62 0 108 0 54 -62 0 -124 0 -14.6666564941 -1 -15.3333435059 -2 -16 rrcurveto
          -4 -36.6666564941 -17 -36.6666870117 -30 -36.6666564941 -34 -42 -37.3333435059 -21 -40.6666564941 0 rrcurveto
          -19 -176 206 0 7 65 -158 0 rlineto
          endchar
        </CharString>
        <CharString name="Oslash">
          103 194 93 rmoveto
          -53.3333282471 40 -26.6666717529 62 0 84 0 72.6666564941 21 65.3333435059 42 58 46.6666717529 64.6666870117 58.3333282471 32.3333129883 70 0 14.6666564941 0 12.6666870117 -1.33331298828 10.6666564941 -2.66668701172 rrcurveto
          71 -35 rmoveto
          48.6666564941 -42 24.3333435059 -61.3333435059 0 -80.6666564941 0 -71.3333435059 -22 -64.6666564941 -44 -58 -47.3333435059 -62.6666564941 -58.3333129883 -31.3333435059 -69.3333435059 0 -5.33334350586 0 -8.66665649414 0.66667175293 -12 1.33332824707 rrcurveto
          170 619 rmoveto
          -18 -42 rlineto
          -17.3333435059 4 -19 2 -20.6666564941 0 -85.3333435059 0 -73.4999847412 -30.5 -61.6666717529 -61 -61.6666564941 -61 -35.8333435059 -77.5 -10 -94 -2 -19.3333435059 -1 -18.6666564941 0 -18 0 -124 43.3333435059 -84.6666717529 86.6666564941 -45.3333282471 rrcurveto
          -23 -57 75 -24 23 57 rlineto
          14 -2.66667175293 16.3333435059 -1.33332824707 18.6666564941 0 84.6666564941 0 72 28.6666717529 59.3333435059 57.3333282471 64.6666870117 61.3333282471 38 84 11.3333129883 106.666671753 1.33331298828 15.3333435059 0.666687011719 15 0 14.6666564941 0 116 -41.3333129883 81.6666870117 -82.6666870117 47.3333129883 rrcurveto
          19 46 rlineto
          endchar
        </CharString>
        <CharString name="Otilde">
          107 280 -16 rmoveto
          85.3333435059 0 72.3333129883 28.6666717529 59.3333435059 57.3333282471 64 61.3333282471 37.6666870117 84 11.3333129883 106.666671753 2 15.3333435059 1 15.3333129883 0 15.3333435059 0 82.6666564941 -23.1666870117 67.0000305176 -46.3333129883 51.3333129883 -46.3333435059 51.3333129883 -61.8333129883 25.6666870117 -77.3333435059 0 -86 0 -73.8333282471 -30.5 -61.6666717529 -61 rrcurveto
          -61.6666564941 -61 -35.8333435059 -77.5 -10 -94 -2 -19.3333435059 -1 -18.6666564941 0 -18 0 -90 24 -70.3333435059 48 -50.6666564941 46 -47.3333282471 60.6666717529 -23.6666717529 75.3333282471 0 rrcurveto
          68 588 rmoveto
          55.3333435059 0 44 -21.1666870117 32.6666564941 -42.3333129883 32.6666870117 -42.3333435059 16.3333129883 -53.1666564941 0 -64 0 -71.3333435059 -21.6666564941 -64.6666564941 -43.3333435059 -58 -47.3333435059 -62.6666564941 -58.3333129883 -31.3333435059 -69.3333435059 0 -53.3333282471 0 -43.1666717529 20.6666564941 -33 41.3333435059 -33 41.3333282471 -16.5 51.6666717529 0 62 rrcurveto
          0 73.3333435059 20.6666717529 65.6666564941 41.3333282471 58 46.6666717529 64.6666870117 58.6666717529 32.3333129883 70.6666564941 0 rrcurveto
          66 97 rmoveto
          8.66665649414 0 13.3333435059 3.66668701172 18 7.33331298828 18 7.33331298828 12.6666564941 7.33337402344 7.33334350586 7.33331298828 rrcurveto
          -20 60 rlineto
          -18.6666564941 -16.6666870117 -17.6666870117 -8.33331298828 -16.6666564941 0 -13.3333435059 0 -19.6666564941 11.5 -26 23 -26 23 -22.3333435059 11.1666870117 -18.6666564941 -0.666687011719 -16 -0.666687011719 -18.1666564941 -5 -20.3333435059 -9.33331298828 -20.3333282471 -9.33331298828 -15.8333435059 -11.6666870117 -11.3333282471 -14 rrcurveto
          21 -59 rlineto
          23.3333282471 28 24.6666717529 14 26 0 10.6666564941 0 19.5 -11.5 28.3333435059 -23 28.3333435059 -23 23.1666564941 -11.5 18 0 rrcurveto
          endchar
        </CharString>
        <CharString name="P">
          -82 238 264 rmoveto
          57.3333435059 0 49 23 40.6666564941 46 38.6666564941 44 19.3333435059 51 0 58 0 48 -14 38.6666870117 -28 29.3333129883 -28 29.3333129883 -38.3333435059 14 -48.6666564941 -1.33331298828 rrcurveto
          -189 -4 -68 -640 89 0 28 268 rlineto
          36 -2.66665649414 30.6666717529 -1.33334350586 25.3333282471 0 rrcurveto
          30 321 rmoveto
          58 1.33331298828 29 -33.3333129883 0 -68 0 -40.6666564941 -10.3333435059 -34.6666870117 -20.6666564941 -28.6666564941 -22.6666564941 -32.6666564941 -31 -16.6666870117 -39.3333435059 -0.666656494141 rrcurveto
          -78 -1 27 253 rlineto
          endchar
        </CharString>
        <CharString name="Q">
          117 569 -70 rmoveto
          59 59 -106 103 rlineto
          29.3333129883 27.3333435059 24 42.9999847412 18.6666870117 58.6666717529 16 52.6666564941 8 50.3333435059 0 48 0 82 -23 66.1666870117 -46 50.3333129883 -46 50.3333129883 -61.6666564941 25.1666870117 -77.3333435059 0 -86 0 -73.8333282471 -30.3333129883 -61.6666717529 -60.6666870117 -61.6666564941 -60.6666564941 -35.8333435059 -77.3333435059 -10 -94 rrcurveto
          -2 -19.3333435059 -1 -18.6666564941 0 -18 0 -90 24 -70.3333435059 48 -50.6666564941 46 -48 60.6666717529 -24 75.3333282471 0 61.3333435059 0 57.3333129883 17.6666717529 53.3333435059 35.3333282471 rrcurveto
          -105 534 rmoveto
          55.3333435059 0 44.6666564941 -21 34 -42 32 -40.6666564941 16 -51.6666870117 0 -62.6666564941 0 -12 -0.666687011719 -12.3333435059 -1.33331298828 -12.6666564941 -6.66668701172 -62.6666717529 -23.3333129883 -55.6666564941 -40 -48.6666717529 rrcurveto
          -70 68 -60 -58 68 -66 rlineto
          -36.6666564941 -21.3333435059 -36.6666870117 -10.6666564941 -36.6666564941 0 -52.6666717529 0 -42.5 21 -32.3333282471 42 -32.3333282471 42 -16.1666717529 52 0 62 0 73.3333435059 21 65.3333129883 42 57.3333435059 46 63.3333129883 58.3333435059 31.6666870117 70.6666564941 0 rrcurveto
          endchar
        </CharString>
        <CharString name="R">
          -11 379 -10 rmoveto
          113 20 rlineto
          -54.6666564941 60 -38.6666870117 47.3333435059 -22.6666564941 34.6666564941 -44 66 -31 48 -18 30 43.3333435059 8.66665649414 36.6666564941 17.3333435059 30 26 34.6666564941 30.6666564941 20.3333435059 39.6666870117 6 48.6666564941 1.33334350586 12 0.666656494141 11.3333435059 0 10.6666564941 0 94 -52 47.6666870117 -104 1.33331298828 rrcurveto
          -0.666656494141 0 -67.6666717529 -1 -134.666671753 -2 rrcurveto
          -68 -641 89 0 31 289 44 2 rlineto
          32 -62 28 -51.3333282471 24 -40.6666717529 37.3333435059 -63.3333435059 34 -48.9999847412 30.6666564941 -34.6666717529 rrcurveto
          -112 593 rmoveto
          71.3333435059 1.33331298828 35.6666564941 -27.3333129883 0 -56 0 -52 -12.1666564941 -37.1666564941 -24.3333435059 -22.3333435059 -24.3333435059 -22.3333435059 -38.8333129883 -11.1666564941 -53.3333435059 0 rrcurveto
          -65 0 24 225 rlineto
          endchar
        </CharString>
        <CharString name="S">
          -49 203 -10 rmoveto
          -101 callsubr
          endchar
        </CharString>
        <CharString name="Scaron">
          -49 203 -10 rmoveto
          -101 callsubr
          122 777 rmoveto
          -91 callsubr
          endchar
        </CharString>
        <CharString name="T">
          345 572 rmoveto
          186 0 7 67 -473 0 -7 -67 198 0 -61 -572 89 0 rlineto
          endchar
        </CharString>
        <CharString name="Thorn">
          2 263 145 rmoveto
          64 0 52.6666564941 19.6666717529 41.3333435059 39.3333282471 47.3333435059 45.3333282471 28.3333129883 69.3333282471 9.33334350586 93.3333435059 1.33334350586 12 0.666656494141 12 0 12 0 64 -15.6666564941 53 -31.3333435059 42 -34 46 -48 23 -62 0 -56.6666564941 0 -46.6666717529 -24.3333129883 -36.6666717529 -48.6666870117 rrcurveto
          10 97 -84 0 -86 -808 84 0 32 297 rlineto
          32 -23.3333282471 29 -13.6666717529 26 -4 14 -2 14.3333282471 -1 14.6666717529 0 rrcurveto
          27 454 rmoveto
          45.3333435059 0 34 -17 22.6666564941 -34 19.3333435059 -29.3333129883 9.66665649414 -37.6666870117 0 -46 0 -56.6666564941 -11.6666564941 -49 -23.3333435059 -41.3333435059 -28.6666564941 -50 -40.3333435059 -25 -52 0 -61.3333282471 0 -41 20 -20.6666717529 40 rrcurveto
          26 252 rlineto
          28.6666717529 49.3333129883 40.6666564941 24.6666870117 52.6666717529 0 rrcurveto
          endchar
        </CharString>
        <CharString name="U">
          30 499 230 rmoveto
          44 410 -90 0 -44 -410 rlineto
          -6 -60 -19.3333435059 -45 -32.6666564941 -30 -26.6666564941 -24.6666564941 -33 -12.3333435059 -39.3333435059 0 -74 0 -37 44.3333435059 0 88.6666564941 0 12.6666717529 0.66667175293 13 1.33332824707 13.3333282471 rrcurveto
          44 410 -89 0 -44 -410 rlineto
          -1.33332824707 -15.3333282471 -0.66667175293 -14.3333435059 0 -13.3333282471 0 -69.3333435059 19 -52.3333129883 38 -35.3333435059 34 -31.3333282471 44.3333282471 -15.6666717529 54.6666717529 0 63.3333435059 0 54.6666564941 18.6666717529 46 37.3333282471 53.3333435059 44 31 63.6666717529 8.66665649414 83.3333282471 rrcurveto
          endchar
        </CharString>
        <CharString name="Uacute">
          30 494 230 rmoveto
          43 410 -90 0 -43 -410 rlineto
          -6.66665649414 -60 -19.6666870117 -45 -32.6666564941 -30 -26.6666564941 -24.6666564941 -32.6666870117 -12.3333435059 -38.6666564941 0 -74.6666717529 0 -37.3333282471 44.3333435059 0 88.6666564941 0 12.6666717529 1 13 2 13.3333282471 rrcurveto
          43 410 -89 0 -43 -410 rlineto
          -2 -15.3333282471 -1 -14.3333435059 0 -13.3333282471 0 -69.3333435059 19.3333435059 -52.3333129883 38.6666564941 -35.3333435059 33.3333282471 -31.3333282471 44 -15.6666717529 54.6666717529 0 64 0 54.6666564941 18.6666717529 45.3333435059 37.3333282471 53.3333435059 44 31.3333129883 63.6666717529 9.33334350586 83.3333282471 rrcurveto
          -261 457 rmoveto
          220 90 -40 65 -221 -96 rlineto
          endchar
        </CharString>
        <CharString name="Ucircumflex">
          30 493 230 rmoveto
          44 410 -90 0 -44 -410 rlineto
          -6 -60 -19.3333435059 -45 -32.6666564941 -30 -26.6666564941 -24.6666564941 -32.6666870117 -12.3333435059 -38.6666564941 0 -74.6666717529 0 -37.3333282471 44.3333435059 0 88.6666564941 0 12.6666717529 0.66667175293 13 1.33332824707 13.3333282471 rrcurveto
          44 410 -89 0 -44 -410 rlineto
          -1.33332824707 -15.3333282471 -0.66667175293 -14.3333435059 0 -13.3333282471 0 -69.3333435059 19 -52.3333129883 38 -35.3333435059 33.3333282471 -31.3333282471 44.3333435059 -15.6666717529 55.3333282471 0 63.3333435059 0 54.3333129883 18.6666717529 45.3333435059 37.3333282471 54 44 31.3333435059 63.6666717529 8.66665649414 83.3333282471 rrcurveto
          -174 529 rmoveto
          -82 callsubr
          endchar
        </CharString>
        <CharString name="Udieresis">
          -20 496 230 rmoveto
          43 410 -90 0 -43 -410 rlineto
          -6.66665649414 -60 -19.3333435059 -45 -32 -30 -26.6666564941 -24.6666564941 -32.6666870117 -12.3333435059 -38.6666564941 0 -74.6666717529 0 -37.3333282471 44.3333435059 0 88.6666564941 0 12.6666717529 0.66667175293 13 1.33332824707 13.3333282471 rrcurveto
          43 410 -89 0 -43 -410 rlineto
          -2 -15.3333282471 -1 -14.3333435059 0 -13.3333282471 0 -69.3333435059 19.3333435059 -52.3333129883 38.6666564941 -35.3333435059 33.3333282471 -31.3333282471 44.3333435059 -15.6666717529 55.3333282471 0 63.3333435059 0 54.3333129883 18.6666717529 45.3333435059 37.3333282471 54 44 31.3333435059 63.6666717529 8.66665649414 83.3333282471 rrcurveto
          -78 466 rmoveto
          15.3333435059 0 12.8333129883 5.33331298828 10.3333435059 10.6666870117 10.3333435059 10.6666870117 5.83331298828 12 1.33334350586 13.3333129883 1.33334350586 12.6666870117 -3.33334350586 11.8333129883 -8 11 -8 11 -11.6666564941 5.5 -15.3333435059 0 -16 0 -12.8333435059 -5.33331298828 -9.66665649414 -10.6666870117 -9.66665649414 -10.6666870117 -5.5 -12 -1.33334350586 -13.3333129883 rrcurveto
          -1.33334350586 -13.3333129883 3 -12 7.33334350586 -10.6666870117 7.33334350586 -10.6666870117 11.6666564941 -5.33331298828 16 0 rrcurveto
          -209 hmoveto
          15.3333282471 0 12.6666717529 5.33331298828 10 10.6666870117 10 10.6666870117 5.66665649414 12 1.33334350586 13.3333129883 1.33334350586 13.3333129883 -3.16668701172 12 -7.66665649414 10.6666870117 -7.66667175293 10.6666870117 -11.5 5.33331298828 -15.3333282471 0 -16 0 -12.8333282471 -5.33331298828 -9.66667175293 -10.6666870117 -9.66667175293 -10.6666870117 -5.5 -12 -1.33332824707 -13.3333129883 rrcurveto
          -1.33332824707 -13.3333129883 3 -12 7.33332824707 -10.6666870117 7.33332824707 -10.6666870117 11.6666717529 -5.33331298828 16 0 rrcurveto
          endchar
        </CharString>
        <CharString name="Ugrave">
          30 494 230 rmoveto
          43 410 -90 0 -43 -410 rlineto
          -6.66665649414 -60 -19.3333435059 -45 -32 -30 -27.3333435059 -24.6666564941 -33 -12.3333435059 -38.6666564941 0 -74 0 -37 44.3333435059 0 88.6666564941 0 12.6666717529 0.66667175293 13 1.33332824707 13.3333282471 rrcurveto
          43 410 -89 0 -43 -410 rlineto
          -2 -15.3333282471 -1 -14.3333435059 0 -13.3333282471 0 -69.3333435059 19.3333435059 -52.3333129883 38.6666564941 -35.3333435059 33.3333282471 -31.3333282471 44.3333435059 -15.6666717529 55.3333282471 0 63.3333435059 0 54.3333129883 18.6666717529 45.3333435059 37.3333282471 53.3333435059 44 31.3333129883 63.6666717529 9.33334350586 83.3333282471 rrcurveto
          -99 456 rmoveto
          54 59 -200 96 -53 -65 rlineto
          endchar
        </CharString>
        <CharString name="V">
          7 276 -10 rmoveto
          275 640 -72 23 -214 -522 -104 522 -87 -23 137 -640 rlineto
          endchar
        </CharString>
        <CharString name="W">
          248 557 -6 rmoveto
          244 632 -66 19 -188 -498 -80 488 -64 0 -186 -489 -80 499 -89 -19 110 -632 63 0 191 465 93 -465 rlineto
          endchar
        </CharString>
        <CharString name="X">
          11 386 -15 rmoveto
          97 20 -169 329 196 292 -73 20 -155 -244 -108 243 -93 -19 141 -309 -219 -312 89 -20 168 278 rlineto
          endchar
        </CharString>
        <CharString name="Y">
          -38 290 272 rmoveto
          215 355 -74 23 -174 -297 -114 297 -82 -23 139 -355 -28 -272 90 0 rlineto
          endchar
        </CharString>
        <CharString name="Yacute">
          -38 288 272 rmoveto
          -89 callsubr
          -42 627 rmoveto
          221 90 -41 65 -220 -96 rlineto
          endchar
        </CharString>
        <CharString name="Ydieresis">
          -59 287 272 rmoveto
          -89 callsubr
          148 696 rmoveto
          -88 callsubr
          -210 hmoveto
          16 0 13 5.33331298828 10 10.6666870117 10 10.6666870117 5.66667175293 12 1.33332824707 13.3333129883 1.33332824707 12.6666870117 -3.33332824707 11.8333129883 -8 11 -8 11 -11.6666717529 5.5 -15.3333282471 0 -16 0 -12.8333282471 -5.33331298828 -9.66667175293 -10.6666870117 -9.66667175293 -10.6666870117 -5.5 -12 -1.33332824707 -13.3333129883 rrcurveto
          -1.33332824707 -13.3333129883 3 -12 7.33332824707 -10.6666870117 7.33332824707 -10.6666870117 11.6666717529 -5.33331298828 16 0 rrcurveto
          endchar
        </CharString>
        <CharString name="Z">
          3 135 76 rmoveto
          372 491 0 72 -393 0 -7 -67 305 2 -375 -497 -1 -77 408 0 8 76 rlineto
          endchar
        </CharString>
        <CharString name="Zcaron">
          3 129 76 rmoveto
          372 491 0 72 -393 0 -7 -67 306 2 -376 -497 0 -77 407 0 8 76 rlineto
          -82 681 rmoveto
          -133 93 -7 -71 131 -113 149 113 7 71 rlineto
          endchar
        </CharString>
        <CharString name="a">
          -48 365 437 rmoveto
          -99 callsubr
          85 65 rmoveto
          -98 callsubr
          endchar
        </CharString>
        <CharString name="aacute">
          -50 265 557 rmoveto
          224 90 -36 65 -225 -96 rlineto
          137 -179 rmoveto
          -99 callsubr
          85 65 rmoveto
          -98 callsubr
          endchar
        </CharString>
        <CharString name="acircumflex">
          -50 315 619 rmoveto
          -77 callsubr
          202 -89 rmoveto
          -99 callsubr
          85 65 rmoveto
          -98 callsubr
          endchar
        </CharString>
        <CharString name="acute">
          -212 96 557 rmoveto
          -85 callsubr
          endchar
        </CharString>
        <CharString name="adieresis">
          -50 424 546 rmoveto
          -76 callsubr
          -210 hmoveto
          15.3333282471 0 13 5.33331298828 10.6666717529 10.6666870117 10.6666564941 10.6666870117 6.33334350586 12 2 13.3333129883 2 12.6666870117 -2.5 11.8333129883 -7 11 -7 11 -11.5 5.5 -16 0 -16 0 -13.1666717529 -5.33331298828 -10.3333282471 -10.6666870117 -10.3333282471 -10.6666870117 -6.16667175293 -12 -2 -13.3333129883 rrcurveto
          -2 -13.3333129883 2.5 -12 7 -10.6666870117 7 -10.6666870117 11.5 -5.33331298828 16 0 rrcurveto
          151 -109 rmoveto
          -99 callsubr
          85 65 rmoveto
          -98 callsubr
          endchar
        </CharString>
        <CharString name="ae">
          234 667 332 rmoveto
          -3 -32 -254 0 rlineto
          17.3333435059 52.6666564941 17.6666564941 35 18 17.3333435059 22.6666564941 24 35.6666564941 12 48.6666870117 0 72 0 32.3333129883 -36.3333435059 -7.33331298828 -72.6666564941 rrcurveto
          -358 -295 rmoveto
          42 36 rlineto
          33.3333435059 -56.6666717529 58 -28.3333282471 82.6666564941 0 65.3333129883 0 62.6666870117 25.3333282471 60 50.6666717529 rrcurveto
          -35 56 rlineto
          -52 -42.6666564941 -45.6666870117 -21.3333435059 -39.3333129883 0 -24.6666870117 0 -24.3333129883 5 -24 10 -29.3333435059 13.3333435059 -19.6666564941 18 -10 22.6666564941 -9.33334350586 20.6666717529 -5.33331298828 18 -1.33334350586 15.3333282471 -0.666656494141 12 1 19.3333282471 2.66665649414 26.6666717529 rrcurveto
          340 0 6 61 rlineto
          1.33331298828 9.33334350586 0.666687011719 9.33331298828 0 9.33334350586 0 53.3333435059 -15.6666870117 44 -31.3333129883 34.6666564941 -30.6666870117 32.6666564941 -37.3333129883 16.3333435059 -44 0 -75.3333435059 0 -62 -26 -48.6666564941 -52 -22.6666564941 55.3333435059 -45.6666870117 27.6666564941 -68.6666564941 0 -19.3333282471 0 -28.6666717529 -8 -38 -16 rrcurveto
          -40.6666717529 -17.3333435059 -31.9999847412 -18.3333129883 -23.3333435059 -19.3333435059 rrcurveto
          35 -56 rlineto
          56 42.6666564941 46.3333282471 21.3333435059 36.6666717529 0 23.3333435059 0 19.3333129883 -7 15.3333435059 -14 15.3333435059 -14 6.66665649414 -18 -2 -22 rrcurveto
          -7 -60 rlineto
          -35.3333435059 -3.33334350586 -36.6666564941 -6 -38 -8.66665649414 -61.3333282471 -14 -41.6666717529 -14.6666564941 -22 -15.3333435059 -35.3333282471 -24 -20.6666717529 -39 -6 -54 -0.66667175293 -6.66665649414 -0.33332824707 -6.66668701172 0 -6.66665649414 0 -38.6666564941 11.6666717529 -30.1666717529 23.3333282471 -21.6666717529 23.3333435059 -21.6666717529 29.6666564941 -10.8333282471 36 0 rrcurveto
          37.3333282471 0 34 6.66667175293 30.6666717529 13.3333282471 25.3333435059 14 18.6666564941 11 12 8 rrcurveto
          8 196 rmoveto
          -10 -101 rlineto
          -2.66665649414 -26 -18.6666870117 -21.3333435059 -34.6666564941 -16.6666564941 -28.6666717529 -14 -27.3333282471 -7 -26 0 -26.6666717529 0 -18.9999847412 8.33332824707 -11.3333435059 16.6666717529 -10.6666564941 14 -4 18 2.66665649414 22 4 34 16.3333435059 24.3333282471 28.6666564941 14.6666717529 14.6666717529 7.33332824707 29.5 7.5 44.3333282471 7.66667175293 rrcurveto
          44.3333435059 7.66667175293 26.5 3.83332824707 8.66665649414 0 rrcurveto
          endchar
        </CharString>
        <CharString name="agrave">
          -50 406 556 rmoveto
          58 59 -195 96 -57 -65 rlineto
          153 -209 rmoveto
          -99 callsubr
          85 65 rmoveto
          -98 callsubr
          endchar
        </CharString>
        <CharString name="ampersand">
          14 175 307 rmoveto
          25.3333282471 -50 45.6666717529 -63 66 -76 -34 -38 -39 -19 -44 0 -39.3333282471 0 -29.6666717529 12 -20 24 -18.6666564941 21.3333435059 -7.66668701172 26.9999847412 3.33334350586 32.6666717529 6 56.6666717529 30.6666564941 42.9999847412 55.3333435059 29.3333435059 rrcurveto
          271 -303 rmoveto
          53 62 rlineto
          -42.6666564941 22 -29 21 -15.3333435059 20 26.6666564941 60 12 64 -2.66665649414 68 rrcurveto
          -71 -6 rlineto
          4 -26.6666564941 1 -21 -2 -15.3333435059 -1.33334350586 -13.3333282471 -7 -23.3333435059 -12.6666564941 -33.3333282471 -30.6666564941 34 -37.3333435059 53.3333435059 -44 72.6666564941 24 10.6666564941 29.6666564941 5.33334350586 35.3333435059 0 rrcurveto
          -8 61 rlineto
          -38.6666564941 -1.33334350586 -38.0000152588 -8 -37.3333282471 -14.6666564941 -15.3333282471 39.3333435059 -6.33334350586 34.6666564941 2.66667175293 30 6 51.3333129883 27.6666717529 25.6666870117 49.3333282471 0 42.6666564941 0 34.6666870117 -18.6666870117 26.6666564941 -37.3333129883 rrcurveto
          52 48 rlineto
          -39.3333435059 48 -47.6666564941 24 -56 0 -43.3333282471 0 -39 -14.8333129883 -34.6666717529 -29.6666870117 -34.6666717529 -29.6666870117 -19.6666717529 -37.1666259766 -4.66665649414 -44.6666870117 -4.66665649414 -42 10.6666564941 -41.6666564941 26 -41.3333435059 -40 -20.6666564941 -33 -29 -26 -37.3333435059 -26.6666717529 -39.3333282471 -13.3333282471 -41 0 -42.6666717529 rrcurveto
          0 -45.3333435059 15 -37 30 -28.6666564941 32.6666564941 -31.3333282471 46.6666717529 -15.6666717529 60.6666717529 0 55.3333282471 0 55.0000152588 25 54.6666564941 50 33.3333435059 -32.6666717529 29.3333129883 -20.6666564941 25.3333435059 -8.66667175293 rrcurveto
          endchar
        </CharString>
        <CharString name="apple">
          8 325 573 rmoveto
          71 -68 59 68 70 56 -70 67 -59 -67 -71 hlineto
          -291 -590 rmoveto
          71 -67 59 67 71 56 -71 68 -59 -68 -71 hlineto
          131 123 rmoveto
          -46 34 46 vlineto
          4 30 rmoveto
          -20 27 20 vlineto
          3 36 rmoveto
          -26 90 26 vlineto
          -128 96 rmoveto
          -83 29 83 vlineto
          167 71 rmoveto
          46 -35 -46 vlineto
          -3 -30 rmoveto
          20 -27 -20 vlineto
          -3 -36 rmoveto
          26 -90 -26 vlineto
          128 -96 rmoveto
          83 -29 -83 vlineto
          endchar
        </CharString>
        <CharString name="approxequal">
          349 282 rmoveto
          13.3333435059 0 17.3333129883 4 21.3333435059 8 21.3333435059 8 16 8.66665649414 10.6666564941 9.33334350586 rrcurveto
          -21 62 rlineto
          -7.33334350586 -7.33334350586 -10.6666564941 -7.33331298828 -14 -7.33334350586 -14 -7.33334350586 -11.6666564941 -3.66665649414 -9.33334350586 0 -10 0 -18 8 -26 16 -26 16 -24 8 -22 0 -18 0 -21.8333282471 -5.83334350586 -25.6666717529 -11.6666564941 -25.6666717529 -11.6666564941 -19.1666717529 -12.5 -12.6666564941 -13.3333435059 rrcurveto
          17 -63 rlineto
          12.6666717529 15.3333435059 15.6666564941 13 18.6666717529 10.6666564941 18.6666717529 10.6666564941 16 5.33334350586 13.3333282471 0 12.6666717529 0 19.9999847412 -8.66665649414 27.3333435059 -17.3333435059 27.3333435059 -17.3333435059 21.6666564941 -8.66665649414 16 0 rrcurveto
          -22 -200 rmoveto
          13.3333435059 0 17.5 4 21.6666564941 8 21.6666564941 8 15.8333435059 8.66665649414 10 9.33334350586 rrcurveto
          -20 62 rlineto
          -7.33334350586 -7.33332824707 -10.6666564941 -7.33334350586 -14 -7.33332824707 -14 -7.33332824707 -11.6666564941 -3.66667175293 -9.33334350586 0 -10 0 -18 8 -26 16 -26 16 -24 8 -22 0 -18 0 -21.8333282471 -5.83332824707 -25.6666717529 -11.6666717529 -25.6666564941 -11.6666717529 -19.1666870117 -12.5 -12.6666564941 -13.3333282471 rrcurveto
          17 -63 rlineto
          12 15.3333435059 16 13 20 10.6666564941 20 10.6666717529 17 5.33332824707 14 0 12.6666717529 0 19.3333282471 -8.66665649414 26 -17.3333435059 26 -17.3333435059 20.6666564941 -8.66665649414 15.3333435059 0 rrcurveto
          endchar
        </CharString>
        <CharString name="aring">
          -50 247 566 rmoveto
          28.6666564941 0 24.6666870117 9.83331298828 20.6666564941 19.6666870117 20.6666564941 19.6666870117 10.3333435059 24.1666259766 0 28.6666870117 0 20.6666870117 -7 17 -14 13.3333129883 -14 13.3333129883 -19 6.66668701172 -24 0 -29.3333282471 0 -24.8333435059 -9.83331298828 -20.3333282471 -19.6666870117 -20.3333282471 -19.6666870117 -10.1666717529 -24.1666259766 0 -28.6666870117 rrcurveto
          0 -21.3333129883 7 -17.1666870117 14 -13 14 -13 19 -6.5 24 0 rrcurveto
          20 130 rmoveto
          28.6666564941 0 12 -14.3333129883 -4.66665649414 -28.6666870117 -4.66665649414 -29.3333129883 -16.3333435059 -14.6666870117 -28 0 -28.6666717529 0 -12 14.6666870117 4.66667175293 29.3333129883 4.66667175293 28.6666870117 16.3333282471 14.3333129883 28 0 rrcurveto
          98 -259 rmoveto
          -99 callsubr
          85 65 rmoveto
          -98 callsubr
          endchar
        </CharString>
        <CharString name="asciicircum">
          270 592 rmoveto
          102 -139 48 52 -141 173 -175 -173 36 -52 rlineto
          endchar
        </CharString>
        <CharString name="asciitilde">
          -146 273 379 rmoveto
          24.6666564941 0 26 12.3333435059 27.3333435059 24.6666564941 rrcurveto
          -11 70 rlineto
          -6.66665649414 -6.66665649414 -6 -5.66668701172 -5.33334350586 -4.66665649414 -12 -13.3333435059 -11.3333435059 -6.66665649414 -10.6666564941 0 -10 0 -11 4.66665649414 -12 9.33334350586 -29.3333282471 22.6666564941 -26.3333435059 11.3333435059 -23.3333282471 0 -33.3333282471 0 -30.3333282471 -14.6666564941 -27.3333435059 -29.3333435059 rrcurveto
          11 -72 rlineto
          28 35.3333435059 23.6666717529 17.6666564941 19.3333282471 0 12 0 16.6666717529 -9.16665649414 21.3333282471 -18.3333435059 21.3333282471 -18.3333435059 18.6666717529 -9.16665649414 16 0 rrcurveto
          endchar
        </CharString>
        <CharString name="asterisk">
          -266 219 475 rmoveto
          26 44 -78 51 77 50 -25 44 -66 -61 5 89 -47 1 4 -90 -68 61 -26 -44 80 -51 -81 -50 27 -44 66 60 -3 -89 rlineto
          47 0 -4 89 rlineto
          endchar
        </CharString>
        <CharString name="at">
          469 493 -232 rmoveto
          111.333312988 0 91 14.3333282471 70.6666870117 28.6666717529 84.6666870117 34.6666717529 67.3333129883 59.3333282471 50 84 rrcurveto
          -67 43 rlineto
          -40 -64.6666717529 -50.6666870117 -47.9999847412 -61.3333129883 -31.3333435059 -67.3333129883 -34 -85.3333740234 -17 -103.333312988 0 -106 0 -89 39.6666564941 -72 79.3333435059 -69.3333282471 78 -34.6666717529 94 0 110 0 108 38.1666717529 92.1666564941 76.3333282471 76.3333435059 76.3333435059 76.3333129883 92.1666564941 38.1666870117 108 0 rrcurveto
          107.333312988 0 84.8333740234 -33 62.3333129883 -66 62.3333129883 -66 31.1666870117 -87.3333435059 0 -108.666656494 0 -20.6666717529 -6 -25 -12 -29.3333282471 -12 -32 -14.6666870117 -25.3333282471 -17.3333129883 -18.6666717529 -11.3333129883 -12.6666564941 -17 -12.8333435059 -22.6666870117 -13 -22.6666870117 -13 -16.3333129883 -6.16667175293 -10 0.66667175293 rrcurveto
          -9.33331298828 0.66667175293 -8.33337402344 3.83332824707 -7.33331298828 7 -7.33331298828 7 -4 7.5 -0.666687011719 8 rrcurveto
          64 408 -73 0 -3 -41 rlineto
          -11.3333129883 17.3333435059 -19.3333740234 13.3333129883 -27.3333129883 9.33334350586 -21.3333129883 7.33334350586 -21 3.66665649414 -20.6666870117 0 -75.3333435059 0 -63 -35 -50.6666564941 -70 -46 -62.6666564941 -23 -69 0 -75.3333435059 0 -140.666671753 51 -70.3333282471 102 0 62 0 56 32.6666717529 50 65.3333282471 rrcurveto
          -2.66668701172 -28 6 -23.5 14.6666870117 -19 14.6666870117 -19 19.6666259766 -9.5 24.6666870117 0 30.6666870117 0 34.6666259766 10 38.6666870117 20 35.3333129883 18 28 20.6666717529 20.6666870117 23.3333282471 48.6666870117 54.6666717529 24.3333129883 62.6666564941 0 70.6666717529 0 128 -38 103.666656494 -76 79.3333435059 rrcurveto
          -76 79.3333129883 -101 39.6666870117 -126 0 -127.333343506 0 -108.5 -44.8333129883 -89.6666564941 -89.6666870117 -89.6666564941 -89.6666564941 -44.8333435059 -108.5 0 -127.333343506 0 -129.333343506 41.6666564941 -109.999984741 83.3333435059 -90.6666717529 84.6666564941 -93.3333282471 105 -46.6666717529 125.333343506 0 rrcurveto
          145 630 rmoveto
          -35 -193 rlineto
          -6 -32 -18.8333129883 -31.5 -31.6666870117 -31 -31.6666870117 -31 -29.1666564941 -15.5 -26.6666564941 0 -46.6666564941 0 -31 18.6666564941 -15.3333435059 37.3333435059 -8 19.3333282471 -4 31.6666717529 0 44 0 84.6666564941 25.3333435059 64 50.6666564941 43.3333435059 34 28.6666564941 32 14.3333435059 30 0 rrcurveto
          19.3333129883 0 20 -4 20.6666870117 -8 26 -10 17.3333129883 -13.3333435059 8.66668701172 -16.6666564941 rrcurveto
          endchar
        </CharString>
        <CharString name="atilde">
          -16 381 549 rmoveto
          8 0 13.3333435059 3.66668701172 18.6666564941 7.33331298828 18.6666564941 7.33331298828 13 7.33337402344 7.33334350586 7.33331298828 rrcurveto
          -17 60 rlineto
          -20 -16.6666870117 -18 -8.33331298828 -16 0 -13.3333435059 0 -19 11.5 -24.6666564941 23 -24.6666564941 23 -21.6666870117 11.1666870117 -18.6666564941 -0.666687011719 -16.6666717529 -0.666687011719 -18.6666564941 -5 -20.6666717529 -9.33331298828 -20.6666717529 -9.33331298828 -16.3333282471 -11.6666870117 -12 -14 rrcurveto
          17 -59 rlineto
          25.3333282471 28 25.6666717529 14 26 0 10 0 18.6666564941 -11.5 27.3333435059 -23 27.3333435059 -23 23 -11.5 18.6666564941 0 rrcurveto
          -16 -112 rmoveto
          -99 callsubr
          85 65 rmoveto
          -98 callsubr
          endchar
        </CharString>
        <CharString name="b">
          -26 234 -10 rmoveto
          64 0 52.6666564941 22.3333282471 41.3333435059 44.6666717529 44 47.3333435059 26.6666564941 67.3333282471 9.33334350586 87.3333282471 1.33334350586 12.6666564941 0.666656494141 12.3333435059 0 12 0 62 -15.3333435059 50.3333435059 -30.6666564941 38.6666564941 -34 43.3333435059 -47.3333435059 21.6666564941 -60.6666564941 0 -38 0 -44 -21.3333435059 -50 -42.6666564941 rrcurveto
          27 252 -79 0 -75 -700 65 0 19 40 rlineto
          39.3333282471 -33.3333282471 41 -16.6666717529 42.6666717529 0 rrcurveto
          43 453 rmoveto
          71.3333435059 35.6666564941 -50 -100 hvcurveto
          0 -12 -0.666656494141 -12.3333435059 -1.33334350586 -12.6666564941 -14.6666564941 -133.333343506 -49.6666870117 -66.6666564941 -84.6666564941 0 -22 0 -21.6666717529 4.66667175293 -21.3333282471 9.33332824707 -23.3333282471 9.33334350586 -16.6666717529 12.6666564941 -10 16 rrcurveto
          28 263 rlineto
          26.6666717529 48 43.6666564941 24 60.6666717529 0 rrcurveto
          endchar
        </CharString>
        <CharString name="backslash">
          -156 262 -170 rmoveto
          82 17 -206 857 -81 -17 rlineto
          endchar
        </CharString>
        <CharString name="bar">
          -312 37 -220 rmoveto
          88 0 96 906 -88 0 rlineto
          endchar
        </CharString>
        <CharString name="braceleft">
          444 748 rmoveto
          22 75 rlineto
          -31.3333435059 7.33331298828 -24 3.66668701172 -16.6666564941 0 -106 0 -60.3333282471 -67 -14.6666717529 -134 -1.33332824707 -13.3333129883 -1.33334350586 -22 -1.33332824707 -30.6666870117 -1.33332824707 -30.6666870117 -1.33334350586 -23.3333129883 -1.33332824707 -16 -3.33332824707 -29.3333435059 -10.6666717529 -26.6666564941 -18 -24 -8.66667175293 -12.6666564941 -18.6666564941 -19.3333435059 -28.6666717529 -26 rrcurveto
          -5 -40 rlineto
          18.6666717529 -16.6666564941 14.6666564941 -20.6666870117 10.6666717529 -24.6666564941 12.6666717529 -28.6666717529 4.66665649414 -28.3333282471 -3.33332824707 -28 -1.33332824707 -16 -2.83334350586 -21.8333282471 -4.33332824707 -27.6666717529 -4.33332824707 -27.6666564941 -2.5 -18.5000152588 -0.66667175293 -9.33332824707 -4.66667175293 -40 -2.66665649414 -29 -0.66667175293 -18 -1.33332824707 -48 6.33332824707 -36.3333435059 14 -24.6666564941 rrcurveto
          18 -32 33 -17.3333282471 48 -2.66667175293 20.6666564941 -1.33332824707 31.3333435059 5.66665649414 42 12.6666717529 rrcurveto
          -12 75 rlineto
          -18 -14 -23.6666564941 -7 -29.3333435059 0 -24 0 -14.3333282471 9.66665649414 -4.66667175293 19.3333435059 -2 10 1 24.6666717529 4 39.3333282471 1.33332824707 14.6666717529 4.16667175293 26.8333282471 7 39 7 39 4.16665649414 27.1666564941 1.33334350586 15.3333435059 0.666656494141 7.33332824707 0.333343505859 7 0 6.66667175293 rrcurveto
          0 34.6666717529 -8.33332824707 33.3333282471 -16.6666717529 32 -13.3333282471 26.6666564941 -16.3333435059 21 -19.3333282471 15.3333435059 rrcurveto
          3 25 rlineto
          60 49.3333435059 32.6666564941 48.6666564941 5.33334350586 48 0.666656494141 10 1.16668701172 20 1.66665649414 30 1.66665649414 30 1.5 23.6666870117 1.33334350586 17.3333129883 6.66665649414 58.6666870117 10 38.3333129883 13.3333435059 18 11.3333435059 14 20.6666564941 7 30 0 10.6666564941 0 18.6666870117 -4.33331298828 26.6666564941 -8.66668701172 rrcurveto
          endchar
        </CharString>
        <CharString name="braceright">
          341 172 rmoveto
          6.66665649414 58 30 49 53.3333435059 40 rrcurveto
          3 40 rlineto
          -22.6666564941 26 -14.6666870117 19.3333435059 -6.66665649414 12.6666564941 -12.6666564941 24 -4.66668701172 26.6666564941 3.33334350586 29.3333435059 1.33334350586 10.6666564941 4.66665649414 30.0000305176 8 49.3333129883 6 36.6666870117 3 30 0 23.3333129883 0 104.666687012 -46.6666564941 52.3333129883 -93.3333435059 0 -17.3333282471 0 -25.3333435059 -3.66668701172 -33.3333282471 -7.33331298828 rrcurveto
          8 -75 rlineto
          28 8.66668701172 19.3333282471 4.33331298828 10.6666717529 0 24.6666564941 0 16.6666870117 -4 8.66665649414 -8 10.6666564941 -10.6666870117 5.33334350586 -21.3333129883 0 -32 0 -25.3333129883 -3 -32 -6 -38.6666870117 -8 -54.6666870117 -4.33334350586 -31.6666564941 -0.666656494141 -8.66665649414 -5.33334350586 -48 22 -48.6666564941 49.3333435059 -49.3333435059 rrcurveto
          -3 -25 rlineto
          -24 -16.6666564941 -22.3333435059 -23.6666870117 -20.6666564941 -30.6666564941 -25.3333435059 -36.6666717529 -14.6666564941 -37.6666564941 -4 -38.6666717529 -1.33332824707 -14.6666564941 -1.5 -26.8333435059 -1.66667175293 -39 -1.66667175293 -39 -1.5 -27.1666717529 -1.33332824707 -15.3333282471 -2 -18.6666717529 -1.66667175293 -13.6666564941 -1.33332824707 -8.66667175293 -4.66667175293 -41.3333435059 -19 -20.6666564941 -33.3333282471 0 rrcurveto
          -29.3333282471 0 -22.3333282471 7 -15.3333435059 14 rrcurveto
          -28 -75 rlineto
          39.3333435059 -12 29.9999847412 -5.66667175293 20.6666717529 0.66667175293 61.3333282471 2.66667175293 43.0000152588 28 24.6666564941 53.3333282471 10 21.3333435059 8 27 6 32.6666564941 3.33334350586 18 3.66665649414 27.6666717529 4 37.3333282471 0.666656494141 9.33332824707 1.16668701172 18.5000152588 1.66665649414 27.6666564941 1.66665649414 27.6666717529 1.5 21.8333282471 1.33334350586 16 rrcurveto
          endchar
        </CharString>
        <CharString name="bracketleft">
          -272 11 -114 rmoveto
          163 0 7 70 -81 0 78 733 71 0 5 51 -153 0 rlineto
          endchar
        </CharString>
        <CharString name="bracketright">
          -275 5 -114 rmoveto
          160 0 90 854 -151 0 -5 -51 72 0 -78 -733 -81 0 rlineto
          endchar
        </CharString>
        <CharString name="breve">
          -196 165 538 rmoveto
          32 0 28.8333282471 9.33331298828 25.6666717529 18.6666870117 25.6666564941 18.6666870117 18.8333435059 25.6666259766 12 32.6666870117 rrcurveto
          -47 7 rlineto
          -22 -42 -30.6666717529 -21 -39.3333282471 0 -42 0 -27.6666564941 21 -13.3333435059 42 rrcurveto
          -50 -7 rlineto
          6.66667175293 -32.6666870117 15.1666564941 -25.6666259766 23.6666717529 -18.6666870117 23.6666564941 -18.6666870117 27.8333435059 -9.33331298828 32 0 rrcurveto
          endchar
        </CharString>
        <CharString name="brokenbar">
          -359 54 -18 rmoveto
          77 274 -77 hlineto
          126 vmoveto
          77 274 -77 hlineto
          endchar
        </CharString>
        <CharString name="bullet">
          -259 129 190 rmoveto
          25.3333282471 0 22.5 9.66667175293 19.6666717529 19.3333282471 19.6666717529 19.3333282471 11.5 24.0000152588 3.33332824707 28.6666564941 3.33332824707 28.6666564941 -6.33332824707 23.8333435059 -16 19 -16 19 -20.3333282471 9.5 -24.6666717529 0 -25.3333435059 0 -22.6666564941 -9.5 -20 -19 -20 -19 -11.6666717529 -23.8333435059 -3.33332824707 -28.6666564941 rrcurveto
          -3.33332824707 -29.3333435059 6.33332824707 -24.1666564941 16 -19 16 -19 20.6666564941 -9.5 25.3333435059 0 rrcurveto
          endchar
        </CharString>
        <CharString name="c">
          -62 241 -12 rmoveto
          66.6666564941 0 60.3333435059 24 54 48 rrcurveto
          -33 52 rlineto
          -45.3333435059 -36.6666564941 -46.6666564941 -18.3333435059 -48 0 -36 0 -30 12.6666564941 -24 25.3333435059 -26.6666717529 28 -13.3333282471 38 0 48 0 9.33332824707 0.666656494141 9.66667175293 1.33334350586 10 6 56.6666564941 16 46.6666870117 26 36.6666564941 29.3333282471 40.6666564941 37 20.3333435059 44.6666717529 0 rrcurveto
          24.6666564941 0 21.6666870117 -4.33334350586 18.6666564941 -8.66665649414 14 -6.66665649414 18.6666564941 -12.6666870117 23.3333435059 -18.6666564941 rrcurveto
          49 66 rlineto
          -42.6666564941 34.6666564941 -50.6666870117 17.6666870117 -58.6666564941 0.666656494141 -62 0.666656494141 -54.3333282471 -19.6666564941 -46.6666717529 -40 -54.6666564941 -47.3333435059 -32.3333435059 -68.6666564941 -10 -90 -0.66667175293 -10.6666717529 -0.33332824707 -11 0 -11.3333282471 0 -56.6666717529 12 -47.3333282471 24 -38 34.6666564941 -52.6666717529 56.0000152588 -26.3333282471 77.3333282471 0 rrcurveto
          endchar
        </CharString>
        <CharString name="caron">
          -204 178 617 rmoveto
          -91 callsubr
          endchar
        </CharString>
        <CharString name="ccedilla">
          -58 224 -219 rmoveto
          30 0 26.1666564941 9.5 22.3333435059 19 22.3333435059 19 11.1666564941 24.5 0 30 0 20 -6 17 -12 14 -14.6666564941 15.3333282471 -19.6666870117 7.66667175293 -24.6666564941 0 -10.6666717529 0 -8.33332824707 -1.33332824707 -6 -2.66667175293 rrcurveto
          9 35 2 0 rlineto
          65.3333435059 0 60.3333129883 24 55.3333435059 48 rrcurveto
          -34 52 rlineto
          -44.6666564941 -36.6666564941 -46.3333435059 -18.3333435059 -48 0 -34 0 -28.6666717529 11.3333435059 -23.3333282471 22.6666564941 -26 25.3333435059 -14 34.3333282471 -2 43.3333282471 -2.66665649414 56 11.6666564941 52.6666564941 26 49.3333435059 31.3333282471 58 42.3333435059 29 53.3333282471 0 40 0 40 -17 40 -34 rrcurveto
          49 66 rlineto
          -42 35.3333435059 -50 17.6666564941 -58 0 -85.3333282471 0.666656494141 -67.6666717529 -33.6666564941 -50 -68 -45.3333282471 -62 -20.3333435059 -72.6666564941 4.66667175293 -83.3333435059 6 -109.333343506 48.3333435059 -64.6666564941 90.6666564941 -20 rrcurveto
          -19 -84 42 -21 rlineto
          15.3333282471 10 12.6666717529 5 10 0 22 0 9 -13 -4 -26 -3.33334350586 -22.6666717529 -14 -11.3333282471 -24.6666564941 0 -14.6666717529 0 -15 10.6666717529 -15.3333282471 21.3333282471 rrcurveto
          -42 -34 rlineto
          9.33332824707 -32 26 -16 42.6666717529 0 rrcurveto
          endchar
        </CharString>
        <CharString name="cedilla">
          -336 89 -219 rmoveto
          30.6666564941 0 24.6666717529 8.66667175293 18.6666717529 17.3333282471 18.6666717529 17.3333282471 10.3333282471 20.3333435059 2 23.3333282471 2.66667175293 23.3333435059 -5.33334350586 20 -13.3333282471 16.6666564941 -14.6666717529 19.3333282471 -21.3333282471 9.66667175293 -28 0 -10.6666564941 0 -8.66668701172 -1.33332824707 -6.66665649414 -2.66667175293 rrcurveto
          10 52 -58 -1 -15 -94 44 -21 rlineto
          14.6666564941 10 12 5 9.33334350586 0 22.6666564941 0 10.0000152588 -13 -2.66667175293 -26 -2.66667175293 -22.6666717529 -13.3333282471 -11.3333282471 -24 0 -14 0 -15.6666564941 10.6666717529 -17.3333435059 21.3333282471 rrcurveto
          -40 -34 rlineto
          10.6666717529 -32 27 -16 43.3333282471 0 rrcurveto
          endchar
        </CharString>
        <CharString name="cent">
          -62 197 -10 rmoveto
          -8 -79 89 0 8 80 rlineto
          48.6666564941 8 45.6666870117 23 42.6666564941 38 rrcurveto
          -34 54 rlineto
          -43.3333435059 -35.3333435059 -46.6666564941 -17.6666564941 -50 0 -36 0 -29.6666717529 12 -23.3333282471 24 -26.6666717529 26.6666564941 -13.3333282471 37.3333435059 0 48 0 9.33332824707 0.666656494141 9.66667175293 1.33334350586 10 6 56.6666564941 16 46 26 35.3333435059 28.6666717529 39.3333435059 36.6666564941 19.6666564941 44.6666717529 0 rrcurveto
          42 0 40 -16.3333435059 38 -32.6666564941 rrcurveto
          51 68 rlineto
          -32 26.6666564941 -36.6666564941 17 -41.3333435059 7.33334350586 rrcurveto
          9 85 -89 0 -9 -86 rlineto
          -54.6666717529 -9.33334350586 -45.6666564941 -24.6666564941 -36.6666717529 -40 -43.3333435059 -46.6666564941 -25.9999847412 -62.6666870117 -8.66667175293 -78.6666564941 -1.33332824707 -10.6666717529 -0.66667175293 -11.3333282471 0 -12 0 -50 10 -43 20 -36 27.3333435059 -50 43.9999847412 -29.6666717529 60.6666717529 -9.33332824707 rrcurveto
          endchar
        </CharString>
        <CharString name="circumflex">
          -204 173 619 rmoveto
          -82 callsubr
          endchar
        </CharString>
        <CharString name="colon">
          -297 145 360 rmoveto
          18 0 16.3333282471 7 14.6666717529 14 14.6666717529 14 8.66665649414 17.3333435059 2.66667175293 20.6666564941 2 20.6666564941 -5 17.3333435059 -12 14 -12 14 -15 7 -18 0 -17.3333282471 0 -16.1666717529 -7 -15 -14 -15 -14 -8.5 -17.3333435059 -2 -20.6666564941 rrcurveto
          -2.66665649414 -20.6666564941 4.83331298828 -17.3333435059 12.3333435059 -14 12.3333435059 -14 14.8333129883 -7 17.3333435059 0 rrcurveto
          -39 -369 rmoveto
          18 0 16.3333282471 7 14.6666717529 14 14.6666717529 14 8.33332824707 17.3333282471 2 20.6666717529 2.66667175293 20.6666564941 -4.66667175293 17.3333435059 -12 14 -12 14 -15 7 -18 0 -17.3333435059 0 -16.1666564941 -7 -15 -14 -15 -14 -8.83332824707 -17.3333435059 -2.66667175293 -20.6666564941 rrcurveto
          -2 -20.6666717529 5 -17.3333282471 12 -14 12 -14 15 -7 18 0 rrcurveto
          endchar
        </CharString>
        <CharString name="comma">
          -287 55 -72 rmoveto
          10 16.6666717529 11.3333435059 28 12.6666564941 39.3333282471 14 42.6666717529 8.66665649414 35.9999847412 3.33334350586 29.3333435059 rrcurveto
          97 hlineto
          -6.66667175293 -56.6666717529 -38 -68 -69.3333282471 -79.3333282471 rrcurveto
          endchar
        </CharString>
        <CharString name="copyright">
          255 396 102 rmoveto
          38 0 42.3333435059 12.3333435059 46.6666564941 24.6666564941 rrcurveto
          -25 42 rlineto
          -32.6666564941 -18.6666717529 -34 -9.33332824707 -35.3333435059 0 -34 0 -28.6666564941 14.8333282471 -23.3333435059 29.6666717529 -23.3333435059 29.6666717529 -11.6666564941 37.4999847412 0 45.3333435059 0 40.6666564941 9 36.3333435059 18 32 23.3333435059 40.6666564941 33 20.3333435059 42.6666564941 0 23.3333435059 0 31.3333129883 -12 39.3333435059 -24 rrcurveto
          24 51 rlineto
          -40.6666564941 23.3333129883 -40.3333435059 11.6666870117 -40 0 -58 -0.666687011719 -45.6666564941 -22.6666564941 -33.3333435059 -44.6666564941 -29.3333282471 -39.3333435059 -14.6666717529 -48 0 -56.6666564941 0 -60 14.3333282471 -49.6666717529 28.6666717529 -39.3333282471 32.6666564941 -44.6666564941 45.3333435059 -22.3333435059 58 0 rrcurveto
          -264 214 rmoveto
          0 73.3333435059 26 62.6666564941 52 52 52 52 62.6666564941 26 73.3333435059 0 73.3333435059 0 62.6666564941 -26 52 -52 52 -52 26 -62.6666564941 0 -73.3333435059 0 -73.3333282471 -26 -62.6666717529 -52 -52 -52 -52 -62.6666564941 -26 -73.3333435059 0 rrcurveto
          -73.3333435059 0 -62.6666564941 26 -52 52 -52 52 -26 62.6666717529 0 73.3333282471 rrcurveto
          -65 hmoveto
          -90 callsubr
          endchar
        </CharString>
        <CharString name="currency">
          -52 408 360 rmoveto
          8 75 -178 0 14 133 196 0 8 72 -285 0 -22 -205 -100 0 -7 -74 99 0 -5 -46 -100 0 -6 -75 99 0 -26 -240 rlineto
          282 0 8 77 -193 -1 18 164 178 0 7 75 -178 0 5 45 rlineto
          endchar
        </CharString>
        <CharString name="d">
          -30 412 hmoveto
          74 697 -78 0 -26 -243 rlineto
          -28 38.6666564941 -37.3333435059 19.3333435059 -46.6666564941 0 -76.6666717529 0 -61.3333282471 -33 -46 -66 -40.6666717529 -58 -20.3333282471 -69 0 -80 0 -60.6666717529 13.6666717529 -50.3333282471 27.3333282471 -40 30.6666564941 -45.3333282471 42.3333435059 -22.6666717529 54 0 38.6666717529 0 48.3333282471 18.3333282471 58 36.6666717529 rrcurveto
          8 -42 rlineto
          28 380 rmoveto
          -29 -274 rlineto
          -38 -30 -39.3333435059 -15 -40.6666564941 0 -37.3333282471 0 -28.3333435059 15 -19.3333282471 30 -18 28 -9 37 0 46 0 54.6666564941 10.3333435059 48.6666870117 20.6666564941 42.6666564941 26 53.3333435059 37.6666717529 26.6666564941 49.3333282471 0 30.6666564941 0 23 -4.33334350586 15.3333435059 -8.66665649414 rrcurveto
          15.3333435059 -8.66665649414 15.3333129883 -16.6666870117 15.3333435059 -24.6666564941 rrcurveto
          endchar
        </CharString>
        <CharString name="dagger">
          -320 192 559 rmoveto
          34 -70 62 -39 -62 -60 -34 60 -226 39 226 vlineto
          endchar
        </CharString>
        <CharString name="daggerdbl">
          -320 183 397 rmoveto
          24 -62 128 62 24 -62 82 -37 -82 -60 -24 60 -128 -60 -24 vlineto
          60 -152 37 152 hlineto
          endchar
        </CharString>
        <CharString name="degree">
          -268 152 712 rmoveto
          -38 0 -33 -12.6666870117 -28 -25.3333129883 -28 -25.3333129883 -16 -30.6666870117 -4 -36 -4 -36 9.5 -30.6666870117 23 -25.3333129883 23 -25.3333435059 30.1666564941 -12.6666564941 37.3333435059 0 37.3333282471 0 32.3333435059 12.5 27.3333282471 25 27.3333282471 25 15.6666717529 30.8333129883 4 36.6666870117 rrcurveto
          4 36.6666870117 -9 30.8333129883 -22 25 -22 25 -29.6666717529 12.5 -37.3333282471 0 rrcurveto
          -6 -50 rmoveto
          22.6666717529 0 17.8333282471 -7.66668701172 13 -15.3333129883 13 -15.3333129883 5.16667175293 -19 -2.66667175293 -22.6666870117 -2.66667175293 -22.6666870117 -9.33332824707 -19 -16 -15.3333129883 -16 -15.3333435059 -19 -7.66665649414 -22 0 -23.3333435059 0 -18.5 7.66665649414 -13.6666564941 15.3333435059 -13.6666717529 15.3333129883 -5.5 19 2.66667175293 22.6666870117 rrcurveto
          2.66667175293 22.6666870117 9.66667175293 19 16.6666564941 15.3333129883 16.6666564941 15.3333129883 19.6666870117 7.66668701172 22.6666564941 0 rrcurveto
          endchar
        </CharString>
        <CharString name="dieresis">
          -235 249 546 rmoveto
          16 0 13 5.33331298828 10 10.6666870117 10 10.6666870117 5.66665649414 12 1.33334350586 13.3333129883 1.33334350586 12.6666870117 -3.16668701172 11.8333129883 -7.66665649414 11 -7.66665649414 11 -11.5 5.5 -15.3333435059 0 -16.6666717529 0 -13.1666564941 -5.33331298828 -9.66667175293 -10.6666870117 -9.66667175293 -10.6666870117 -5.5 -12 -1.33332824707 -13.3333129883 rrcurveto
          -1.33332824707 -13.3333129883 3 -12 7.33332824707 -10.6666870117 7.33332824707 -10.6666870117 11.6666717529 -5.33331298828 16 0 rrcurveto
          -210 hmoveto
          16 0 13 5.33331298828 10 10.6666870117 10 10.6666870117 5.66665649414 12 1.33334350586 13.3333129883 1.33334350586 13.3333129883 -3.16668701172 12 -7.66665649414 10.6666870117 -7.66665649414 10.6666870117 -11.5 5.33331298828 -15.3333435059 0 -16 0 -13 -5.33331298828 -10 -10.6666870117 -10 -10.6666870117 -5.66667175293 -12 -1.33332824707 -13.3333129883 rrcurveto
          -1.33332824707 -13.3333129883 3.16665649414 -12 7.66667175293 -10.6666870117 7.66667175293 -10.6666870117 11.5 -5.33331298828 15.3333282471 0 rrcurveto
          endchar
        </CharString>
        <CharString name="divide">
          -45 264 397 rmoveto
          16.6666564941 0 14.1666870117 6.33334350586 11.6666564941 12.6666564941 11.6666564941 12.6666564941 5.83334350586 15.6666870117 0 18.6666564941 0 18.6666564941 -5.83334350586 15.6666870117 -11.6666564941 12.6666564941 -11.6666564941 12.6666870117 -14.1666870117 6.33331298828 -16.6666564941 0 -16.6666717529 0 -14.1666564941 -6.33331298828 -11.6666717529 -12.6666870117 -11.6666717529 -12.6666564941 -5.83332824707 -15.6666870117 0 -18.6666564941 rrcurveto
          0 -18.6666564941 5.83332824707 -15.6666870117 11.6666717529 -12.6666564941 11.6666717529 -12.6666564941 14.1666564941 -6.33334350586 16.6666717529 0 rrcurveto
          -211 -122 rmoveto
          393 70 -393 hlineto
          211 -252 rmoveto
          16.6666564941 0 14.1666870117 6.33334350586 11.6666564941 12.6666564941 11.6666564941 12.6666564941 5.83334350586 15.6666717529 0 18.6666717529 0 18.6666717529 -5.83334350586 15.6666564941 -11.6666564941 12.6666717529 -11.6666564941 12.6666717529 -14.1666870117 6.33332824707 -16.6666564941 0 -16.6666717529 0 -14.1666564941 -6.33332824707 -11.6666717529 -12.6666717529 -11.6666717529 -12.6666717529 -5.83332824707 -15.6666564941 0 -18.6666717529 rrcurveto
          0 -18.6666717529 5.83332824707 -15.6666717529 11.6666717529 -12.6666564941 11.6666717529 -12.6666564941 14.1666564941 -6.33334350586 16.6666717529 0 rrcurveto
          endchar
        </CharString>
        <CharString name="dollar">
          282 -6 rmoveto
          98 20 54 58.3333435059 10 96.6666564941 0.666656494141 11.3333282471 0.333343505859 10.6666717529 0 10 0 46 -14.3333435059 34.6666564941 -28.6666564941 23.3333435059 -18.6666564941 15.3333435059 -39 18 -59.3333435059 20.6666564941 -59.3333282471 20.6666564941 -27.6666717529 28 4 35.3333435059 6 60.6666564941 32.6666717529 30.3333435059 59.3333282471 0 rrcurveto
          40 0 36.6666564941 -15.6666870117 33.3333435059 -31.3333129883 rrcurveto
          50 58 rlineto
          -35.3333435059 32 -37.6666564941 19.6666870117 -40 7.33331298828 rrcurveto
          9 86 -89 0 -10 -89 rlineto
          -38 -9.33331298828 -32.3333282471 -18 -26.6666717529 -26.6666870117 -28 -28.6666870117 -16 -32.9999694824 -4 -37.3333435059 -0.666656494141 -8.66665649414 -0.333343505859 -8.66668701172 0 -8.66665649414 0 -40.6666564941 12.6666564941 -32.6666870117 25.3333435059 -24.6666564941 18 -16.6666564941 28.3333282471 -15.6666870117 38.6666717529 -14.6666564941 48 -18 28.3333435059 -11.6666717529 8.66665649414 -5.33332824707 rrcurveto
          29.3333435059 -18 13 -25 -3.33334350586 -32 -2.66665649414 -32.6666717529 -12.8333435059 -25.3333282471 -23 -18 -23 -18 -26.8333435059 -9 -30.6666564941 0 -54.6666717529 0 -44 22.3333435059 -33.3333282471 44.6666564941 rrcurveto
          -54 -62 rlineto
          26.6666564941 -42.6666717529 46.6666870117 -26 66.6666564941 -9.33332824707 rrcurveto
          -10 -91 89 0 rlineto
          endchar
        </CharString>
        <CharString name="dotaccent">
          -304 123 528 rmoveto
          15.3333282471 0 13.1666717529 4.83331298828 11 9.66668701172 11 9.66668701172 6.16667175293 11.1666259766 1.33332824707 12.6666870117 1.33332824707 13.3333129883 -3.83332824707 11.3333740234 -9 9.33331298828 -9 9.33331298828 -12.1666717529 4.66668701172 -15.3333282471 0 -15.3333435059 0 -13.1666564941 -4.66668701172 -11 -9.33331298828 -11 -9.33331298828 -6.16665649414 -11.3333740234 -1.33334350586 -13.3333129883 rrcurveto
          -1.33334350586 -12.6666870117 3.83334350586 -11.1666259766 9 -9.66668701172 9 -9.66668701172 12.1666564941 -4.83331298828 15.3333435059 0 rrcurveto
          endchar
        </CharString>
        <CharString name="dotlessi">
          -308 45 hmoveto
          81 0 52 495 -81 0 rlineto
          endchar
        </CharString>
        <CharString name="e">
          -57 378 378 rmoveto
          -97 callsubr
          -263 -151 rmoveto
          -96 callsubr
          endchar
        </CharString>
        <CharString name="eacute">
          -44 275 557 rmoveto
          225 90 -37 65 -225 -96 rlineto
          140 -238 rmoveto
          -97 callsubr
          -263 -151 rmoveto
          -96 callsubr
          endchar
        </CharString>
        <CharString name="ecircumflex">
          -44 337 619 rmoveto
          -77 callsubr
          193 -148 rmoveto
          -97 callsubr
          -263 -151 rmoveto
          -96 callsubr
          endchar
        </CharString>
        <CharString name="edieresis">
          -44 445 546 rmoveto
          -76 callsubr
          -210 hmoveto
          15.3333282471 0 13.0000152588 5.33331298828 10.6666564941 10.6666870117 10.6666564941 10.6666870117 6.33334350586 12 2 13.3333129883 2 12.6666870117 -2.5 11.8333129883 -7 11 -7 11 -11.5 5.5 -16 0 -16 0 -13.1666717529 -5.33331298828 -10.3333282471 -10.6666870117 -10.3333282471 -10.6666870117 -6.16667175293 -12 -2 -13.3333129883 rrcurveto
          -2 -13.3333129883 2.5 -12 7 -10.6666870117 7 -10.6666870117 11.5 -5.33331298828 16 0 rrcurveto
          143 -168 rmoveto
          -97 callsubr
          -263 -151 rmoveto
          -96 callsubr
          endchar
        </CharString>
        <CharString name="egrave">
          -44 418 556 rmoveto
          57 59 -195 96 -57 -65 rlineto
          155 -268 rmoveto
          -97 callsubr
          -263 -151 rmoveto
          -96 callsubr
          endchar
        </CharString>
        <CharString name="eight">
          265 313 rmoveto
          47.3333435059 -20 32 -17 16.6666564941 -14 28 -24.6666717529 12 -31.3333282471 -4 -38 -4.66665649414 -41.3333435059 -16.8333435059 -32.8333129883 -29 -24.3333435059 -29 -24.3333282471 -34.8333435059 -12.1666717529 -40.6666564941 0 -33.3333282471 0 -30 9.66667175293 -26.6666717529 19.3333282471 -34.6666564941 25.3333435059 -15 35.3333129883 4.66665649414 45.3333435059 rrcurveto
          4 37.3333282471 18.3333282471 30.6666717529 32.6666717529 24 14 10 34.3333282471 17.6666564941 54.6666717529 25.3333435059 rrcurveto
          28 295 rmoveto
          30 0 26 -9.66668701172 22 -19.3333129883 23.3333435059 -21.3333129883 10 -26 -3.33334350586 -30.6666870117 -4.66665649414 -46 -44.6666870117 -37.6666564941 -84.6666564941 -29.3333435059 -31.3333282471 13.3333435059 -22.6666717529 13.3333129883 -14 13.3333435059 -18.6666717529 18 -10.3333282471 23.3333435059 -2 28.6666564941 6.66667175293 34.6666870117 16 27.3333129883 25.3333282471 20 rrcurveto
          22.6666717529 18.6666870117 25.6666717529 9.33331298828 28.6666564941 0 rrcurveto
          -64 -636 rmoveto
          74.6666564941 0 60 19.6666717529 45.3333435059 39.3333282471 41.3333435059 36 23.6666564941 46.6666564941 6 57.3333435059 9.33334350586 82.6666717529 -47.3333435059 61.6666717529 -104 40.6666564941 84 41.3333435059 45.3333435059 51.3333129883 6.66665649414 61.3333435059 5.33334350586 46.6666870117 -15.3333435059 38.3333129883 -36 30 -32 26.6666870117 -39.6666564941 13.3333129883 -47.3333435059 0 rrcurveto
          -50.6666564941 0 -46.0000152588 -13.6666870117 -41.3333282471 -27.3333129883 -46.6666564941 -32 -26 -42 -5.33334350586 -52 -3.33334350586 -32.6666564941 9 -28.6666870117 21.3333435059 -24.6666564941 12 -13.3333435059 26.3333282471 -20 40.6666717529 -26.6666564941 -50 -20 -40.3333435059 -26.3333435059 -30.6666564941 -32.6666564941 -36.6666717529 -38.6666717529 -18.3333282471 -43 0 -47.3333282471 rrcurveto
          0 -55.3333435059 20.3333282471 -43.3333282471 40.6666717529 -31.3333282471 38 -28 48.3333282471 -14 58.6666717529 0 rrcurveto
          endchar
        </CharString>
        <CharString name="ellipsis">
          80 498 -16 rmoveto
          18 0 16.1666870117 6.16667175293 14.3333129883 12.3333282471 14.3333129883 12.3333282471 8.16668701172 16.8333435059 2 21.3333282471 2 22 -4.66668701172 17 -11.3333129883 12 -11.3333129883 12 -15 6 -18.6666870117 0 -18.6666564941 0 -16 -5.66665649414 -13.3333435059 -11.3333435059 -15.3333435059 -12.6666564941 -8.66665649414 -17.3333435059 -2 -22 rrcurveto
          -2 -21.3333282471 4.83334350586 -16.8333435059 11.6666564941 -12.3333282471 11.6666564941 -12.3333282471 15.1666870117 -6.16667175293 18.6666564941 0 rrcurveto
          -189 hmoveto
          18 0 16.1666564941 6.16667175293 14.3333435059 12.3333282471 14.3333435059 12.3333282471 8.16665649414 16.8333435059 2 21.3333282471 2 22 -4.66665649414 17 -11.3333435059 12 -11.3333435059 12 -15 6 -18.6666564941 0 -18.6666564941 0 -16 -5.66665649414 -13.3333435059 -11.3333435059 -15.3333435059 -12.6666564941 -8.66665649414 -17.3333435059 -2 -22 rrcurveto
          -2 -21.3333282471 4.83332824707 -16.8333435059 11.6666717529 -12.3333282471 11.6666564941 -12.3333282471 15.1666870117 -6.16667175293 18.6666564941 0 rrcurveto
          -189 hmoveto
          18 0 16.1666717529 6.16667175293 14.3333282471 12.3333282471 14.3333282471 12.3333282471 8.16667175293 16.8333435059 2 21.3333282471 2 22 -4.66667175293 17 -11.3333282471 12 -11.3333282471 12 -15 6 -18.6666717529 0 -18.6666564941 0 -16 -5.66665649414 -13.3333435059 -11.3333435059 -15.3333435059 -12.6666564941 -8.66665649414 -17.3333435059 -2 -22 rrcurveto
          -2 -21.3333282471 4.83332824707 -16.8333435059 11.6666717529 -12.3333282471 11.6666564941 -12.3333282471 15.1666870117 -6.16667175293 18.6666564941 0 rrcurveto
          endchar
        </CharString>
        <CharString name="emdash">
          459 27 292 rmoveto
          946 71 -946 hlineto
          endchar
        </CharString>
        <CharString name="endash">
          -41 34 292 rmoveto
          432 71 -432 hlineto
          endchar
        </CharString>
        <CharString name="equal">
          -100 51 287 rmoveto
          338 65 -338 hlineto
          -217 vmoveto
          338 65 -338 hlineto
          endchar
        </CharString>
        <CharString name="eth">
          22 428 358 rmoveto
          2 -29.3333435059 -0.666656494141 -32 -3.33334350586 -34.6666564941 -6 -58 -19.3333435059 -47 -32.6666564941 -36 -34.6666564941 -39.3333435059 -44 -19.6666564941 -53.3333435059 0 -40.6666717529 0 -32 16 -23.3333282471 32 -22 30 -11 38.3333282471 0 46.6666717529 0 10 0.666656494141 10.3333282471 1.33334350586 10.6666717529 rrcurveto
          6.66665649414 58.6666564941 19.3333435059 45.3333435059 32 32 32 32 39.6666717529 16 47.3333282471 0 62 0 47.3333435059 -27.3333435059 32.6666564941 -54.6666564941 rrcurveto
          -189 255 rmoveto
          -7 -69 143 0 rlineto
          18 -34 11.3333435059 -26.6666564941 4.66665649414 -19.3333435059 -25.3333435059 29.3333435059 -38.3333129883 14.6666564941 -51.3333435059 0 -71.3333282471 0 -59.3333435059 -20 -47.3333282471 -40 -54.6666717529 -46 -32 -68.3333435059 -9.33332824707 -90.6666564941 -1.33332824707 -10.6666717529 -0.66667175293 -10.6666564941 0 -10.6666717529 0 -62 16.3333282471 -52.3333435059 32.6666717529 -42.6666564941 rrcurveto
          36.6666564941 -47.3333282471 50.0000152588 -23.6666717529 63.3333282471 0 90 0 70.6666564941 31.3333282471 51.3333435059 62.6666717529 44.6666564941 54.6666717529 28.3333435059 76.3333282471 12 98 0.666687011719 10 0.333312988281 10.3333435059 0 10.6666564941 0 62 -16.6666564941 69 -33.3333435059 76 rrcurveto
          94 0 8 69 -136 0 rlineto
          -26.6666564941 45.3333129883 -28.6666870117 39.3333740234 -30.6666564941 33.3333129883 rrcurveto
          -72 -45 rlineto
          13.3333435059 -12.6666870117 20 -24.3333129883 26.6666564941 -36 rrcurveto
          endchar
        </CharString>
        <CharString name="exclam">
          -306 145 192 rmoveto
          54 514 -85 0 -54 -514 rlineto
          15 -205 rmoveto
          16.6666564941 0 14.5 5.5 12.3333435059 11 12.3333282471 11 7.16667175293 13.5 2 16 1.33332824707 16 -4.33332824707 13.6666564941 -10 11.3333435059 -10 11.3333435059 -13.3333435059 5.66665649414 -16.6666564941 0 -15.3333435059 0 -13.8333282471 -5.66665649414 -12.3333282471 -11.3333435059 -12.3333282471 -11.3333435059 -6.83334350586 -13.6666564941 -1.33332824707 -16 rrcurveto
          -2 -16 4 -13.5 10 -11 10 -11 12.6666717529 -5.5 15.3333282471 0 rrcurveto
          endchar
        </CharString>
        <CharString name="exclamdown">
          -306 89 501 rmoveto
          -64 -604 84 0 64 604 rlineto
          -16 205 rmoveto
          -16 0 -14.1666564941 -5.5 -12.3333435059 -11 -12.3333435059 -11 -6.83331298828 -13.5 -1.33334350586 -16 -2 -16 4 -13.6666870117 10 -11.3333129883 10 -11.3333129883 13 -5.66668701172 16 0 16 0 14.1666717529 5.66668701172 12.3333282471 11.3333129883 12.3333282471 11.3333129883 7.16667175293 13.6666870117 2 16 rrcurveto
          1.33332824707 16 -4.16665649414 13.5 -9.66667175293 11 -9.66667175293 11 -13.1666564941 5.5 -16.6666717529 0 rrcurveto
          endchar
        </CharString>
        <CharString name="f">
          -217 365 651 rmoveto
          -95 callsubr
          endchar
        </CharString>
        <CharString name="fi">
          -57 311 hmoveto
          81 0 52 489 -81 0 rlineto
          2 162 rmoveto
          -95 callsubr
          endchar
        </CharString>
        <CharString name="five">
          222 -34 rmoveto
          76.6666564941 0 64 23.3333282471 51.3333435059 46.6666717529 51.3333435059 46.6666564941 25.6666564941 60.6666717529 0 74.6666717529 0 59.3333435059 -17.5 46.8333129883 -35 34.3333435059 -35 34.3333435059 -46.5 16.8333129883 -58 -0.666656494141 -60.6666717529 -0.666656494141 -43.3333282471 -21.6666870117 -26 -42.6666564941 rrcurveto
          23 213 278 0 9 81 -353 0 -37 -343 60 -32 rlineto
          12.6666717529 24.6666564941 21.6666564941 20 30.6666717529 15.3333435059 25.3333282471 12 23.0000152588 6 20.6666564941 0 36 0 30.8333435059 -15.6666564941 25.6666564941 -31.3333435059 25.6666564941 -31.3333435059 10.5 -37.6666564941 -4.66665649414 -44 -4 -41.3333282471 -18.3333435059 -36.0000152588 -32.6666564941 -30.6666564941 -32.6666564941 -30.6666717529 -38.3333435059 -15.3333282471 -44 0 rrcurveto
          -30 0 -32.3333282471 10.6666717529 -34.6666717529 21.3333282471 -31.3333435059 18.6666564941 -25 21.6666870117 -18.6666564941 24.6666564941 rrcurveto
          -38 -54 rlineto
          14 -26.6666717529 26.8333435059 -24 39.6666564941 -21.3333282471 39.6666717529 -21.3333282471 38.1666564941 -10.6666717529 36.6666717529 0 rrcurveto
          endchar
        </CharString>
        <CharString name="fl">
          -46 407 1 rmoveto
          74 697 -81 0 -8 -12 rlineto
          -22 14 -16.6666564941 8.83331298828 -11.3333435059 3.66668701172 -11.3333435059 3.66668701172 -18.3333129883 1.83331298828 -25.3333435059 0 -56 0 -43.6666717529 -23 -31.3333282471 -46 -22 -32.6666870117 -13.6666564941 -39.3333129883 -5.33334350586 -46 rrcurveto
          -4 -41 -79 0 -7 -66 79 0 -67 -596 78 0 67 597 136 0 7 66 -138 0 rlineto
          0 3.33334350586 1 12.3333129883 2 21.3333435059 4 39.3333129883 10.5 30.6666870117 17 22 17 22 19.8333435059 10.6666870117 22.6666564941 -0.666687011719 33.3333435059 -0.666687011719 23.6666564941 -4.33331298828 14 -8 17.3333435059 -15.3333129883 12.6666564941 -12.3333740234 8 -9.33331298828 rrcurveto
          -64 -601 rlineto
          endchar
        </CharString>
        <CharString name="florin">
          -180 393 610 rmoveto
          48 56 rlineto
          -28.6666564941 20.6666870117 -17 11.6666259766 -5.33334350586 2.66668701172 -15.3333435059 6.66668701172 -22.3333129883 3.33331298828 -29.3333435059 0 -56 -0.666687011719 -45 -22 -34 -43.3333129883 -24 -31.3333129883 -16.6666717529 -38.6666870117 -9.33332824707 -46 rrcurveto
          -8 -41 -79 -1 -13 -66 80 1 -109 -545 78 1 110 546 135 0 13 65 -137 0 rlineto
          0 4.66665649414 2 12.3333435059 4 20 rrcurveto
          1 4 rlineto
          13.3333282471 74 31.6666717529 37 50 0 26 0 27.6666564941 -10.3333129883 29.3333435059 -20.6666870117 rrcurveto
          endchar
        </CharString>
        <CharString name="four">
          349 507 rmoveto
          -31 -291 -197 0 rlineto
          257 -76 rmoveto
          105 0 8 76 -105 0 46 433 -60 0 -346 -433 -8 -76 292 0 -19 -168 69 0 rlineto
          endchar
        </CharString>
        <CharString name="fraction">
          -4 113 66 rmoveto
          420 472 -72 50 -421 -472 rlineto
          endchar
        </CharString>
        <CharString name="g">
          -30 436 62 rmoveto
          46 438 -48 0 rlineto
          -19.3333435059 0 -18 0.833343505859 -16.6666564941 1.66665649414 -16.6666564941 1.66665649414 -24.3333435059 0.833343505859 -32 0 -76.6666717529 0 -62 -30 -47.3333282471 -60 -35.3333435059 -45.3333435059 -23.3333282471 -55.6666564941 -11.3333282471 -66 -3.33332824707 -18 -1.66667175293 -17.6666717529 0 -17.3333282471 0 -58.6666717529 15.6666717529 -47.9999847412 31.3333282471 -37.3333435059 rrcurveto
          34 -40.6666717529 46.6666717529 -20.3333282471 59.3333282471 0 47.3333435059 0 41.6666564941 36.3333282471 36 72.6666717529 rrcurveto
          -14 -99 rlineto
          -7.33334350586 -54 -8.66665649414 -37.3333435059 -10 -20.6666564941 -20.6666564941 -44.6666717529 -34.6666870117 -22.3333282471 -48.6666564941 0 -66 0 -51.3333435059 26.6666717529 -36.6666564941 53.3333282471 rrcurveto
          -48 -56 rlineto
          47.3333282471 -62.6666717529 62.0000152588 -31.3333282471 76.6666564941 0 88 0 62 31.3333282471 36 62.6666717529 24 41.3333435059 17.3333435059 72.3333282471 10.6666564941 103.333328247 rrcurveto
          -40 372 rmoveto
          -18 -145.333343506 -10 -81.8333282471 -2 -18.3333282471 -2 -18.3333282471 -13.3333435059 -24.5 -24.6666564941 -30.6666717529 -30 -36.6666564941 -28.6666564941 -18.3333435059 -27.3333435059 0 -35.3333282471 0 -27.6666717529 15.6666564941 -20 31.3333435059 -16.6666717529 27.3333282471 -8.33332824707 33.6666717529 0 40 0 60.6666564941 13.6666717529 52 27.3333282471 43.3333435059 rrcurveto
          32 51.3333435059 44.6666717529 26 57.3333282471 0.666656494141 29.3333435059 0 29.6666564941 -2.66665649414 30 -5.33334350586 rrcurveto
          endchar
        </CharString>
        <CharString name="germandbls">
          8 295 -15 rmoveto
          44.6666564941 0 41 15.6666717529 37.3333435059 31.3333282471 37.3333435059 31.3333282471 21 37.3333282471 4.66665649414 43.3333435059 4 36.6666717529 -4 29.6666564941 -12 22.6666717529 -10.6666564941 18.6666717529 -20 15.9999847412 -29.3333435059 13.3333435059 -8 3.33334350586 -25.6666564941 8.66665649414 -43.3333435059 14 -32 10.6666564941 -22 9 -12 7.33334350586 rrcurveto
          -17.3333282471 11.3333435059 -7.66667175293 13.6666564941 2 16 2 21.3333435059 9.33332824707 17.6666564941 16.6666717529 14 16.6666564941 14 19 6.33334350586 21.3333435059 -1.33334350586 33.3333435059 -2 31.3333129883 -6.33334350586 29.3333435059 -10.6666564941 25.3333435059 35.3333435059 15 31 4.66665649414 26.6666564941 2.66665649414 12.6666870117 1.33334350586 13 0 13.3333129883 rrcurveto
          0 48 -15.8333435059 37.8333129883 -31.6666564941 27.6666870117 -31.6666564941 27.6666870117 -43.5 13.8333129883 -55.3333435059 0 -134 0 -73.6666564941 -62 -13.3333435059 -124 rrcurveto
          -56 -529 78 0 56 529 rlineto
          4 39.3333129883 14.6666717529 30.3333740234 25.3333282471 21.3333129883 22.6666717529 19.3333129883 29 9.66668701172 35.3333282471 0 29.3333435059 0 26.5 -8 23.6666564941 -16 23.6666564941 -16 10.5 -20.3333129883 -2.66665649414 -24.6666870117 -0.666656494141 -12.6666870117 -0.333343505859 -8.66662597656 0 -4.66668701172 -5.33334350586 -11.3333129883 -5.33331298828 -9 -5.33334350586 -6.66668701172 rrcurveto
          -12.6666564941 2 -13 1 -13.3333435059 0 -41.3333435059 0 -35 -10 -28.6666564941 -20 -38 -26 -22 -41.3333435059 -6 -56.6666564941 -3.33332824707 -32.6666564941 7 -26.3333435059 17.3333282471 -20 13.3333282471 -15.3333435059 21.6666717529 -13.3333282471 30 -11.3333282471 rrcurveto
          78 -25 rlineto
          50 -17.3333282471 23.3333435059 -26 -3.33334350586 -34.6666717529 -2.66665649414 -22 -11.1666870117 -18.6666564941 -19.6666564941 -15.3333435059 -19.6666564941 -15.3333435059 -22.5 -7.66665649414 -25.3333435059 0 -33.3333435059 0 -24.6666564941 3.33332824707 -16 6.66667175293 -20.6666717529 8.66665649414 -18.6666564941 18 -16.6666717529 27.3333435059 rrcurveto
          -49 -65 rlineto
          22 -28 25.3333282471 -19.6666717529 28.6666717529 -11.3333282471 25.3333282471 -9.33332824707 33.3333435059 -4.66667175293 41.3333282471 0 rrcurveto
          endchar
        </CharString>
        <CharString name="grave">
          -212 258 556 rmoveto
          -100 callsubr
          endchar
        </CharString>
        <CharString name="greater">
          -176 99 42 rmoveto
          217 247 -217 240 -75 -3 188 -241 -187 -240 rlineto
          endchar
        </CharString>
        <CharString name="greaterequal">
          -291 90 119 rmoveto
          154 167 -154 162 -70 -3 130 -162 -130 -161 rlineto
          1 -88 rmoveto
          221 40 -221 hlineto
          endchar
        </CharString>
        <CharString name="guillemotleft">
          -151 240 286 rmoveto
          131 162 -71 3 -153 -162 153 -167 71 3 rlineto
          -272 161 rmoveto
          130 162 -70 3 -154 -162 154 -167 70 3 rlineto
          endchar
        </CharString>
        <CharString name="guillemotright">
          -148 215 122 rmoveto
          153 167 -153 162 -71 -3 131 -162 -131 -161 rlineto
          -70 -3 rmoveto
          152 167 -152 162 -72 -3 131 -162 -131 -161 rlineto
          endchar
        </CharString>
        <CharString name="guilsinglleft">
          -222 148 286 rmoveto
          131 162 -71 3 -152 -162 152 -167 71 3 rlineto
          endchar
        </CharString>
        <CharString name="guilsinglright">
          -224 118 122 rmoveto
          153 167 -153 162 -71 -3 130 -162 -130 -161 rlineto
          endchar
        </CharString>
        <CharString name="h">
          -29 334 hmoveto
          78 0 36 338 rlineto
          0.666656494141 6.66665649414 0.333343505859 7 0 7.33334350586 0 44.6666564941 -15 37 -30 29.3333435059 -28 27.3333435059 -34 13.6666564941 -40 0 -25.3333435059 0 -23.3333282471 -5.16665649414 -21.3333282471 -10.3333435059 -21.3333282471 -10.3333435059 -26.6666717529 -18.8333129883 -32 -27.3333435059 rrcurveto
          27 257 -79 0 -74 -696 79 0 36 340 rlineto
          2 20.6666564941 17.3333282471 22.3333435059 32.6666717529 24 32.6666717529 24 31.3333282471 12 30 0 22.6666564941 0 18.6666870117 -7.33334350586 14.6666564941 -14.6666564941 18 -17.3333435059 9 -25 0 -32.6666564941 0 -6.66665649414 -0.333343505859 -7 -0.666656494141 -7.33334350586 rrcurveto
          endchar
        </CharString>
        <CharString name="hungarumlaut">
          -179 218 561 rmoveto
          105 114 -63 0 -105 -114 rlineto
          -60 hmoveto
          105 114 -63 0 -105 -114 rlineto
          endchar
        </CharString>
        <CharString name="hyphen">
          -161 50 267 rmoveto
          280 93 -280 hlineto
          endchar
        </CharString>
        <CharString name="i">
          -308 143 602 rmoveto
          14.6666717529 0 13 5.16668701172 11.3333282471 10.3333129883 11.3333282471 10.3333129883 6.66667175293 13.1666870117 2 16 1.33332824707 15.3333129883 -4 12.8333740234 -9.33332824707 10.3333129883 -9.33332824707 10.3333129883 -11.6666717529 5.16668701172 -14 0 -15.3333282471 0 -13.5000152588 -5.16668701172 -11.6666564941 -10.3333129883 -11.6666564941 -10.3333129883 -6.5 -12.8333740234 -1.33334350586 -15.3333129883 rrcurveto
          -2 -16 3.83334350586 -13.1666870117 9.66665649414 -10.3333129883 9.66665649414 -10.3333129883 12.1666717529 -5.16668701172 14.6666717529 0 rrcurveto
          -110 -602 rmoveto
          81 0 53 495 -81 0 rlineto
          endchar
        </CharString>
        <CharString name="iacute">
          -307 39 hmoveto
          -75 callsubr
          -25 62 rmoveto
          221 90 -40 65 -220 -96 rlineto
          endchar
        </CharString>
        <CharString name="icircumflex">
          -331 39 hmoveto
          -75 callsubr
          51 124 rmoveto
          -80 callsubr
          endchar
        </CharString>
        <CharString name="idieresis">
          -334 43 hmoveto
          80 0 52 495 -80 0 rlineto
          143 51 rmoveto
          -79 callsubr
          -210 hmoveto
          16 0 13 5.33331298828 10 10.6666870117 10 10.6666870117 5.66665649414 12 1.33334350586 13.3333129883 1.33334350586 13.3333129883 -3.16668701172 12 -7.66665649414 10.6666870117 -7.66665649414 10.6666870117 -11.8333435059 5.33331298828 -16 0 -15.3333282471 0 -12.5 -5.33331298828 -9.66667175293 -10.6666870117 -9.66667175293 -10.6666870117 -5.5 -12 -1.33332824707 -13.3333129883 rrcurveto
          -1.33332824707 -13.3333129883 3 -12 7.33332824707 -10.6666870117 7.33332824707 -10.6666870117 11.3333435059 -5.33331298828 15.3333282471 0 rrcurveto
          endchar
        </CharString>
        <CharString name="igrave">
          -292 39 hmoveto
          -75 callsubr
          137 61 rmoveto
          -83 callsubr
          endchar
        </CharString>
        <CharString name="infinity">
          369 264 rmoveto
          39.3333435059 0 35 13.1666564941 30.6666564941 26.3333435059 30.6666564941 26.3333435059 17.3333435059 31.5 4 36.6666564941 4 36.6666564941 -10.6666870117 31.3333435059 -25.3333129883 26 -25.3333435059 26 -32.3333129883 13 -39.3333435059 0 -48.6666564941 0 -40.3333435059 -18.3333129883 -32 -36.6666870117 -24.6666717529 36.6666870117 -36.6666564941 18.3333129883 -48.6666717529 0 rrcurveto
          -40 0 -35.1666564941 -13 -30.3333435059 -26 -30.3333282471 -26 -17.1666717529 -31.3333435059 -4 -36.6666564941 -4 -36.6666564941 10.5 -31.5 25 -26.3333435059 25 -26.3333435059 32.5 -13.1666564941 40 0 48.6666717529 0 40.6666564941 18.6666564941 32.6666717529 37.3333435059 23.3333435059 -37.3333435059 36.3333129883 -18.6666564941 49.3333435059 0 rrcurveto
          23 218 rmoveto
          24.6666564941 0 20 -8 15.3333435059 -16 15.3333435059 -16 6.33331298828 -19.6666564941 -2.66665649414 -23.3333435059 -2.66665649414 -23.3333435059 -10.6666870117 -19.8333129883 -18.6666564941 -16.3333435059 -18.6666564941 -16.3333435059 -21.6666870117 -8.16665649414 -24.6666564941 0 -24 0 -19.8333435059 8.16665649414 -15.6666564941 16.3333435059 -15.6666564941 16.3333435059 -6.5 19.8333129883 2.66665649414 23.3333435059 rrcurveto
          2.66665649414 22.6666564941 10.8333435059 19.5 19 16.3333435059 19 16.3333435059 21.5 8.16665649414 24 0 rrcurveto
          -231 hmoveto
          24.6666717529 0 20 -8 15.3333282471 -16 15.3333282471 -16 6.33334350586 -19.6666564941 -2.66667175293 -23.3333435059 -2.66667175293 -26 -10.8333282471 -20.1666564941 -19 -14.3333435059 -19 -14.3333435059 -21.5 -7.16665649414 -24 0 -23.3333435059 0 -19.6666564941 7.16665649414 -16 14.3333435059 -16 14.3333435059 -6.66667175293 20.1666564941 2.66667175293 26 rrcurveto
          2.66665649414 22.6666564941 10.8333435059 19.5 19 16.3333435059 19 16.3333435059 21.5 8.16665649414 24 0 rrcurveto
          endchar
        </CharString>
        <CharString name="integral">
          -238 315 611 rmoveto
          46 76 rlineto
          -8 4.66668701172 -13.5 5.5 -19 6.33331298828 -19 6.33331298828 -13.8333435059 3.16668701172 -8.66665649414 0 -66 0 -49 -22.3333129883 -32 -44.6666870117 -27.3333435059 -38 -13.6666564941 -52.3333129883 0 -66.6666870117 0 -52.6666564941 11 -77.6666870117 22 -102.666656494 20.6666717529 -95.3333282471 8.66665649414 -62.3333282471 -3.33332824707 -29.3333435059 rrcurveto
          -8 -78 -22.6666564941 -42.3333282471 -37.3333435059 -6.66667175293 -22 -4 -25.3333282471 6.33332824707 -28.6666717529 16.6666717529 rrcurveto
          -28 -82 rlineto
          38.6666717529 -12.6666717529 26.6666564941 -6.33332824707 14.6666717529 0 108.666671753 0 61 64.3333435059 13.3333282471 128.666656494 2 15.3333435059 1 16 0 16.6666564941 0 52 -9.66667175293 73.6666717529 -19.3333282471 95.3333282471 -19.3333282471 95.3333435059 -9.66667175293 63 0 30.6666564941 0 30.6666870117 6 26.3333129883 12 22 rrcurveto
          15.3333282471 26.6666870117 21.6666717529 13.3333129883 28 0 16 0 15.3333435059 -6.33331298828 14.6666564941 -12.6666870117 rrcurveto
          endchar
        </CharString>
        <CharString name="j">
          -308 168 604 rmoveto
          14.6666717529 0 13.1666564941 5.16668701172 11.6666717529 10.3333129883 11.6666717529 10.3333129883 6.83332824707 12.8333740234 2 15.3333129883 1.33332824707 15.3333129883 -4 12.8333740234 -9.33332824707 10.3333129883 -9.33332824707 10.3333129883 -12.3333435059 5.16668701172 -15.3333282471 0 -14.6666717529 0 -13.1666564941 -5.16668701172 -11.6666717529 -10.3333129883 -11.6666564941 -10.3333129883 -6.5 -12.8333740234 -1.33334350586 -15.3333129883 rrcurveto
          -2 -15.3333129883 3.83334350586 -12.8333740234 9.66665649414 -10.3333129883 9.66667175293 -10.3333129883 12.1666564941 -5.16668701172 14.6666717529 0 rrcurveto
          -148 -713 rmoveto
          12.6666717529 8.66665649414 9.33332824707 13.3333435059 6 18 2.66667175293 10 2.66665649414 16 2.66667175293 22 rrcurveto
          54 516 79 0 -43 -405 -16 -155 rlineto
          -5.33334350586 -44 -22.3333129883 -35.6666717529 -39.3333435059 -27.3333282471 -24 -16.6666717529 -31 -15.3333282471 -38 -14 rrcurveto
          -24 75 rlineto
          28.6666717529 8 24.6666564941 11.3333435059 20.6666717529 14.6666564941 rrcurveto
          endchar
        </CharString>
        <CharString name="k">
          -65 357 -25 rmoveto
          74 43 -208 254 220 203 -63 46 -244 -245 44 421 -79 0 -74 -697 79 0 21 192 37 34 rlineto
          endchar
        </CharString>
        <CharString name="l">
          -307 119 hmoveto
          74 698 -78 0 -74 -698 rlineto
          endchar
        </CharString>
        <CharString name="less">
          -175 132 285 rmoveto
          187 241 -74 3 -218 -240 219 -247 73 3 rlineto
          endchar
        </CharString>
        <CharString name="lessequal">
          -291 112 283 rmoveto
          132 162 -72 3 -153 -162 153 -167 72 3 rlineto
          -223 -88 rmoveto
          221 40 -221 hlineto
          endchar
        </CharString>
        <CharString name="logicalnot">
          72 474 28 rmoveto
          84 315 -470 -93 386 hlineto
          endchar
        </CharString>
        <CharString name="lozenge">
          35 275 85 rmoveto
          254 248 -254 249 -255 -249 rlineto
          258 152 rmoveto
          156 -153 -156 -152 -156 152 rlineto
          endchar
        </CharString>
        <CharString name="lslash">
          -259 170 362 rmoveto
          82 39 8 78 -80 -39 21 202 -88 0 -26 -247 -67 -32 -9 -78 67 32 -33 -317 88 0 rlineto
          endchar
        </CharString>
        <CharString name="m">
          235 607 hmoveto
          79 0 37 351 rlineto
          4 40 -10 36.3333435059 -24 32.6666564941 -26 34.6666564941 -34.3333129883 17.3333435059 -42.6666870117 0 -49.3333129883 0 -56.0000305176 -32 -62.6666564941 -64 -8.66665649414 27.3333435059 -14.6666870117 22 -20.6666564941 16.6666564941 -20.6666564941 16.6666564941 -23 8.33334350586 -25.3333435059 0 -42.6666564941 0 -49.6666717529 -27.3333435059 -56.6666717529 -54.6666564941 rrcurveto
          7 70 -79 0 -52 -495 79 0 35 331 rlineto
          2.66667175293 24 16.5 24.5 30.3333282471 25 30.3333282471 25 28.8333282471 12.5 27.3333435059 0 22.6666564941 0 18 -7 13.3333435059 -14 15.3333435059 -16 6 -23.3333435059 -3.33334350586 -30.6666564941 rrcurveto
          -37 -351 78 0 34 322 rlineto
          3.33334350586 34 20 29.6666564941 36.6666564941 25.3333435059 30 21.3333435059 24.3333129883 10.6666564941 18.6666870117 0 58.6666870117 0 26 -32.3333435059 -6.66668701172 -64.6666564941 rrcurveto
          endchar
        </CharString>
        <CharString name="macron">
          -135 102 594 rmoveto
          234 0 6 65 -234 0 rlineto
          endchar
        </CharString>
        <CharString name="minus">
          -43 52 285 rmoveto
          394 63 -394 hlineto
          endchar
        </CharString>
        <CharString name="mu">
          -33 422 -61 rmoveto
          69 48 rlineto
          -4.66665649414 5.33332824707 -8.33334350586 6.66667175293 -12 8 -7.33334350586 5.33332824707 -6.66665649414 10.3333435059 -6 15.3333282471 -8.66665649414 20 -2.33334350586 26 4 32 rrcurveto
          39 371 -80 0 -36 -338 rlineto
          -2 -22 -13 -22 -24 -22 -24.6666564941 -24 -25.3333435059 -12 -26 0 -77.3333282471 0 -35.3333435059 32.3333435059 6.66667175293 64.6666564941 rrcurveto
          36 342 -73 0 -72 -682 73 0 24 225 rlineto
          6.66667175293 -16 13 -12.6666717529 19.3333282471 -9.33332824707 17.3333282471 -8.66667175293 18.3333435059 -4.33332824707 19.3333282471 0 22 0 20.6666564941 7.33332824707 19.3333435059 14.6666717529 rrcurveto
          70 61 rlineto
          3.33334350586 -56 22.3333129883 -40.6666717529 41.3333435059 -25.3333282471 rrcurveto
          endchar
        </CharString>
        <CharString name="n">
          -29 344 hmoveto
          78 0 36 338 rlineto
          0.666656494141 6.66665649414 0.333343505859 6.66668701172 0 6.66665649414 0 44.6666564941 -15.3333435059 37.3333435059 -30.6666564941 30 -28 27.3333435059 -33.3333435059 13.6666564941 -38.6666564941 0 -26 0 -23.6666564941 -5.16665649414 -21.3333435059 -10.3333435059 -21.3333282471 -10.3333435059 -27 -18.8333129883 -32.6666717529 -27.3333435059 rrcurveto
          6 56 -79 0 -52 -495 79 0 35 328 rlineto
          3.33332824707 30.6666564941 19.6666717529 27.6666870117 36 24.6666564941 32 21.3333435059 29.3333435059 10.6666564941 26.6666564941 0 22.6666564941 0 18.6666870117 -7.33334350586 14.6666564941 -14.6666564941 18 -17.3333435059 9 -25 0 -32.6666564941 0 -6.66665649414 -0.666656494141 -7 -1.33334350586 -7.33334350586 rrcurveto
          endchar
        </CharString>
        <CharString name="nine">
          290 586 rmoveto
          45.3333435059 0 35.6666564941 -15 26 -30 23.3333435059 -26.6666870117 11.6666564941 -33.6666564941 0 -40.6666564941 0 -48.6666564941 -16.1666564941 -39.6666870117 -32.3333435059 -30.6666564941 -32.3333435059 -30.6666564941 -40.8333129883 -15.3333435059 -49.3333435059 0 -40 0 -31 16.3333435059 -22 32.6666564941 -20 29.3333435059 -7.66667175293 34.6666564941 4.66667175293 40 rrcurveto
          4 40.6666564941 14.3333282471 35.3333435059 24.6666717529 30 28 34.6666870117 34 17.3333129883 40 0 rrcurveto
          -67 -622 rmoveto
          95.3333435059 0 73.3333129883 47.6666717529 51.3333435059 95.3333282471 36 66.6666717529 23.6666564941 86.3333282471 11.3333435059 106 2 16 1 15.3333435059 0 14.6666564941 0 80 -24 61.3333129883 -48 42.6666870117 -40 36 -49.6666564941 18 -59.3333435059 0 -68.6666717529 0 -56 -25 -43.3333282471 -50 rrcurveto
          -41.3333435059 -47.3333129883 -20.6666564941 -58.6666870117 0 -70 0 -53.3333435059 16 -44.3333129883 32 -35.3333435059 34 -37.3333282471 45.6666717529 -19 57.3333282471 -0.66667175293 43.3333435059 -0.66667175293 36 9.33334350586 28.6666564941 19.3333282471 22 14.6666717529 25 27.6666717529 28 40.6666564941 -9.33334350586 -75.3333282471 -18.6666564941 -63.3333435059 -28 -51.3333282471 rrcurveto
          -36 -66.6666717529 -46.6666564941 -33.3333282471 -57.3333435059 0 -68.6666717529 0 -56.6666717529 22 -44.6666564941 44 rrcurveto
          -37 -61 rlineto
          46 -47.3333282471 64 -23.6666717529 82 0 rrcurveto
          endchar
        </CharString>
        <CharString name="nonbreakingspace">
          -268 endchar
        </CharString>
        <CharString name="nonmarkingreturn">
          -268 endchar
        </CharString>
        <CharString name="notequal">
          -100 134 -15 rmoveto
          68 150 174 0 7 65 -152 0 39 87 122 0 7 65 -99 0 72 161 -59 21 -82 -182 -170 0 -7 -65 147 0 -39 -87 rlineto
          -117 0 -7 -65 95 0 -58 -129 rlineto
          endchar
        </CharString>
        <CharString name="ntilde">
          -55 340 hmoveto
          79 0 36 338 rlineto
          0.666656494141 6.66665649414 0.333343505859 6.66668701172 0 6.66665649414 0 44.6666564941 -15.3333435059 37.3333435059 -30.6666564941 30 -28.6666564941 27.3333435059 -33.6666870117 13.6666564941 -38.6666564941 0 -26 0 -23.6666564941 -5.16665649414 -21.3333435059 -10.3333435059 -21.3333282471 -10.3333435059 -27 -18.8333129883 -32.6666717529 -27.3333435059 rrcurveto
          6 56 -79 0 -52 -495 79 0 34 328 rlineto
          3.33332824707 30.6666564941 19.6666717529 27.6666870117 36 24.6666564941 32 21.3333435059 29.6666564941 10.6666564941 27.3333435059 0 22 0 18.6666564941 -7.33334350586 15.3333435059 -14.6666564941 17.3333435059 -17.3333435059 8.66665649414 -25 0 -32.6666564941 0 -6.66665649414 -0.333343505859 -7 -0.666656494141 -7.33334350586 rrcurveto
          -19 224 rmoveto
          8 0 13 3.66668701172 18 7.33331298828 18 7.33331298828 12.6666564941 7.33337402344 7.33334350586 7.33331298828 rrcurveto
          -19 60 rlineto
          -20 -16.6666870117 -17.6666564941 -8.33331298828 -15.3333435059 0 -13.3333435059 0 -19.8333129883 11.5 -26.3333435059 23 -26.3333435059 23 -22.4999847412 11.1666870117 -18.6666717529 -0.666687011719 -16 -0.666687011719 -17.6666717529 -5 -19.3333282471 -9.33331298828 -21.3333282471 -9.33331298828 -16 -11.6666870117 -10.6666717529 -14 rrcurveto
          20 -59 rlineto
          23.3333282471 28 24.6666717529 14 26 0 10.6666717529 0 19.4999847412 -11.5 28.3333435059 -23 28.3333435059 -23 23.5 -11.5 18.6666564941 0 rrcurveto
          endchar
        </CharString>
        <CharString name="numbersign">
          452 560 rmoveto
          6 52 -81 -9 10 77 -59 -8 -8 -75 -82 -8 9 75 -57 -6 -8 -75 -103 -11 -6 -52 102 11 -8 -79 -103 -11 -6 -52 rlineto
          103 11 -11 -97 58 6 11 97 81 9 -11 -97 57 6 11 97 80 8 6 52 -80 -8 8 78 rlineto
          -138 -14 rmoveto
          81 8 -9 -78 -81 -9 rlineto
          endchar
        </CharString>
        <CharString name="o">
          5 247 -11 rmoveto
          82 0 65.6666564941 33.3333282471 49.3333435059 66.6666717529 36 49.3333282471 21 54.3333435059 6 59.3333282471 1.33334350586 13.3333435059 0.666656494141 13 0 12.6666564941 0 73.3333435059 -22.3333435059 56.6666564941 -44.6666564941 40 -38 34 -46 17 -54 0 -60 0 -54.3333282471 -19.6666564941 -48.6666717529 -39.3333435059 rrcurveto
          -58.6666564941 -48 -34.0000152588 -67 -9.33332824707 -86 -1.33332824707 -12.6666717529 -0.66667175293 -13 0 -13.3333282471 0 -59.3333282471 13 -48.3333282471 26 -37.3333435059 35.3333435059 -52.6666717529 56.9999847412 -26.3333282471 78.6666717529 0 rrcurveto
          55 456 rmoveto
          -94 callsubr
          endchar
        </CharString>
        <CharString name="oacute">
          2 242 -11 rmoveto
          82 0 65.6666564941 33.3333282471 49.3333435059 66.6666717529 36 49.3333282471 21.3333435059 54.3333435059 6.66665649414 59.3333282471 1.33334350586 13.3333435059 0.666656494141 13 0 12.6666564941 0 73.3333435059 -22.6666564941 56.6666564941 -45.3333435059 40 -38.6666564941 34 -46 17 -53.3333435059 0 -60 0 -54.3333282471 -19.6666564941 -48.6666717529 -39.3333435059 rrcurveto
          -59.3333435059 -48 -33.9999847412 -67 -8.66667175293 -86 -1.33332824707 -12.6666717529 -0.66667175293 -12.6666564941 0 -12.6666717529 0 -59.3333282471 12.6666717529 -48.6666717529 25.3333282471 -38 35.3333435059 -52.6666717529 57.3333282471 -26.3333282471 79.3333282471 0 rrcurveto
          54 456 rmoveto
          -73 callsubr
          -49 112 rmoveto
          -85 callsubr
          endchar
        </CharString>
        <CharString name="ocircumflex">
          2 242 -11 rmoveto
          -74 callsubr
          54 456 rmoveto
          41.3333435059 0 31 -16 20.6666564941 -32 18.6666564941 -28 9.33334350586 -37 0 -46 0 -60 -13.3333435059 -51.6666717529 -26.6666564941 -43.3333282471 -32 -51.3333435059 -44 -25.6666564941 -56 0 -43.3333282471 0 -32.6666717529 16 -22 32 -20 28 -10 37 0 46 rrcurveto
          0 60.6666564941 14 52 28 43.3333435059 33.3333282471 50.6666564941 45.6666717529 25.3333435059 58 0 rrcurveto
          16 174 rmoveto
          132 -93 7 71 -130 113 -149 -113 -7 -71 rlineto
          endchar
        </CharString>
        <CharString name="odieresis">
          2 245 -11 rmoveto
          82 0 65.6666564941 33.3333282471 49.3333435059 66.6666717529 36 49.3333282471 21.3333435059 54.3333435059 6.66665649414 59.3333282471 1.33334350586 13.3333435059 0.666656494141 13 0 12.6666564941 0 73.3333435059 -22.6666564941 56.6666564941 -45.3333435059 40 -38 34 -46 17 -54 0 -60 0 -54.3333282471 -19.6666564941 -48.6666717529 -39.3333435059 rrcurveto
          -59.3333435059 -48 -33.9999847412 -67 -8.66667175293 -86 -1.33332824707 -12.6666717529 -0.66667175293 -12.6666564941 0 -12.6666717529 0 -59.3333282471 12.6666717529 -48.6666717529 25.3333282471 -38 36 -52.6666717529 57.3333282471 -26.3333282471 78.6666717529 0 rrcurveto
          54 456 rmoveto
          41.3333435059 0 31.3333129883 -16 21.3333435059 -32 18.6666564941 -28 9.33334350586 -37 0 -46 0 -60 -13.6666564941 -51.6666717529 -27.3333435059 -43.3333282471 -31.3333435059 -51.3333435059 -44 -25.6666564941 -56.6666564941 0 -43.3333282471 0 -32.6666717529 16 -22 32 -20 28 -10 37 0 46 rrcurveto
          0 60.6666564941 14.3333282471 52 28.6666717529 43.3333435059 32.6666717529 50.6666564941 45.3333282471 25.3333435059 58 0 rrcurveto
          111 101 rmoveto
          15.3333435059 0 12.6666564941 5.33331298828 10 10.6666870117 10 10.6666870117 6 12 2 13.3333129883 1.33334350586 12.6666870117 -3.33334350586 11.8333129883 -8 11 -8 11 -11.6666564941 5.5 -15.3333435059 0 -16 0 -12.8333435059 -5.33331298828 -9.66665649414 -10.6666870117 -9.66665649414 -10.6666870117 -5.5 -12 -1.33334350586 -13.3333129883 rrcurveto
          -2 -13.3333129883 2.83334350586 -12 7.66665649414 -10.6666870117 7.66665649414 -10.6666870117 11.8333435059 -5.33331298828 16 0 rrcurveto
          -209 hmoveto
          15.3333282471 0 13 5.66668701172 10.6666717529 11.3333129883 8.66667175293 10 5.33332824707 11.6666870117 2 13.3333129883 1.33334350586 13.3333129883 -3.16667175293 12 -7.66667175293 10.6666870117 -7.66667175293 10.6666870117 -11.5 5.33331298828 -15.3333282471 0 -16 0 -12.8333282471 -5.33331298828 -9.66667175293 -10.6666870117 -9.66667175293 -10.6666870117 -5.5 -12 -1.33332824707 -13.3333129883 rrcurveto
          -2 -13.3333129883 2.83332824707 -12 7.66667175293 -10.6666870117 7.66667175293 -10.6666870117 11.8333282471 -5.33331298828 16 0 rrcurveto
          endchar
        </CharString>
        <CharString name="oe">
          390 302 445 rmoveto
          -94 callsubr
          263 -188 rmoveto
          330 0 6 61 rlineto
          1.33331298828 9.33334350586 0.666687011719 9 0 8.66665649414 0 51.3333435059 -16.3333129883 40.3333129883 -32.6666870117 29.3333435059 -29.3333129883 27.3333435059 -37.6666870117 13.6666564941 -46 0 -55.3333129883 0 -48.1666870117 -14.3333435059 -41 -28.6666564941 -41 -28.6666564941 -30.8333129883 -38.6666870117 -20.6666870117 -48.6666564941 -10.6666564941 54.6666564941 -26 42 -41.3333435059 29.3333435059 rrcurveto
          -36 25.3333435059 -40.6666564941 12.6666564941 -45.3333435059 0 -60 0 -54.3333282471 -19.6666564941 -48.6666717529 -39.3333435059 -58.6666564941 -48 -34.0000152588 -67 -9.33332824707 -86 -1.33332824707 -12.6666717529 -0.66667175293 -13 0 -13.3333282471 0 -59.3333282471 13 -48.3333282471 26 -37.3333435059 35.3333435059 -52.6666717529 56.9999847412 -26.3333282471 78.6666717529 0 rrcurveto
          107.333343506 0 78 54.6666717529 48.6666564941 109.333328247 16.6666564941 -110 67.0000305176 -55 117.333312988 0 65.3333129883 0 62 25.3333282471 58.6666870117 50.6666717529 rrcurveto
          -34 56 rlineto
          -52.6666870117 -42.6666564941 -46 -21.3333435059 -39.3333129883 0 -23.3333129883 0 -22 5 -20.6666870117 10 -26.6666870117 12.6666564941 -18 18 -9.33331298828 23.3333435059 -13.3333129883 31.3333282471 -3.66668701172 44 6 56.6666717529 rrcurveto
          259 75 rmoveto
          -2 -12 -244 0 rlineto
          16.6666870117 47.3333435059 22.3333129883 33.3333129883 28 19.3333435059 20.6666870117 14 27.3333129883 7 34 0 72 0 32.3333129883 -36.3333435059 -7.33331298828 -72.6666564941 rrcurveto
          endchar
        </CharString>
        <CharString name="ograve">
          2 242 -11 rmoveto
          -74 callsubr
          54 456 rmoveto
          -73 callsubr
          113 111 rmoveto
          -100 callsubr
          endchar
        </CharString>
        <CharString name="one">
          -58 269 hmoveto
          68 637 -227 0 -7 -60 138 0 -61 -577 rlineto
          endchar
        </CharString>
        <CharString name="oslash">
          5 160 92 rmoveto
          -25.3333282471 28.6666564941 -12.6666717529 40.3333435059 0 52 0 60.6666564941 14.3333282471 52 28.6666717529 43.3333435059 32.6666717529 50.6666564941 45.3333282471 25.3333435059 58 0 rrcurveto
          3 hlineto
          74 -29 rmoveto
          30 -27.3333435059 15 -43.3333129883 0 -59.3333435059 0 -59.3333282471 -13.6666564941 -51.6666717529 -27.3333435059 -44 -31.3333435059 -51.3333435059 -44 -25.6666564941 -56.6666564941 0 -9.33332824707 0 -6.66667175293 0.33332824707 -4 0.66667175293 rrcurveto
          129 523 rmoveto
          -28 -68 rlineto
          -12 1.33334350586 -9.33334350586 0.666656494141 -6.66665649414 0 -59.3333282471 0 -54 -19.6666564941 -48.6666717529 -39.3333435059 -59.3333435059 -48 -33.9999847412 -67 -8.66667175293 -86 -1.33332824707 -12.6666717529 -0.66667175293 -13 0 -13.3333282471 0 -94 30.6666564941 -65.3333282471 61.3333435059 -36.6666717529 rrcurveto
          -26 -62 76 -24 25 61 rlineto
          12.6666717529 -2 14.3333282471 -1 16 0 82 0 65.3333435059 33.3333282471 48.6666564941 66.6666717529 36 49.3333282471 21.3333435059 54.3333435059 6.66665649414 59.3333282471 1.33334350586 13.3333435059 0.666656494141 13.3333129883 0 13.3333435059 0 91.3333435059 -34 64.6666564941 -68 38 rrcurveto
          28 68 rlineto
          endchar
        </CharString>
        <CharString name="otilde">
          2 243 -11 rmoveto
          82.6666564941 0 65.6666870117 33.3333282471 48.6666564941 66.6666717529 36.6666564941 49.3333282471 21.3333435059 54.3333435059 6 59.3333282471 1.33334350586 13.3333435059 0.666656494141 13 0 12.6666564941 0 73.3333435059 -22.6666564941 56.6666564941 -45.3333435059 40 -38 34 -45.6666564941 17 -53.3333435059 0 -60.6666717529 0 -54.6666564941 -19.6666564941 -48.6666717529 -39.3333435059 rrcurveto
          -58.6666564941 -48 -34.0000152588 -67 -9.33332824707 -86 -1.33332824707 -12.6666717529 -0.66667175293 -12.6666564941 0 -12.6666717529 0 -59.3333282471 13 -48.6666717529 26 -38 35.3333435059 -52.6666717529 56.9999847412 -26.3333282471 78.6666717529 0 rrcurveto
          54 456 rmoveto
          41.3333435059 0 31.3333129883 -16 21.3333435059 -32 18.6666564941 -28 9.33334350586 -37 0 -46 0 -60 -13.6666564941 -51.6666717529 -27.3333435059 -43.3333282471 -31.3333435059 -51.3333435059 -44 -25.6666564941 -56.6666564941 0 -42.6666717529 0 -32.6666564941 16 -22.6666717529 32 -19.3333282471 28 -9.66667175293 37 0 46 rrcurveto
          0 60.6666564941 14 52 28 43.3333435059 32.6666717529 50.6666564941 45.3333282471 25.3333435059 58 0 rrcurveto
          89 104 rmoveto
          8.66665649414 0 13.5 3.66668701172 18.3333435059 7.33331298828 18.3333435059 7.33331298828 12.5 7.33337402344 6.66665649414 7.33331298828 rrcurveto
          -20 60 rlineto
          -18 -16.6666870117 -17.3333435059 -8.33331298828 -16.6666564941 0 -13.3333435059 0 -19.8333129883 11.5 -26.3333435059 23 -26.3333435059 23 -22.1666564941 11.1666870117 -18 -0.666687011719 -16.6666717529 -0.666687011719 -18 -5 -19.3333282471 -9.33331298828 -21.3333282471 -9.33331298828 -16 -11.6666870117 -10.6666717529 -14 rrcurveto
          20 -59 rlineto
          24 28 25 14 26 0 10 0 19.1666564941 -11.5 28.3333435059 -23 28.3333435059 -23 23.1666564941 -11.5 18 0 rrcurveto
          endchar
        </CharString>
        <CharString name="p">
          -24 240 -13 rmoveto
          84.6666564941 0 65.3333435059 35.3333282471 46 70.6666717529 38.6666564941 60 19.3333435059 74 0 88 0 131.333343506 -65.6666564941 65.6666564941 -131.333343506 0 -34 0 -41.3333282471 -21.3333435059 -48.6666717529 -42.6666564941 rrcurveto
          5 47 -79 0 -74 -692 79 0 26 241 rlineto
          31.3333282471 -38 36.6666717529 -19 42 0 rrcurveto
          48 458 rmoveto
          78 39 -49.6666564941 -99.3333435059 hvcurveto
          0 -13.3333435059 -0.666656494141 -14.3333129883 -1.33334350586 -15.3333435059 -4.66665649414 -47.3333282471 -14.3333435059 -43 -24 -38.6666717529 -29.3333435059 -46.6666564941 -36 -23.3333435059 -42.6666564941 0 -40 0 -38.6666717529 15.6666564941 -37.3333282471 31.3333435059 rrcurveto
          28 263 rlineto
          8.66667175293 22.6666564941 16.8333282471 19.1666870117 25 15.6666564941 25 15.6666564941 24.5 7.83334350586 24 0 rrcurveto
          endchar
        </CharString>
        <CharString name="paragraph">
          -34 437 hmoveto
          642 -69 -642 vlineto
          -71 hmoveto
          642 -91 vlineto
          -54 0 -39 -10.6666870117 -24 -21.3333129883 -26 -23.3333129883 -13 -39 0 -54.6666870117 -0.66667175293 -104 51.0000152588 -52 102.666656494 0 rrcurveto
          25 -337 hlineto
          endchar
        </CharString>
        <CharString name="parenleft">
          -223 125 -138 rmoveto
          69 30 rlineto
          -24 84 -15.3333282471 57.3333282471 -6.66667175293 30.6666717529 -13.3333282471 60 -6.66667175293 57.6666717529 0 55.3333282471 0 28 1.66667175293 28.6666564941 3.33332824707 29.3333435059 13.3333282471 125.333343506 50 143.333343506 86.6666717529 161.333312988 rrcurveto
          -60 30 rlineto
          -56.6666717529 -78.6666870117 -44.3333282471 -86.6666259766 -32 -94.6666870117 -32.6666717529 -97.3333435059 -16.3333282471 -95.6666564941 0 -94 0 -131.333343506 28 -124.666656494 56 -118 rrcurveto
          endchar
        </CharString>
        <CharString name="parenright">
          -225 96 -138 rmoveto
          118.666671753 173.333328247 59.3333282471 186.666671753 0 200 0 134 -26.6666717529 120.333312988 -53.3333282471 106.666687012 rrcurveto
          -67 -30 rlineto
          42 -128 21 -116 0 -104 0 -28.6666564941 -1.33332824707 -28.6666870117 -2.66667175293 -28.6666564941 -8 -74.6666717529 -18.6666717529 -73.6666564941 -29.3333282471 -72.6666717529 -13.3333435059 -33.3333435059 -32.6666564941 -68.6666564941 -52 -104 rrcurveto
          endchar
        </CharString>
        <CharString name="partialdiff">
          11 232 -17 rmoveto
          89.3333435059 0 67 29.6666717529 44.6666564941 59.3333282471 38 50 24.3333435059 74.6666717529 10.6666564941 99.3333282471 4 38 2 34.6666564941 0 31.3333435059 0 119.333312988 -29 82 -58 44.6666870117 -38.6666564941 29.3333129883 -56.6666870117 14.6666870117 -74.6666564941 0 -47.3333282471 0 -47.6666717529 -6.66668701172 -48 -13.3333129883 rrcurveto
          14 -78 rlineto
          46.6666717529 19.3333129883 47 9.66668701172 47.3333282471 0 50.6666564941 0 38.6666870117 -10.3333129883 26.6666564941 -20.6666870117 17.3333435059 -13.3333129883 13.3333129883 -23 9.33334350586 -32.6666870117 8 -25.3333435059 4 -25 0 -24.6666564941 -14 14.6666564941 -20.1666564941 12.3333435059 -26.3333435059 10 -26.3333435059 10 -26.8333129883 5 -27.3333435059 0 rrcurveto
          -70 0 -57.3333282471 -20 -44.6666717529 -40 -50.6666564941 -45.3333435059 -30.0000152588 -68.3333129883 -9.33332824707 -91.3333435059 -0.66667175293 -10 -0.33332824707 -10 0 -10 0 -60.6666717529 16.3333282471 -50.6666717529 32.6666717529 -40.6666564941 36.6666564941 -45.3333282471 50.6666717529 -22.6666717529 64.6666717529 0 rrcurveto
          200 367 rmoveto
          1.33334350586 -29.3333435059 -1 -29.3333129883 -3.33334350586 -29.3333435059 -14.6666564941 -140 -59.6666870117 -70 -104.666656494 0 -41.3333282471 0 -32.3333435059 16.3333435059 -23.3333282471 32.6666564941 -22 30 -11 38.6666717529 0 47.3333282471 0 9.33332824707 0.333343505859 9.66667175293 0.666656494141 10 6.66665649414 60 17.8333435059 47.3333435059 29 34.6666564941 rrcurveto
          29 34.6666564941 37.5 17.3333435059 46 0 59.3333435059 0 48.3333129883 -30 37.3333435059 -60 rrcurveto
          endchar
        </CharString>
        <CharString name="percent">
          142 410 rmoveto
          -107 callsubr
          -74 -488 rmoveto
          -106 callsubr
          373 51 rmoveto
          32.6666564941 0 27.5 10.5 22.3333435059 21 22.3333435059 21 13.5 30.8333435059 4.66665649414 40.6666564941 3.33334350586 35.3333282471 -7.5 29.1666717529 -18.3333435059 23 -18.3333435059 23 -24.5 11.5 -30.6666564941 0 -32 0 -27.6666564941 -11.5 -23.3333435059 -23 -23.3333435059 -23 -13.3333129883 -29.1666717529 -3.33334350586 -35.3333282471 rrcurveto
          -1.33334350586 -7.33334350586 -0.666656494141 -7.33331298828 0 -7.33334350586 0 -68 32.6666564941 -34 65.3333435059 0 rrcurveto
          -209 596 rmoveto
          -105 callsubr
          228 -408 rmoveto
          11.3333435059 0 9.66665649414 -5 8 -10 10 -12.6666717529 3.66665649414 -17.6666564941 -2.66665649414 -22.6666717529 -2 -22 -7.33334350586 -17 -12.6666564941 -12 -9.33334350586 -8.66667175293 -10.3333129883 -4.33332824707 -11.3333435059 0 -11.3333435059 0 -9.33331298828 4.33332824707 -7.33334350586 8.66667175293 -10 11.3333435059 -4 17 2 22.6666564941 rrcurveto
          2.66665649414 22.6666717529 7.33334350586 17.6666564941 12 12.6666717529 10 10 10.3333435059 5 10.6666564941 0 rrcurveto
          endchar
        </CharString>
        <CharString name="period">
          -308 120 -9 rmoveto
          18 0 16.3333282471 7 14.6666717529 14 14.6666717529 14 8.33332824707 17.3333282471 2 20.6666717529 2 20.6666564941 -4.66667175293 17.3333435059 -11.3333282471 14 -11.3333282471 14 -14.6666717529 7 -18 0 -18 0 -16.5 -7 -15 -14 -15 -14 -8.5 -17.3333435059 -2 -20.6666564941 rrcurveto
          -2 -20.6666717529 4.83332824707 -17.3333282471 11.6666717529 -14 11.6666564941 -14 14.8333435059 -7 18 0 rrcurveto
          endchar
        </CharString>
        <CharString name="periodcentered">
          -305 120 334 rmoveto
          18 0 16.3333282471 7.66665649414 14.6666717529 15.3333435059 14.6666717529 15.3333435059 8.33332824707 18.6666564941 2 22 2.66667175293 22 -4.33334350586 18.6666564941 -11.3333282471 15.3333435059 -11.3333282471 15.3333435059 -15 7.66665649414 -18.6666717529 0 -18 0 -16.3333435059 -7.66665649414 -14.6666564941 -15.3333435059 -14.6666564941 -15.3333435059 -8.66667175293 -18.6666564941 -2.66667175293 -22 rrcurveto
          -2 -22 4.66667175293 -18.6666564941 11.3333282471 -15.3333435059 11.3333435059 -15.3333435059 15 -7.66665649414 18.6666564941 0 rrcurveto
          endchar
        </CharString>
        <CharString name="perthousand">
          345 703 -6 rmoveto
          32 0 27 10.1666717529 22 20.3333282471 22 20.3333282471 13 30.1666717529 4 40 3.33331298828 34.6666717529 -7.16662597656 28.5 -17.6666870117 22.3333282471 -17.6666870117 22.3333282471 -24.5 11.1666717529 -31.3333129883 0 -30.6666870117 0 -26.8333129883 -11.1666717529 -23 -22.3333282471 -23 -22.3333282471 -13.1666870117 -28.5 -3.33331298828 -34.6666717529 rrcurveto
          -0.666687011719 -7.33334350586 -0.333312988281 -6.66665649414 0 -6 0 -67.3333282471 32 -33.6666717529 64 0 rrcurveto
          -561 416 rmoveto
          -107 callsubr
          284 -416 rmoveto
          32 0 27 10.1666717529 22 20.3333282471 22 20.3333282471 13 30.1666717529 4 40 3.33331298828 34.6666717529 -7.16662597656 28.5 -17.6666870117 22.3333282471 -17.6666564941 22.3333282471 -24.5 11.1666717529 -31.3333435059 0 -30.6666564941 0 -26.8333435059 -11.1666717529 -23 -22.3333282471 -23 -22.3333282471 -13.1666564941 -28.5 -3.33334350586 -34.6666717529 rrcurveto
          -0.666656494141 -7.33334350586 -0.333343505859 -6.66665649414 0 -6 0 -67.3333282471 32 -33.6666717529 64 0 rrcurveto
          -358 -72 rmoveto
          -106 callsubr
          725 231 rmoveto
          10.6666870117 0 9.33331298828 -5 8 -10 10 -12 4 -17 -2 -22 -2.66668701172 -22 -6.83331298828 -16.1666564941 -11 -10.3333435059 -11 -10.3333282471 -10.8333129883 -5.16667175293 -10.6666870117 0 -11.3333129883 0 -10 5.16667175293 -8.66668701172 10.3333282471 -8.66668701172 10.3333435059 -3 16.1666564941 2.66668701172 22 rrcurveto
          2 22 7 17 12 12 10 10 10.3333129883 5 10.6666870117 0 rrcurveto
          -561 416 rmoveto
          -105 callsubr
          284 -416 rmoveto
          10.6666564941 0 9.33334350586 -5 8 -10 10 -12 4 -17 -2 -22 -2.66665649414 -22 -6.83334350586 -16.1666564941 -11 -10.3333435059 -11 -10.3333282471 -10.8333435059 -5.16667175293 -10.6666564941 0 -11.3333435059 0 -10 5.16667175293 -8.66665649414 10.3333282471 -8.66665649414 10.3333435059 -3 16.1666564941 2.66665649414 22 rrcurveto
          2 22 7 17 12 12 10 10 10.3333435059 5 10.6666564941 0 rrcurveto
          endchar
        </CharString>
        <CharString name="pi">
          -23 347 hmoveto
          88 0 54 508 -393 0 -7 -66 40 0 -47 -442 88 0 47 442 177 0 rlineto
          endchar
        </CharString>
        <CharString name="plus">
          -43 279 282 rmoveto
          167 63 -167 176 -61 -176 -165 -63 165 -186 61 hlineto
          endchar
        </CharString>
        <CharString name="plusminus">
          -40 279 280 rmoveto
          167 62 -167 175 -62 -175 -164 -62 hlineto
          164 -1 0 -184 62 0 rlineto
          -213 -83 rmoveto
          374 54 -374 hlineto
          endchar
        </CharString>
        <CharString name="product">
          54 477 hmoveto
          68 642 -388 0 -68 -642 95 0 60 562 197 0 -60 -562 rlineto
          endchar
        </CharString>
        <CharString name="q">
          -30 330 -197 rmoveto
          80 0 74 692 -80 0 -4 -40 rlineto
          -9.33334350586 13.3333435059 -14.6666564941 12.3333129883 -20 11.3333435059 -22.6666564941 13.3333435059 -21.6666870117 6.66665649414 -20.6666564941 0 -76.6666717529 0.666687011719 -60.3333282471 -28.6666870117 -44 -58 -34.6666564941 -45.3333435059 -20.6666717529 -56.3333129883 -6.66667175293 -67.3333435059 -2 -16 -1 -15.3333282471 0 -14.6666717529 0 -66 14.6666717529 -53.8333435059 29.3333282471 -41.6666564941 rrcurveto
          29.3333435059 -41.6666717529 39.3333282471 -20.8333282471 49.3333282471 0 33.3333282471 0 50.0000152588 22.3333282471 66.6666564941 44.6666717529 rrcurveto
          33 311 rmoveto
          -27 -259 rlineto
          -42 -30 -38.6666564941 -15 -35.3333435059 0 -34.6666717529 0 -28 15.1666564941 -21.3333282471 30.3333435059 -21.3333282471 30.3333282471 -10.6666717529 37.8333435059 0 45.3333282471 0 56 11.6666717529 49.3333435059 23.3333282471 42.6666564941 28.6666717529 52 40.3333282471 26 52 0 25.3333435059 0 22.3333129883 -7.66665649414 19.3333435059 -15.3333435059 rrcurveto
          19.3333435059 -15.3333435059 12 -19.3333129883 4.66665649414 -23.3333435059 rrcurveto
          endchar
        </CharString>
        <CharString name="question">
          -57 347 371 rmoveto
          49.3333435059 38.6666564941 27.3333129883 45.6666870117 5.33334350586 52.6666564941 4.66665649414 44 -11 39 -26.6666564941 34 -30.6666564941 37.3333129883 -43 18.6666870117 -55.3333435059 0 -90 0 -69 -47 -48 -94 rrcurveto
          63 -35 rlineto
          30 69.3333129883 46.3333282471 34.6666870117 62.6666717529 0 28 0 22.6666564941 -9 17.3333435059 -18 17.3333435059 -18 7.33331298828 -24.3333129883 -2.66665649414 -30.6666870117 -2.66665649414 -22 -11.6666870117 -21.3333435059 -20.6666564941 -20.6666564941 -6 -6.66665649414 -19.6666564941 -16.3333435059 -33.3333435059 -26 -40.6666717529 -32 -26.3333282471 -30.6666564941 -12 -29.3333435059 rrcurveto
          -10.6666717529 -25.3333435059 -4.66665649414 -38.3333282471 1.33332824707 -51.3333282471 rrcurveto
          69 hlineto
          0 28.6666717529 0.66667175293 16.3333282471 1.33332824707 4 6 12.6666717529 5.66667175293 12.6666717529 5.33332824707 12.6666564941 8 22 13.6666564941 19 19.3333435059 16 rrcurveto
          -112 -346 rmoveto
          16.6666717529 0 14.6666564941 5.5 12.6666717529 11 12.6666717529 11 7 13.5 1.33332824707 16 2 16 -4.16667175293 13.6666564941 -10.3333282471 11.3333435059 -10.3333282471 11.3333435059 -13.5 5.66665649414 -16.6666717529 0 -15.3333282471 0 -13.6666717529 -5.66665649414 -12 -11.3333435059 -12 -11.3333435059 -7 -13.6666564941 -2 -16 rrcurveto
          -1.33332824707 -16 4.16665649414 -13.5 9.66667175293 -11 9.66667175293 -11 12.5 -5.5 15.3333282471 0 rrcurveto
          endchar
        </CharString>
        <CharString name="questiondown">
          -82 102 222 rmoveto
          -54 -35.3333282471 -30.3333282471 -50.6666717529 -6.66667175293 -66 -4.66667175293 -44 11.3333435059 -39 27.3333282471 -34 30.6666564941 -37.3333435059 43 -18.6666564941 55.3333435059 0 89.3333435059 0 69 47 48.6666564941 94 rrcurveto
          -64 34 rlineto
          -30 -68.6666717529 -46.3333282471 -34.3333282471 -62.6666717529 0 -27.3333282471 0 -22.5 9 -17.6666717529 18 -17.6666564941 18 -7.16668701172 24.3333282471 3.33334350586 30.6666717529 2 22 11.3333435059 21.3333435059 20.6666564941 20.6666564941 5.33332824707 5.33332824707 20.1666717529 16.5 35 27.6666717529 35 27.6666717529 26.8333282471 40.5 18.6666717529 53.3333282471 rrcurveto
          16 46 8 48.3333435059 0 50.6666564941 0 10.6666564941 -0.333343505859 10 -0.666656494141 9.33334350586 rrcurveto
          -80 hlineto
          -0.66667175293 -58.6666564941 -7.66665649414 -49.6666870117 -14.6666717529 -40.6666564941 -16 -46 -27.3333282471 -36 -38.6666717529 -26 rrcurveto
          166 459 rmoveto
          -16.6666717529 0 -14.6666564941 -5.5 -12.6666717529 -11 -12.6666717529 -11 -7 -13.5 -1.33332824707 -16 -2 -16 4.16667175293 -13.6666870117 10.3333282471 -11.3333129883 10.3333282471 -11.3333129883 13.1666717529 -5.66668701172 16 0 16 0 14 5.5 12 11 12 11 7 13.8333129883 2 16.6666870117 rrcurveto
          1.33334350586 16 -4.16668701172 13.5 -9.66665649414 11 -9.66665649414 11 -12.5 5.5 -15.3333435059 0 rrcurveto
          endchar
        </CharString>
        <CharString name="quotedbl">
          -212 269 681 rmoveto
          31.3333435059 0 13.6666564941 -18.6666870117 -4 -37.3333129883 -1.33334350586 -14.6666870117 -6.66665649414 -24 -12 -33.3333129883 -12.6666564941 -35.3333129883 -11.6666870117 -26.0000305176 -10.6666564941 -16.6666564941 rrcurveto
          -14 hlineto
          -6.66667175293 15.3333435059 -6.33332824707 25.1666564941 -6 35 -6 35 -2.33332824707 24.8333129883 1.33332824707 14.6666870117 4 37.3333129883 18 18.6666870117 32 0 rrcurveto
          -142 hmoveto
          31.3333282471 0 13.6666717529 -18.6666870117 -4 -37.3333129883 -1.33332824707 -14.6666870117 -6.66667175293 -24 -12 -33.3333129883 -12.6666717529 -35.3333129883 -11.6666717529 -26.0000305176 -10.6666564941 -16.6666564941 rrcurveto
          -13 hlineto
          -7.33334350586 15.3333435059 -6.5 25.1666564941 -5.66665649414 35 -5.66665649414 35 -2.16668701172 24.8333129883 1.33334350586 14.6666870117 4 37.3333129883 17.6666564941 18.6666870117 31.3333435059 0 rrcurveto
          endchar
        </CharString>
        <CharString name="quotedblbase">
          -124 21 -72 rmoveto
          10 16.6666717529 11.3333282471 28 12.6666717529 39.3333282471 14 42.6666717529 8.66665649414 35.9999847412 3.33334350586 29.3333435059 rrcurveto
          97 hlineto
          -6.66667175293 -56.6666717529 -38 -68 -69.3333282471 -79.3333282471 rrcurveto
          157 12 rmoveto
          10 16.6666717529 11.3333282471 28 12.6666717529 39.3333282471 14 42.6666717529 8.66665649414 35.9999847412 3.33334350586 29.3333435059 rrcurveto
          97 hlineto
          -6.66665649414 -56.6666717529 -38 -68 -69.3333435059 -79.3333282471 rrcurveto
          endchar
        </CharString>
        <CharString name="quotedblleft">
          -98 435 708 rmoveto
          -10 -16.6666870117 -11.3333435059 -28 -12.6666564941 -39.3333129883 -14 -42.6666870117 -8.66665649414 -36 -3.33334350586 -29.3333129883 rrcurveto
          -97 hlineto
          6.66665649414 56.6666870117 38 68 69.3333435059 79.3333129883 rrcurveto
          -157 -12 rmoveto
          -10 -16.6666870117 -11.3333282471 -28 -12.6666717529 -39.3333129883 -14 -42.6666870117 -8.66667175293 -36 -3.33332824707 -29.3333129883 rrcurveto
          -97 hlineto
          6.66665649414 56.6666870117 38 68 69.3333435059 79.3333129883 rrcurveto
          endchar
        </CharString>
        <CharString name="quotedblright">
          -98 21 528 rmoveto
          -72 callsubr
          157 12 rmoveto
          10 16.6666870117 11.3333282471 28 12.6666717529 39.3333129883 14 42.6666870117 8.66665649414 36 3.33334350586 29.3333129883 rrcurveto
          97 hlineto
          -6.66665649414 -56.6666870117 -38 -68 -69.3333435059 -79.3333129883 rrcurveto
          endchar
        </CharString>
        <CharString name="quoteleft">
          -328 196 708 rmoveto
          -10 -16.6666870117 -11.3333282471 -28 -12.6666717529 -39.3333129883 -14 -42.6666870117 -8.66667175293 -36 -3.33332824707 -29.3333129883 rrcurveto
          -97 hlineto
          6.66667175293 56.6666870117 37.9999847412 68 69.3333435059 79.3333129883 rrcurveto
          endchar
        </CharString>
        <CharString name="quoteright">
          -300 37 528 rmoveto
          -72 callsubr
          endchar
        </CharString>
        <CharString name="quotesinglbase">
          -327 85 -128 rmoveto
          26.6666564941 34 18.0000152588 24.6666564941 9.33332824707 15.3333435059 16.6666717529 28 10 29 3.33332824707 30 2 18.6666717529 -5.5 16.1666717529 -13 13.6666564941 -13 13.6666564941 -14.5 6.83334350586 -16 0 -16 0 -16 -6.83334350586 -16 -13.6666564941 -16 -13.6666564941 -9 -16.1666717529 -2 -18.6666717529 rrcurveto
          -4.66667175293 -46 18.6666717529 -24 42 -2 -4 -13.3333282471 -9 -16.0000152588 -14 -18.6666564941 -21.3333282471 -28.6666564941 -11 -15.0000152588 -0.66667175293 -1.33332824707 rrcurveto
          endchar
        </CharString>
        <CharString name="quotesingle">
          -347 120 683 rmoveto
          30.6666717529 0 13.3333282471 -18.6666870117 -4 -37.3333129883 -2 -18 -7.5 -25.3333129883 -13 -32.6666870117 -13 -32.6666870117 -12.8333435059 -25.3333129883 -12.6666564941 -18 -9.33334350586 12 -8.33331298828 25 -7.33334350586 38 -6.66665649414 35.3333129883 -2.66668701172 25.6666870117 1.33334350586 16 4 37.3333129883 18 18.6666870117 32 0 rrcurveto
          endchar
        </CharString>
        <CharString name="r">
          -199 315 410 rmoveto
          32 80 rlineto
          -24.6666564941 10.6666564941 -18 5.33334350586 -11.3333435059 0 -36.6666564941 0 -45.6666717529 -37 -54.6666717529 -74 rrcurveto
          12 100 -79 0 -53 -495 79 0 31 299 rlineto
          1.33332824707 14 13.3333435059 23 25.3333282471 32 28.6666717529 35.3333435059 25.3333282471 18 22 0.666656494141 8 0 17.6666564941 -4 27.3333435059 -8 rrcurveto
          endchar
        </CharString>
        <CharString name="radical">
          -38 218 -10 rmoveto
          141 649 -79 0 -107 -523 -43 221 -75 -40 86 -307 rlineto
          endchar
        </CharString>
        <CharString name="registered">
          255 133 316 rmoveto
          0 73.3333435059 25.8333282471 62.6666564941 51.6666717529 52 51.6666564941 52 62.5 26 73.3333435059 0 73.3333435059 0 62.6666564941 -26 52 -52 52 -52 26 -62.6666564941 0 -73.3333435059 0 -73.3333282471 -26 -62.6666717529 -52 -52 -52 -52 -62.6666564941 -26 -73.3333435059 0 rrcurveto
          -73.3333435059 0 -62.6666564941 26 -52 52 -52 52 -26 62.6666717529 0 73.3333282471 rrcurveto
          -65 hmoveto
          -90 callsubr
          424 -208 rmoveto
          71 13 rlineto
          -40.6666870117 39.3333282471 -28.3333129883 30 -16 20.6666717529 rrcurveto
          -69 93 rlineto
          64.6666564941 12 32.6666870117 36.3333435059 0.666656494141 60.6666564941 0.666656494141 74.6666564941 -37 37.6666564941 -74.6666564941 0.666687011719 -21.3333435059 0 -43 -0.666687011719 -64.6666564941 -1.33331298828 rrcurveto
          -410 57 185 vlineto
          29 1 rlineto
          24 -39.3333435059 21 -32.6666564941 18 -26 28 -40 25.3333435059 -31.3333282471 22.6666564941 -22.6666717529 rrcurveto
          -112 379 rmoveto
          50 0.666656494141 25 -22.3333129883 0 -45.3333435059 0 -26.6666564941 -6.33334350586 -19.6666870117 -12.6666564941 -12.6666564941 -12.6666564941 -12.6666564941 -23.3333435059 -6.33334350586 -34 0 rrcurveto
          -42 144 hlineto
          endchar
        </CharString>
        <CharString name="ring">
          -236 163 576 rmoveto
          26.6666717529 0 22.6666564941 8.16668701172 18.6666717529 16.3333129883 18.6666717529 16.3333129883 10.6666717529 20.8333740234 2.66665649414 25.3333129883 2.66665649414 24.6666870117 -6.33331298828 20.5 -15.3333435059 16.3333129883 -15.3333282471 16.3333129883 -21 8.16668701172 -26.6666717529 0 -26.6666717529 0 -22.6666564941 -8.16668701172 -18.6666717529 -16.3333129883 -18.6666564941 -16.3333129883 -10.6666870117 -20.5 -2.66665649414 -24.6666870117 rrcurveto
          -2.66665649414 -25.3333129883 6.33331298828 -20.8333740234 15.3333435059 -16.3333129883 15.3333435059 -16.3333129883 20.9999847412 -8.16668701172 26.6666717529 0 rrcurveto
          14 130 rmoveto
          28.6666717529 0 12.6666564941 -14.3333129883 -3.33332824707 -28.6666870117 -3.33332824707 -29.3333129883 -16 -14.6666870117 -28.6666717529 0 -28.6666717529 0 -12.6666717529 14.6666870117 3.33334350586 29.3333129883 3.33332824707 28.6666870117 16 14.3333129883 28.6666717529 0 rrcurveto
          endchar
        </CharString>
        <CharString name="s">
          -104 186 -14 rmoveto
          -93 callsubr
          endchar
        </CharString>
        <CharString name="scaron">
          -104 186 -14 rmoveto
          -93 callsubr
          83 631 rmoveto
          -91 callsubr
          endchar
        </CharString>
        <CharString name="section">
          -149 157 -87 rmoveto
          38 0 32.3333282471 10.3333435059 26.6666717529 20.6666564941 30 22.6666717529 17 32 4 41.3333282471 3.33334350586 35.3333435059 -11 25.6666564941 -25.3333435059 16 29.3333435059 20 17 30.3333282471 4.66665649414 40.6666717529 5.33334350586 49.3333435059 -28.6666870117 34 -62.6666564941 18.6666564941 rrcurveto
          -62 18 rlineto
          -17.3333282471 8 -8 9.66665649414 1.33332824707 11.3333435059 2 21.3333435059 5.66667175293 15 9.33332824707 8.66665649414 9.33332824707 8.66665649414 15.6666717529 4.33334350586 22 0 22.6666717529 0 27.9999847412 -11.3333435059 33.3333435059 -22.6666564941 rrcurveto
          28 50 rlineto
          -34.6666564941 22.6666564941 -35 11.6666870117 -35.3333435059 0.666656494141 -32 0.666656494141 -28.3333282471 -9 -24.6666717529 -18.6666564941 -28 -20.6666564941 -16 -29.3333435059 -4 -38 -4 -35.3333435059 12.6666564941 -25.6666564941 29.3333435059 -16 -32.6666564941 -20.6666717529 -18.6666870117 -30.3333282471 -4.66665649414 -40 -4 -42 18.6666564941 -28.3333435059 41.3333435059 -14.6666564941 rrcurveto
          4.66667175293 -2.66665649414 5.66665649414 -2 6.66667175293 -1.33334350586 16 -4.66665649414 12.3333282471 -3.33334350586 8.66667175293 -2 20 -5.33334350586 14 -5.33331298828 8 -5.33334350586 12.6666717529 -9.33332824707 5.66665649414 -13 -1.33332824707 -16.6666717529 -1.33332824707 -12.6666717529 -7.33334350586 -12.6666564941 -13.3333282471 -12.6666717529 -15.3333282471 -13.3333282471 -16.6666717529 -6.66667175293 -18 0 rrcurveto
          -40 0 -33 15 -26 30 rrcurveto
          -37 -49 rlineto
          32 -34.6666564941 41.6666564941 -17.3333435059 51.3333435059 0 rrcurveto
          32 340 rmoveto
          25.3333282471 -6.66667175293 17 -6.33332824707 8.66667175293 -6 13.3333282471 -8.66667175293 6.00001525879 -13 -1.33334350586 -17.3333282471 -2.66667175293 -23.3333282471 -15 -17.3333435059 -27.3333282471 -11.3333282471 rrcurveto
          -30 9 rlineto
          -34.6666717529 10 -16.6666564941 12.3333282471 1.33332824707 14.6666717529 4 38.6666717529 18.6666717529 21.3333282471 33.3333282471 4 rrcurveto
          endchar
        </CharString>
        <CharString name="semicolon">
          -287 163 361 rmoveto
          18 0 16.1666717529 6.83334350586 14.3333282471 13.6666564941 14.3333282471 13.6666564941 8.5 16.8333435059 2.66667175293 20 2 20.6666564941 -4.83332824707 17.1666870117 -11.6666717529 13.6666564941 -11.6666717529 13.6666564941 -14.8333282471 6.83334350586 -18 0 -18.6666717529 0 -16.8333282471 -7 -15 -14 -15 -14 -8.5 -17 -2 -20 rrcurveto
          -2.66665649414 -20 4.83331298828 -16.8333435059 12.3333435059 -13.6666564941 12.3333282471 -13.6666564941 15.5 -6.83334350586 18.6666717529 0 rrcurveto
          -128 -433 rmoveto
          10 16.6666717529 11.3333282471 28 12.6666717529 39.3333282471 14 42.6666717529 8.33334350586 35.9999847412 2.66665649414 29.3333435059 rrcurveto
          97 hlineto
          -6.66667175293 -56.6666717529 -37.6666564941 -68 -68.6666717529 -79.3333282471 rrcurveto
          endchar
        </CharString>
        <CharString name="seven">
          501 573 rmoveto
          6 61 -392 0 -6 -60 301 0 -338 -581 80 -22 rlineto
          endchar
        </CharString>
        <CharString name="six">
          287 372 rmoveto
          39.3333435059 0 32 -13 24.6666564941 -26 24.6666564941 -26 12.3333435059 -35.3333435059 0 -44.6666564941 0 -45.3333282471 -16 -41.6666717529 -32 -38 -34 -40 -39.3333435059 -20 -44.6666564941 0 -44.6666717529 0 -35.3333282471 16.3333282471 -26 32.6666717529 -23.3333435059 28.6666564941 -11.6666564941 35.3333435059 0 42 rrcurveto
          0 46.6666717529 17.1666717529 40.8333282471 34.3333282471 35 34.3333282471 35 40.8333435059 17.5 47.3333282471 0 rrcurveto
          -40 -394 rmoveto
          70.6666564941 0 59.3333435059 25.3333282471 48 50.6666717529 48 50.6666564941 24 60.6666717529 0 70.6666717529 0 59.3333435059 -19 49.3333129883 -38 39.3333435059 -35.3333435059 37.3333435059 -42.6666564941 18.6666564941 -50 0 -32.6666564941 0 -32.6666717529 -9 -32.6666717529 -18 -37.3333282471 -20 -31.3333435059 -29.3333435059 -25.3333282471 -38.6666564941 rrcurveto
          11.3333282471 73.3333435059 27.6666717529 62 44 50.6666564941 46 53.3333129883 53.3333435059 26.6666870117 60.6666564941 0 42 0 42 -11 42 -22 rrcurveto
          38 61 rlineto
          -50.6666564941 25.3333129883 -52 12.6666870117 -53.3333435059 0 -100 0 -80.6666717529 -39 -61.3333282471 -78 -55.3333435059 -70 -33.3333282471 -91 -11.3333282471 -112 -2 -18 -1 -17.3333282471 0 -16.6666717529 0 -81.3333282471 22.6666717529 -61.3333282471 45.3333282471 -41.3333435059 38.6666717529 -35.3333282471 51 -17.6666717529 63.3333282471 0 rrcurveto
          endchar
        </CharString>
        <CharString name="slash">
          -156 47 -170 rmoveto
          388 857 -80 17 -387 -857 rlineto
          endchar
        </CharString>
        <CharString name="space">
          -268 endchar
        </CharString>
        <CharString name="sterling">
          -65 391 -7 rmoveto
          24 77 rlineto
          -39.3333435059 11.3333435059 -42.3333129883 5.66665649414 -45.3333435059 0 -20 0 -36.6666717529 -3.66665649414 -53.3333282471 -7.33334350586 22 16.6666564941 13.6666717529 34 5.33332824707 51.3333435059 4 41.3333282471 2.33332824707 41.0000152588 0.66667175293 40.6666564941 rrcurveto
          119 0 7 69 -136 0 rlineto
          -2 16.6666564941 -1.66667175293 17 -1.33332824707 17.3333435059 -2 20 -0.33332824707 17 1.33332824707 14 3.33332824707 31.3333435059 12.1666717529 27.8333435059 21 24.3333129883 21 24.3333129883 25.8333435059 12.1666870117 30.6666564941 0 14 0 26.3333435059 -9.66668701172 38.6666564941 -19.3333129883 rrcurveto
          36 61 rlineto
          -34.6666564941 21.3333129883 -38 10.6666870117 -41.3333435059 0 -54 0 -43.6666717529 -18 -33.3333282471 -36 -30.6666717529 -32.6666870117 -18.3333282471 -42 -6 -51.3333129883 -0.66667175293 -10.6666564941 1.33334350586 -35.3333435059 3.33332824707 -60 rrcurveto
          -53 0 -7 -69 60 0 rlineto
          4.66667175293 -43.3333435059 0 -43.3333282471 -4.66667175293 -43.3333282471 -4 -38.6666717529 -14.6666564941 -30.3333282471 -25.3333435059 -22 -8 -7.33334350586 -6 -4.33331298828 -4 -1.33334350586 -16.6666564941 -6 -13.3333435059 -4.33332824707 -10 -2.66667175293 rrcurveto
          3 -68 rlineto
          58.6666564941 14 73.3333435059 7 88 0 50.6666564941 0 42.3333435059 -4.66667175293 34 -9.33332824707 rrcurveto
          endchar
        </CharString>
        <CharString name="summation">
          -50 58 hmoveto
          356 0 9 77 -252 -1 245 273 -192 212 250 0 8 72 -346 0 -19 -76 195 -215 -246 -272 rlineto
          endchar
        </CharString>
        <CharString name="t">
          -190 182 -8 rmoveto
          55.3333282471 0 48.6666717529 21.6666717529 42 43.3333282471 rrcurveto
          -33 54 rlineto
          -34.6666564941 -30 -27.6666717529 -15 -20.6666717529 0 -38 0 -16.6666717529 22.3333435059 4.66667175293 44.6666564941 rrcurveto
          31 297 149 -1 7 67 -149 0 11 101 -79 0 -11 -101 -79 0 -7 -66 79 0 -30 -285 rlineto
          -0.666656494141 -8.66667175293 -0.333343505859 -8.66667175293 0 -8.66665649414 0 -38.6666564941 9.33334350586 -30.8333435059 18.6666564941 -23 18.6666717529 -23 23.6666564941 -11.5 28.6666717529 0 rrcurveto
          endchar
        </CharString>
        <CharString name="thorn">
          -19 245 -10 rmoveto
          66 0 54.3333435059 20.3333282471 42.6666564941 40.6666717529 48.6666564941 47.3333435059 29 70.9999847412 9.33334350586 94.6666717529 1.33334350586 12 0.666656494141 11.6666564941 0 11.3333435059 0 59.3333435059 -14.6666564941 47.6666564941 -29.3333435059 36 -31.3333435059 38.6666564941 -45 19.3333435059 -58.6666564941 0 -62 0 -52.3333282471 -27 -42.6666717529 -54 rrcurveto
          29 266 -83 0 -94 -880 86 0 25 236 56 -38 rlineto
          16.6666717529 -8.66667175293 21.6666564941 -4.33332824707 26.6666717529 0 rrcurveto
          52 440 rmoveto
          75.3333435059 37.6666564941 -47.6666564941 -95.3333435059 hvcurveto
          0 -56.6666717529 -12 -50.3333282471 -24 -44 -29.3333435059 -53.3333435059 -40.6666564941 -26.6666564941 -52 0 -22 0 -22.3333282471 3.33332824707 -22.6666717529 6.66667175293 -27.3333282471 7.33334350586 -18 10.3333129883 -8.66667175293 13.3333435059 rrcurveto
          25 244 rlineto
          15.3333282471 26.6666564941 20.6666717529 21.5 26 16.3333435059 26 16.3333435059 26.3333435059 8.16665649414 26.6666564941 0 rrcurveto
          endchar
        </CharString>
        <CharString name="three">
          43 46 rmoveto
          42.6666564941 -54.6666717529 58.0000152588 -27.3333282471 73.3333282471 0 74 0 60.3333435059 22.3333282471 46.6666564941 44.6666717529 40.6666564941 39.3333435059 23.3333435059 48.3333129883 6 57.3333435059 4 39.3333282471 -13 36.3333435059 -30 33.3333282471 -30 33.3333435059 -36 20.6666564941 -42 8 34.6666564941 7.33334350586 29.6666870117 18.3333129883 24.6666564941 29.3333435059 rrcurveto
          22.6666564941 27.3333435059 13 29 3.33334350586 30.6666564941 5.33334350586 48.6666870117 -14.8333435059 42.3333129883 -35 36 -35 36 -43.1666564941 18 -51.3333435059 0 -60 0 -58 -29.3333129883 -56 -58.6666870117 rrcurveto
          39 -46 rlineto
          12.6666717529 16.6666870117 20.1666564941 16.5 27.6666717529 16.3333129883 27.6666717529 16.3333129883 23.8333282471 8.16668701172 20 0 34.6666564941 0 26.3333435059 -14 18 -28 16 -24.6666870117 6 -28.6666259766 -4 -32.6666870117 -5.33334350586 -54.6666564941 -31 -36 -56.6666564941 -17.3333435059 -24 -7.33334350586 -17.6666717529 -3.66665649414 -11.3333282471 0 rrcurveto
          -2.66667175293 0 -7.66665649414 0.333343505859 -12.6666717529 0.666656494141 rrcurveto
          -22 0 -6 -66 34 0 rlineto
          15.3333282471 -0.666656494141 11.6666717529 -0.333343505859 8 0 47.3333435059 0 36.3333129883 -12.1666564941 25.3333435059 -24.3333435059 25.3333435059 -24.3333282471 11 -29.5 -3.33334350586 -34.6666717529 -4.66665649414 -38.6666717529 -14 -33.6666717529 -23.3333435059 -28.6666564941 -28 -33.3333282471 -35.6666564941 -16.6666717529 -43.3333435059 0 -24 0 -27.3333282471 8 -30.6666717529 16 rrcurveto
          -26.6666564941 14 -22.6666870117 16.3333435059 -18.6666564941 18.6666564941 rrcurveto
          endchar
        </CharString>
        <CharString name="tilde">
          -166 268 549 rmoveto
          8 0 13.1666564941 3.66668701172 18.3333435059 7.33331298828 18.3333435059 7.33331298828 12.5 7.33337402344 6.66665649414 7.33331298828 rrcurveto
          -19 60 rlineto
          -20 -16.6666870117 -17.6666564941 -8.33331298828 -15.3333435059 0 -13.3333435059 0 -19.6666564941 11.5 -26 23 -26 23 -22.3333282471 11.1666870117 -18.6666717529 -0.666687011719 -16.6666717529 -0.666687011719 -17.9999847412 -5 -19.3333435059 -9.33331298828 -21.3333435059 -9.33331298828 -15.9999847412 -11.6666870117 -10.6666717529 -14 rrcurveto
          20 -59 rlineto
          24 28 25 14 26 0 10 0 19.1666717529 -11.5 28.3333282471 -23 28.3333282471 -23 23.5 -11.5 18.6666717529 0 rrcurveto
          endchar
        </CharString>
        <CharString name="trademark">
          100 157 315 rmoveto
          29 275 89 0 5 52 -248 0 -5 -52 95 0 -29 -275 rlineto
          466 199 rmoveto
          -21 -199 64 0 34 329 -75 0 -113 -229 -65 229 -78 0 -34 -329 60 0 21 201 56 -201 54 0 rlineto
          endchar
        </CharString>
        <CharString name="two">
          39 hmoveto
          406 0 8 77 -293 0 171 183 rlineto
          76.6666564941 82.6666564941 41.3333435059 71.3333435059 6 60 5.33334350586 48.6666870117 -14.1666870117 43 -33.6666564941 37.3333129883 -33.6666564941 37.3333129883 -40.1666870117 18.6666870117 -46.6666564941 0 -60.6666717529 0 -61.3333282471 -31 -62 -62 rrcurveto
          43 -49 rlineto
          43.3333282471 48 45 24 46.6666717529 0 25.3333435059 0 22.1666564941 -10.3333129883 19 -20.6666870117 19 -20.6666870117 8.16665649414 -22.3333129883 -2.66665649414 -24 -6 -55.3333435059 -41.3333435059 -67.3333129883 -76.6666564941 -79.3333435059 rrcurveto
          -206 -212 rlineto
          endchar
        </CharString>
        <CharString name="u">
          -30 421 hmoveto
          52 495 -78 0 -35 -331 rlineto
          -2.66665649414 -24 -17.8333435059 -24.5 -33 -25 -33 -25 -32.1666717529 -12.5 -31.3333282471 0 -51.3333282471 0 -25.6666717529 29.3333435059 0 58.6666564941 0 7.33332824707 0.33332824707 7.66667175293 0.66667175293 8 rrcurveto
          35 331 -79 0 -35 -335 rlineto
          -1.33332824707 -8.66667175293 -0.66667175293 -8.66665649414 0 -8.66667175293 0 -46.6666564941 13.3333435059 -37.3333435059 26.6666564941 -28 24.6666564941 -26.6666717529 30.3333435059 -13.3333282471 36 0 52.6666717529 0 53.3333282471 23.3333282471 54 46.6666717529 rrcurveto
          6 -52 rlineto
          endchar
        </CharString>
        <CharString name="uacute">
          -59 414 hmoveto
          53 495 -78 0 -35 -331 rlineto
          -2.66665649414 -24 -17.8333435059 -24.5 -33 -25 -33 -25 -32.1666717529 -12.5 -31.3333282471 0 -52 0 -26 29.3333435059 0 58.6666564941 0 7.33332824707 0.666656494141 7.66667175293 1.33334350586 8 rrcurveto
          35 331 -79 0 -36 -335 rlineto
          -0.66667175293 -8.66667175293 -0.33332824707 -8.66665649414 0 -8.66667175293 0 -46.6666564941 12.6666717529 -37.0000152588 25.3333282471 -27.3333282471 25.3333435059 -27.3333282471 30.6666564941 -13.6666717529 36 0 52.6666717529 0 53.9999847412 23.3333282471 55.3333435059 46.6666717529 2 -25.3333282471 1.33334350586 -17.3333435059 0.666656494141 -9.33332824707 rrcurveto
          -138 557 rmoveto
          220 90 -40 65 -220 -96 rlineto
          endchar
        </CharString>
        <CharString name="ucircumflex">
          -59 414 hmoveto
          53 495 -78 0 -35 -331 rlineto
          -2.66665649414 -24 -17.8333435059 -24.5 -33 -25 -33 -25 -32.1666717529 -12.5 -31.3333282471 0 -52 0 -26 29.3333435059 0 58.6666564941 0 7.33332824707 0.666656494141 7.66667175293 1.33334350586 8 rrcurveto
          35 331 -79 0 -36 -335 rlineto
          -0.66667175293 -8.66667175293 -0.33332824707 -8.66665649414 0 -8.66667175293 0 -46.6666564941 13.3333282471 -37.3333435059 26.6666717529 -28 24.6666564941 -26.6666717529 30.0000152588 -13.3333282471 35.3333282471 0 52.6666717529 0 53.9999847412 23.3333282471 55.3333435059 46.6666717529 2 -25.3333282471 1.33334350586 -17.3333435059 0.666656494141 -9.33332824707 rrcurveto
          -52 619 rmoveto
          -80 callsubr
          endchar
        </CharString>
        <CharString name="udieresis">
          -59 418 hmoveto
          52 495 -78 0 -35 -331 rlineto
          -2.66665649414 -24 -17.8333435059 -24.5 -33 -25 -33 -25 -32.1666717529 -12.5 -31.3333282471 0 -51.3333282471 0 -25.6666717529 29.3333435059 0 58.6666564941 0 7.33332824707 0.33332824707 7.66667175293 0.66667175293 8 rrcurveto
          35 331 -79 0 -36 -335 rlineto
          -0.66667175293 -8.66667175293 -0.33332824707 -8.66665649414 0 -8.66667175293 0 -46.6666564941 13.3333282471 -37.3333435059 26.6666717529 -28 24.6666564941 -26.6666717529 30.3333435059 -13.3333282471 36 0 52 0 53.6666564941 23.3333282471 55.3333435059 46.6666717529 2 -25.3333282471 1.66665649414 -17.3333435059 1.33334350586 -9.33332824707 rrcurveto
          42 546 rmoveto
          -88 callsubr
          -209 hmoveto
          -81 callsubr
          endchar
        </CharString>
        <CharString name="ugrave">
          -59 414 hmoveto
          53 495 -78 0 -35 -331 rlineto
          -2.66665649414 -24 -17.8333435059 -24.5 -33 -25 -33 -25 -32.1666717529 -12.5 -31.3333282471 0 -52 0 -26 29.3333435059 0 58.6666564941 0 7.33332824707 0.666656494141 7.66667175293 1.33334350586 8 rrcurveto
          35 331 -79 0 -36 -335 rlineto
          -0.66667175293 -8.66667175293 -0.33332824707 -8.66665649414 0 -8.66667175293 0 -46.6666564941 13.3333282471 -37.3333435059 26.6666717529 -28 24 -26.6666717529 30 -13.3333282471 36 0 52.6666717529 0 53.9999847412 23.3333282471 55.3333435059 46.6666717529 2 -25.3333282471 1.33334350586 -17.3333435059 0.666656494141 -9.33332824707 rrcurveto
          34 556 rmoveto
          -83 callsubr
          endchar
        </CharString>
        <CharString name="underscore">
          2 -109 rmoveto
          525 0 6 59 -525 0 rlineto
          endchar
        </CharString>
        <CharString name="v">
          -77 234 -12 rmoveto
          233 491 -74 22 -170 -386 -95 386 -81 -22 133 -491 rlineto
          endchar
        </CharString>
        <CharString name="w">
          194 534 -9 rmoveto
          205 488 -71 20 -147 -394 -87 387 -70 0 -164 -388 -69 395 -79 -20 96 -488 63 0 171 370 91 -370 rlineto
          endchar
        </CharString>
        <CharString name="x">
          -49 383 -26 rmoveto
          72 46 -162 231 192 221 -58 35 -167 -197 -120 198 -78 -44 139 -218 -205 -225 62 -45 184 214 rlineto
          endchar
        </CharString>
        <CharString name="y">
          -61 224 -84 rmoveto
          -92 callsubr
          endchar
        </CharString>
        <CharString name="yacute">
          -61 200.837890625 572 rmoveto
          -85 callsubr
          64.162109375 -715 rmoveto
          -92 callsubr
          endchar
        </CharString>
        <CharString name="ydieresis">
          -74 221 -84 rmoveto
          269 565 -68 17 -167 -353 -114 354 -78 -21 144 -436 -51 -96 rlineto
          -30 -45.3333435059 -30.3333435059 -22.3333129883 -30.6666564941 0.666656494141 -15.3333282471 0.666656494141 -16 4.66668701172 -16.6666717529 8.66665649414 rrcurveto
          -33 -71 rlineto
          34.6666717529 -12 22.6666564941 -6 10.6666717529 0 36 0 34.6666564941 12.3333282471 33.3333435059 24.6666717529 29.3333282471 21.3333282471 21.6666717529 25.0000152588 14 28.6666564941 rrcurveto
          156 630 rmoveto
          15.3333435059 0 12.6666564941 5.33331298828 10 10.6666870117 10 10.6666870117 5.66665649414 12 1.33334350586 13.3333129883 1.33334350586 12.6666870117 -3.16668701172 11.8333129883 -7.66665649414 11 -7.66665649414 11 -11.5 5.5 -15.3333435059 0 -16 0 -13 -5.33331298828 -10 -10.6666870117 -10 -10.6666870117 -5.66665649414 -12 -1.33334350586 -13.3333129883 rrcurveto
          -1.33334350586 -13.3333129883 3 -12 7.33334350586 -10.6666870117 7.33334350586 -10.6666870117 12 -5.33331298828 16.6666564941 0 rrcurveto
          -209 hmoveto
          15.3333282471 0 12.5 5.33331298828 9.66667175293 10.6666870117 9.66667175293 10.6666870117 5.5 12 1.33332824707 13.3333129883 1.33332824707 13.3333129883 -3 12 -7.33332824707 10.6666870117 -7.33332824707 10.6666870117 -11.3333435059 5.33331298828 -15.3333282471 0 -16 0 -13 -5.33331298828 -10 -10.6666870117 -10 -10.6666870117 -5.66665649414 -12 -1.33334350586 -13.3333129883 rrcurveto
          -1.33334350586 -13.3333129883 3 -12 7.33334350586 -10.6666870117 7.33332824707 -10.6666870117 12 -5.33331298828 16.6666717529 0 rrcurveto
          endchar
        </CharString>
        <CharString name="yen">
          -10 296 283 rmoveto
          216 358 -91 0 -160 -264 -104 264 -90 0 140 -358 -2 -18 -89 0 -6 -59 89 0 -7 -60 -89 0 -6 -59 89 0 -9 -85 rlineto
          89 0 9 85 86 0 6 59 -86 0 7 60 86 0 6 59 -86 0 rlineto
          endchar
        </CharString>
        <CharString name="z">
          -59 27 hmoveto
          386 0 7 70 -279 0 rlineto
          25.3333282471 26.6666564941 17 18.3333435059 8.66667175293 10 rrcurveto
          252 299 7 70 -362 0 -7 -64 269 0 rlineto
          -22.6666564941 -23.3333435059 -19 -20.3333129883 -15.3333435059 -17.3333435059 rrcurveto
          -260 -303 rlineto
          endchar
        </CharString>
        <CharString name="zcaron">
          -59 20 hmoveto
          386 0 8 70 -279 0 rlineto
          25.3333282471 26.6666564941 17 18.3333435059 8.66667175293 10 rrcurveto
          251 299 8 70 -362 0 -7 -64 269 0 rlineto
          -26.6666564941 -27.3333435059 -19 -20.3333129883 -11.3333435059 -13.3333435059 rrcurveto
          -261 -303 rlineto
          308 551 rmoveto
          -91 callsubr
          endchar
        </CharString>
        <CharString name="zero">
          227 -9 rmoveto
          91.3333435059 0 72.6666564941 43 54 86 46.6666564941 73.3333282471 23.3333435059 85.3333282471 0 97.3333435059 0 76 -17.3333435059 62.3333129883 -34.6666564941 48.6666870117 -38 52.6666870117 -53.3333435059 26.3333129883 -68.6666564941 0 -90.6666717529 0 -71.6666564941 -43 -52.6666717529 -86 -45.3333282471 -72.6666564941 -22.6666717529 -84.6666870117 0 -96.6666564941 rrcurveto
          0 -77.3333282471 15 -61.6666717529 30 -46 34.6666564941 -55.3333282471 54.0000152588 -27.6666717529 73.3333282471 0 rrcurveto
          208 334 rmoveto
          -7.33334350586 -67.3333435059 -19 -57.6666564941 -30.6666564941 -48 -37.3333435059 -58 -47.6666564941 -29 -58 0 -48.6666717529 0 -36 21.3333435059 -23.3333282471 42.6666564941 -19.3333435059 34.6666717529 -9.66665649414 46.6666564941 0 58.6666717529 0 75.3333435059 13.6666564941 65 27.3333435059 54.6666564941 35.3333282471 69.3333129883 52 34.6666870117 68.6666717529 0 rrcurveto
          95.3333435059 47.6666564941 -63.6666564941 -127.333343506 hvcurveto
          0 -16.6666564941 -1 -17.3333435059 -2 -18 rrcurveto
          endchar
        </CharString>
</ttFont>
